<?xml version="1.0" encoding="utf-8"?>
<!-- Generator: Adobe Illustrator 15.1.0, SVG Export Plug-In . SVG Version: 6.00 Build 0)  -->
<!DOCTYPE svg PUBLIC "-//W3C//DTD SVG 1.1//EN" "http://www.w3.org/Graphics/SVG/1.1/DTD/svg11.dtd">
<svg version="1.1" id="Layer_1" xmlns="http://www.w3.org/2000/svg" xmlns:xlink="http://www.w3.org/1999/xlink" x="0px" y="0px"
	 width="16px" height="16px" viewBox="0 0 16 16" enable-background="new 0 0 16 16" xml:space="preserve">
<path fill-rule="evenodd" clip-rule="evenodd" fill="#231F20" d="M14,16H4c-0.553,0-1-0.447-1-1v-1c0.553,0,1-0.447,1-1v-1
	c0-0.552-0.447-1-1-1V5c0.553,0,1-0.447,1-1V3c0-0.552-0.447-1-1-1V1c0-0.552,0.447-1,1-1h10c0.553,0,1,0.448,1,1v14
	C15,15.553,14.553,16,14,16z M12,10.5c-0.154-0.917-0.771-1.688-1.556-2.122C10.787,8.02,11,7.535,11,7V6c0-1.104-0.896-2-2-2
	S7,4.896,7,6v1c0,0.535,0.213,1.02,0.556,1.378C6.771,8.812,6.154,9.583,6,10.5l0,0C6,11.328,6.672,12,7.5,12h3
	C11.328,12,12,11.328,12,10.5L12,10.5z M2.5,4h-1C1.224,4,1,3.776,1,3.5S1.224,3,1.5,3h1C2.776,3,3,3.224,3,3.5S2.776,4,2.5,4z M1,1
	c0-0.552,0.447-1,1-1v2H1V1z M2,11H1V5h1V11z M1.5,12h1C2.776,12,3,12.224,3,12.5S2.776,13,2.5,13h-1C1.224,13,1,12.776,1,12.5
	S1.224,12,1.5,12z M2,16c-0.553,0-1-0.447-1-1v-1h1V16z"/>
</svg>
