<?xml version="1.0" encoding="utf-8"?>
<!-- Generator: Adobe Illustrator 15.1.0, SVG Export Plug-In . SVG Version: 6.00 Build 0)  -->
<!DOCTYPE svg PUBLIC "-//W3C//DTD SVG 1.1//EN" "http://www.w3.org/Graphics/SVG/1.1/DTD/svg11.dtd">
<svg version="1.1" id="Layer_1" xmlns="http://www.w3.org/2000/svg" xmlns:xlink="http://www.w3.org/1999/xlink" x="0px" y="0px"
	 width="16px" height="16px" viewBox="0 0 16 16" enable-background="new 0 0 16 16" xml:space="preserve">
<path fill-rule="evenodd" clip-rule="evenodd" fill="#231F20" d="M14,16H4c-0.552,0-1-0.447-1-1v-1c0.552,0,1-0.447,1-1v-1
	c0-0.552-0.448-1-1-1V5c0.552,0,1-0.448,1-1V3c0-0.552-0.448-1-1-1V1c0-0.552,0.448-1,1-1h10c0.553,0,1,0.448,1,1v14
	C15,15.553,14.553,16,14,16z M13,8c0-2.209-1.791-4-4-4S5,5.791,5,8s1.791,4,4,4h0.5c0.276,0,0.5-0.224,0.5-0.5S9.776,11,9.5,11H9
	c-1.656,0-3-1.343-3-3c0-1.657,1.344-3,3-3c1.657,0,3,1.343,3,3v1.5c0,0.276-0.224,0.5-0.5,0.5S11,9.776,11,9.5V8
	c0-1.104-0.896-2-2-2S7,6.896,7,8s0.896,2,2,2c0.375,0,0.722-0.109,1.021-0.289C10.125,10.438,10.744,11,11.5,11
	c0.828,0,1.5-0.672,1.5-1.5V8z M9,9C8.447,9,8,8.553,8,8s0.447-1,1-1s1,0.447,1,1S9.553,9,9,9z M2.5,4h-1C1.224,4,1,3.776,1,3.5
	C1,3.224,1.224,3,1.5,3h1C2.776,3,3,3.224,3,3.5C3,3.776,2.776,4,2.5,4z M1,1c0-0.552,0.448-1,1-1v2H1V1z M2,11H1V5h1V11z M1.5,12h1
	C2.776,12,3,12.224,3,12.5S2.776,13,2.5,13h-1C1.224,13,1,12.776,1,12.5S1.224,12,1.5,12z M2,16c-0.552,0-1-0.447-1-1v-1h1V16z"/>
</svg>
