<?xml version="1.0" encoding="utf-8"?>
<!-- Generator: Adobe Illustrator 15.1.0, SVG Export Plug-In . SVG Version: 6.00 Build 0)  -->
<!DOCTYPE svg PUBLIC "-//W3C//DTD SVG 1.1//EN" "http://www.w3.org/Graphics/SVG/1.1/DTD/svg11.dtd">
<svg version="1.1" id="Layer_1" xmlns="http://www.w3.org/2000/svg" xmlns:xlink="http://www.w3.org/1999/xlink" x="0px" y="0px"
	 width="16px" height="16px" viewBox="0 0 16 16" enable-background="new 0 0 16 16" xml:space="preserve">
<g>
	<g>
		<path fill-rule="evenodd" clip-rule="evenodd" fill="#231F20" d="M11,9H5c-0.552,0-1,0.447-1,1v1c0,0.553,0.448,1,1,1h6
			c0.553,0,1-0.447,1-1v-1C12,9.447,11.553,9,11,9z M11,11H5v-1h6V11z M13,0H3C1.343,0,0,1.343,0,3v10c0,1.657,1.343,3,3,3h10
			c1.656,0,3-1.343,3-3V3C16,1.343,14.656,0,13,0z M14,13c0,0.553-0.447,1-1,1H3c-0.552,0-1-0.447-1-1V3c0-0.553,0.448-1,1-1h10
			c0.553,0,1,0.447,1,1V13z M11,4H9C8.448,4,8,4.447,8,5v1c0,0.553,0.448,1,1,1h2c0.553,0,1-0.447,1-1V5C12,4.447,11.553,4,11,4z
			 M11,6H9V5h2V6z"/>
	</g>
</g>
</svg>
