<?xml version="1.0" encoding="utf-8"?>
<!-- Generator: Adobe Illustrator 15.1.0, SVG Export Plug-In . SVG Version: 6.00 Build 0)  -->
<!DOCTYPE svg PUBLIC "-//W3C//DTD SVG 1.1//EN" "http://www.w3.org/Graphics/SVG/1.1/DTD/svg11.dtd">
<svg version="1.1" id="Layer_1" xmlns="http://www.w3.org/2000/svg" xmlns:xlink="http://www.w3.org/1999/xlink" x="0px" y="0px"
	 width="16px" height="16px" viewBox="0 0 16 16" enable-background="new 0 0 16 16" xml:space="preserve">
<g>
	<g>
		<path fill-rule="evenodd" clip-rule="evenodd" fill="#231F20" d="M6,4H5C4.448,4,4,4.447,4,5v6c0,0.553,0.448,1,1,1h1
			c0.552,0,1-0.447,1-1V5C7,4.447,6.552,4,6,4z M6,11H5V5h1V11z M11,8h-1C9.447,8,9,8.447,9,9v2c0,0.553,0.447,1,1,1h1
			c0.553,0,1-0.447,1-1V9C12,8.447,11.553,8,11,8z M11,11h-1V9h1V11z M13,0H3C1.343,0,0,1.343,0,3v10c0,1.657,1.343,3,3,3h10
			c1.656,0,3-1.343,3-3V3C16,1.343,14.656,0,13,0z M14,13c0,0.553-0.447,1-1,1H3c-0.552,0-1-0.447-1-1V3c0-0.553,0.448-1,1-1h10
			c0.553,0,1,0.447,1,1V13z"/>
	</g>
</g>
</svg>
