<?xml version="1.0" encoding="utf-8"?>
<!-- Generator: Adobe Illustrator 15.1.0, SVG Export Plug-In . SVG Version: 6.00 Build 0)  -->
<!DOCTYPE svg PUBLIC "-//W3C//DTD SVG 1.1//EN" "http://www.w3.org/Graphics/SVG/1.1/DTD/svg11.dtd">
<svg version="1.1" id="Layer_1" xmlns="http://www.w3.org/2000/svg" xmlns:xlink="http://www.w3.org/1999/xlink" x="0px" y="0px"
	 width="16px" height="16px" viewBox="0 0 16 16" enable-background="new 0 0 16 16" xml:space="preserve">
<path fill-rule="evenodd" clip-rule="evenodd" fill="#231F20" d="M8,16c-4.418,0-8-3.582-8-8l0,0V6l4,4H2.353
	C3.071,12.018,4.836,13.534,7,13.899V9H6C5.448,9,5,8.553,5,8s0.448-1,1-1h1V5.816C5.837,5.403,5,4.305,5,3
	c0-1.519,1.133-2.761,2.597-2.959C7.727,0.014,7.862,0,8,0s0.273,0.014,0.403,0.041C9.867,0.239,11,1.481,11,3
	c0,1.305-0.838,2.403-2,2.816V7h1c0.553,0,1,0.447,1,1s-0.447,1-1,1H9v4.899c2.164-0.365,3.93-1.882,4.647-3.899H12l4-4v2l0,0
	C16,12.418,12.418,16,8,16z M8,2C7.448,2,7,2.447,7,3s0.448,1,1,1s1-0.447,1-1S8.552,2,8,2z"/>
</svg>
