<?xml version="1.0" encoding="utf-8"?>
<!-- Generator: Adobe Illustrator 15.1.0, SVG Export Plug-In . SVG Version: 6.00 Build 0)  -->
<!DOCTYPE svg PUBLIC "-//W3C//DTD SVG 1.1//EN" "http://www.w3.org/Graphics/SVG/1.1/DTD/svg11.dtd">
<svg version="1.1" id="Layer_1" xmlns="http://www.w3.org/2000/svg" xmlns:xlink="http://www.w3.org/1999/xlink" x="0px" y="0px"
	 width="16px" height="16px" viewBox="0 0 16 16" enable-background="new 0 0 16 16" xml:space="preserve">
<g>
	<path fill-rule="evenodd" clip-rule="evenodd" fill="#231F20" d="M8,0C3.582,0,0,3.582,0,8s3.582,8,8,8s8-3.582,8-8S12.418,0,8,0z
		 M8,14c-3.313,0-6-2.687-6-6s2.687-6,6-6s6,2.687,6,6S11.313,14,8,14z"/>
	<path fill-rule="evenodd" clip-rule="evenodd" fill="#231F20" d="M8.707,4.292C8.512,4.097,8.256,3.999,8,3.999
		S7.488,4.097,7.293,4.292l-2,2C5.007,6.578,4.922,7.009,5.076,7.383C5.23,7.756,5.596,8,6,8h1v3c0,0.553,0.447,1,1,1s1-0.447,1-1V8
		h1c0.404,0,0.77-0.244,0.924-0.617c0.154-0.375,0.068-0.805-0.217-1.091L8.707,4.292z"/>
</g>
</svg>
