<?xml version="1.0" encoding="utf-8"?>
<!-- Generator: Adobe Illustrator 15.1.0, SVG Export Plug-In . SVG Version: 6.00 Build 0)  -->
<!DOCTYPE svg PUBLIC "-//W3C//DTD SVG 1.1//EN" "http://www.w3.org/Graphics/SVG/1.1/DTD/svg11.dtd">
<svg version="1.1" id="Layer_1" xmlns="http://www.w3.org/2000/svg" xmlns:xlink="http://www.w3.org/1999/xlink" x="0px" y="0px"
	 width="16px" height="16px" viewBox="0 0 16 16" enable-background="new 0 0 16 16" xml:space="preserve">
<g>
	<path fill-rule="evenodd" clip-rule="evenodd" fill="#231F20" d="M0,8c0,4.418,3.582,8,8,8s8-3.582,8-8s-3.582-8-8-8S0,3.582,0,8z
		 M14,8c0,3.313-2.687,6-6,6s-6-2.687-6-6s2.687-6,6-6S14,4.687,14,8z"/>
	<path fill-rule="evenodd" clip-rule="evenodd" fill="#231F20" d="M4.292,7.293C4.097,7.488,3.999,7.744,3.999,8
		s0.098,0.512,0.293,0.707l2,2c0.286,0.286,0.717,0.371,1.091,0.217C7.756,10.77,8,10.404,8,10V9h3c0.553,0,1-0.447,1-1
		s-0.447-1-1-1H8V6c0-0.404-0.244-0.77-0.617-0.924C7.008,4.922,6.578,5.008,6.292,5.293L4.292,7.293z"/>
</g>
</svg>
