<?xml version="1.0" encoding="utf-8"?>
<!-- Generator: Adobe Illustrator 15.1.0, SVG Export Plug-In . SVG Version: 6.00 Build 0)  -->
<!DOCTYPE svg PUBLIC "-//W3C//DTD SVG 1.1//EN" "http://www.w3.org/Graphics/SVG/1.1/DTD/svg11.dtd">
<svg version="1.1" id="Layer_1" xmlns="http://www.w3.org/2000/svg" xmlns:xlink="http://www.w3.org/1999/xlink" x="0px" y="0px"
	 width="16px" height="16px" viewBox="0 0 16 16" enable-background="new 0 0 16 16" xml:space="preserve">
<g>
	<path fill-rule="evenodd" clip-rule="evenodd" fill="#231F20" d="M16,8c0-4.418-3.582-8-8-8S0,3.582,0,8s3.582,8,8,8
		S16,12.418,16,8z M14,8c0,3.313-2.687,6-6,6s-6-2.687-6-6s2.687-6,6-6S14,4.687,14,8z"/>
	<path fill-rule="evenodd" clip-rule="evenodd" fill="#231F20" d="M8.707,11.708C8.512,11.903,8.256,12.001,8,12.001
		s-0.512-0.098-0.707-0.293l-2-2C5.007,9.422,4.922,8.991,5.076,8.617C5.23,8.244,5.596,8,6,8h1V5c0-0.553,0.447-1,1-1s1,0.447,1,1
		v3h1c0.404,0,0.77,0.244,0.924,0.617c0.154,0.375,0.068,0.805-0.217,1.091L8.707,11.708z"/>
</g>
</svg>
