<?xml version="1.0" encoding="utf-8"?>
<!-- Generator: Adobe Illustrator 15.1.0, SVG Export Plug-In . SVG Version: 6.00 Build 0)  -->
<!DOCTYPE svg PUBLIC "-//W3C//DTD SVG 1.1//EN" "http://www.w3.org/Graphics/SVG/1.1/DTD/svg11.dtd">
<svg version="1.1" id="Layer_1" xmlns="http://www.w3.org/2000/svg" xmlns:xlink="http://www.w3.org/1999/xlink" x="0px" y="0px"
	 width="16px" height="16px" viewBox="0 0 16 16" enable-background="new 0 0 16 16" xml:space="preserve">
<g>
	<path fill-rule="evenodd" clip-rule="evenodd" fill="#231F20" d="M8,0C3.582,0,0,3.582,0,8s3.582,8,8,8s8-3.582,8-8S12.418,0,8,0z
		 M8,2c3.313,0,6,2.687,6,6s-2.687,6-6,6s-6-2.687-6-6S4.687,2,8,2z"/>
	<path fill-rule="evenodd" clip-rule="evenodd" fill="#231F20" d="M11.708,7.293C11.903,7.488,12.001,7.744,12.001,8
		s-0.098,0.512-0.293,0.707l-2,2c-0.286,0.286-0.717,0.371-1.091,0.217C8.244,10.77,8,10.404,8,10V9H5C4.447,9,4,8.553,4,8
		s0.447-1,1-1h3V6c0-0.404,0.244-0.77,0.617-0.924c0.375-0.154,0.805-0.068,1.091,0.217L11.708,7.293z"/>
</g>
</svg>
