<?xml version="1.0" encoding="utf-8"?>
<!-- Generator: Adobe Illustrator 15.1.0, SVG Export Plug-In . SVG Version: 6.00 Build 0)  -->
<!DOCTYPE svg PUBLIC "-//W3C//DTD SVG 1.1//EN" "http://www.w3.org/Graphics/SVG/1.1/DTD/svg11.dtd">
<svg version="1.1" id="Layer_1" xmlns="http://www.w3.org/2000/svg" xmlns:xlink="http://www.w3.org/1999/xlink" x="0px" y="0px"
	 width="16px" height="16px" viewBox="0 0 16 16" enable-background="new 0 0 16 16" xml:space="preserve">
<path fill-rule="evenodd" clip-rule="evenodd" fill="#231F20" d="M14.196,6.732C13.686,7.026,12.116,7.637,10.678,8
	c1.438,0.363,3.008,0.974,3.519,1.268C15.152,9.82,15.48,11.043,14.928,12c-0.552,0.957-1.775,1.284-2.731,0.732
	c-0.511-0.295-1.825-1.351-2.858-2.415C9.744,11.745,10,13.411,10,14c0,1.104-0.896,2-2,2s-2-0.896-2-2
	c0-0.589,0.256-2.255,0.662-3.683c-1.033,1.064-2.347,2.12-2.858,2.415C2.847,13.284,1.624,12.957,1.072,12S0.847,9.82,1.804,9.268
	C2.314,8.974,3.884,8.363,5.323,8C3.884,7.637,2.314,7.026,1.804,6.732C0.847,6.18,0.52,4.957,1.072,4s1.775-1.284,2.732-0.732
	c0.511,0.295,1.825,1.351,2.858,2.415C6.256,4.255,6,2.589,6,2c0-1.104,0.896-2,2-2s2,0.896,2,2c0,0.589-0.256,2.255-0.662,3.683
	c1.033-1.064,2.348-2.12,2.858-2.415c0.956-0.552,2.18-0.225,2.731,0.732C15.48,4.957,15.152,6.18,14.196,6.732z"/>
</svg>
