<?xml version="1.0" encoding="utf-8"?>
<!-- Generator: Adobe Illustrator 15.1.0, SVG Export Plug-In . SVG Version: 6.00 Build 0)  -->
<!DOCTYPE svg PUBLIC "-//W3C//DTD SVG 1.1//EN" "http://www.w3.org/Graphics/SVG/1.1/DTD/svg11.dtd">
<svg version="1.1" id="Layer_1" xmlns="http://www.w3.org/2000/svg" xmlns:xlink="http://www.w3.org/1999/xlink" x="0px" y="0px"
	 width="16px" height="16px" viewBox="0 0 16 16" enable-background="new 0 0 16 16" xml:space="preserve">
<path fill-rule="evenodd" clip-rule="evenodd" fill="#231F20" d="M12,1c0-0.553,0.447-1,1-1s1,0.447,1,1v9.5
	c0,3.038-2.463,5.5-5.5,5.5S3,13.538,3,10.5V4c0-2.209,1.791-4,4-4s4,1.791,4,4v6.5c0,1.381-1.119,2.5-2.5,2.5S6,11.881,6,10.5V4
	c0-0.552,0.447-1,1-1s1,0.448,1,1v6.5C8,10.776,8.224,11,8.5,11S9,10.776,9,10.5V4c0-1.104-0.896-2-2-2S5,2.896,5,4v6.5
	C5,12.433,6.567,14,8.5,14s3.5-1.567,3.5-3.5V1z"/>
</svg>
