<?xml version="1.0" encoding="utf-8"?>
<!-- Generator: Adobe Illustrator 15.1.0, SVG Export Plug-In . SVG Version: 6.00 Build 0)  -->
<!DOCTYPE svg PUBLIC "-//W3C//DTD SVG 1.1//EN" "http://www.w3.org/Graphics/SVG/1.1/DTD/svg11.dtd">
<svg version="1.1" id="Layer_1" xmlns="http://www.w3.org/2000/svg" xmlns:xlink="http://www.w3.org/1999/xlink" x="0px" y="0px"
	 width="16px" height="16px" viewBox="0 0 16 16" enable-background="new 0 0 16 16" xml:space="preserve">
<path fill-rule="evenodd" clip-rule="evenodd" fill="#231F20" d="M13,1c0-0.553,0.447-1,1-1s1,0.447,1,1v8c0,3.866-3.134,7-7,7
	s-7-3.134-7-7V5c0-2.762,2.238-5,5-5s5,2.238,5,5v3c0,1.657-1.343,3-3,3S5,9.657,5,8V5c0-0.553,0.447-1,1-1s1,0.447,1,1v3
	c0,0.553,0.447,1,1,1s1-0.447,1-1V5c0-1.657-1.343-3-3-3S3,3.343,3,5v4c0,2.762,2.238,5,5,5s5-2.238,5-5V1z"/>
</svg>
