<?xml version="1.0" encoding="utf-8"?>
<!-- Generator: Adobe Illustrator 15.1.0, SVG Export Plug-In . SVG Version: 6.00 Build 0)  -->
<!DOCTYPE svg PUBLIC "-//W3C//DTD SVG 1.1//EN" "http://www.w3.org/Graphics/SVG/1.1/DTD/svg11.dtd">
<svg version="1.1" id="Layer_1" xmlns="http://www.w3.org/2000/svg" xmlns:xlink="http://www.w3.org/1999/xlink" x="0px" y="0px"
	 width="16px" height="16px" viewBox="0 0 16 16" enable-background="new 0 0 16 16" xml:space="preserve">
<path fill-rule="evenodd" clip-rule="evenodd" fill="#231F20" d="M3,12c-1.657,0-3-1.344-3-3V7c0-1.657,1.343-3,3-3h1l5-4v16l-5-4H3
	z M7,12V9V7V4L5,6H3C2.447,6,2,6.448,2,7v2c0,0.553,0.447,1,1,1h2L7,12z M13,8c0,1.861-1.277,3.412-3,3.858V9.723
	C10.596,9.376,11,8.738,11,8s-0.404-1.376-1-1.723V4.142C11.723,4.587,13,6.138,13,8z"/>
</svg>
