<?xml version="1.0" encoding="utf-8"?>
<!-- Generator: Adobe Illustrator 15.1.0, SVG Export Plug-In . SVG Version: 6.00 Build 0)  -->
<!DOCTYPE svg PUBLIC "-//W3C//DTD SVG 1.1//EN" "http://www.w3.org/Graphics/SVG/1.1/DTD/svg11.dtd">
<svg version="1.1" id="Layer_1" xmlns="http://www.w3.org/2000/svg" xmlns:xlink="http://www.w3.org/1999/xlink" x="0px" y="0px"
	 width="16px" height="16px" viewBox="0 0 16 16" enable-background="new 0 0 16 16" xml:space="preserve">
<path fill-rule="evenodd" clip-rule="evenodd" fill="#231F20" d="M15,11v2c0,0.553-0.447,1-1,1H1c-0.552,0-1-0.447-1-1V4
	c0-0.552,0.448-1,1-1h13c0.553,0,1,0.448,1,1v2c0.553,0,1,0.448,1,1v3C16,10.553,15.553,11,15,11z M13,10V7V6c0-0.552-0.447-1-1-1H3
	C2.448,5,2,5.448,2,6v5c0,0.553,0.448,1,1,1h9c0.553,0,1-0.447,1-1V10z M11,11h-1H9v-1H8V9H7V8h1V7h1V6h1h1v1h1v1h-1v1h1v1h-1V11z
	 M3,8h3v1H3V8z"/>
</svg>
