<?xml version="1.0" encoding="utf-8"?>
<!-- Generator: Adobe Illustrator 15.1.0, SVG Export Plug-In . SVG Version: 6.00 Build 0)  -->
<!DOCTYPE svg PUBLIC "-//W3C//DTD SVG 1.1//EN" "http://www.w3.org/Graphics/SVG/1.1/DTD/svg11.dtd">
<svg version="1.1" id="Layer_1" xmlns="http://www.w3.org/2000/svg" xmlns:xlink="http://www.w3.org/1999/xlink" x="0px" y="0px"
	 width="16px" height="16px" viewBox="0 0 16 16" enable-background="new 0 0 16 16" xml:space="preserve">
<g>
	<g>
		<path fill-rule="evenodd" clip-rule="evenodd" fill="#231F20" d="M15,6V4c0-0.552-0.447-1-1-1H1C0.448,3,0,3.448,0,4v9
			c0,0.553,0.448,1,1,1h13c0.553,0,1-0.447,1-1v-2c0.553,0,1-0.447,1-1V7C16,6.448,15.553,6,15,6z M13,11c0,0.553-0.447,1-1,1H3
			c-0.552,0-1-0.447-1-1V6c0-0.552,0.448-1,1-1h9c0.553,0,1,0.448,1,1V11z M3.5,6C3.224,6,3,6.224,3,6.5v4C3,10.776,3.224,11,3.5,11
			C3.776,11,4,10.776,4,10.5v-4C4,6.224,3.776,6,3.5,6z M5.5,6C5.224,6,5,6.224,5,6.5v4C5,10.776,5.224,11,5.5,11
			C5.776,11,6,10.776,6,10.5v-4C6,6.224,5.776,6,5.5,6z M7.5,6C7.224,6,7,6.224,7,6.5v4C7,10.776,7.224,11,7.5,11
			C7.776,11,8,10.776,8,10.5v-4C8,6.224,7.776,6,7.5,6z"/>
	</g>
</g>
</svg>
