<?xml version="1.0" encoding="utf-8"?>
<!-- Generator: Adobe Illustrator 15.1.0, SVG Export Plug-In . SVG Version: 6.00 Build 0)  -->
<!DOCTYPE svg PUBLIC "-//W3C//DTD SVG 1.1//EN" "http://www.w3.org/Graphics/SVG/1.1/DTD/svg11.dtd">
<svg version="1.1" id="Layer_1" xmlns="http://www.w3.org/2000/svg" xmlns:xlink="http://www.w3.org/1999/xlink" x="0px" y="0px"
	 width="16px" height="16px" viewBox="0 0 16 16" enable-background="new 0 0 16 16" xml:space="preserve">
<path fill-rule="evenodd" clip-rule="evenodd" fill="#231F20" d="M16,9v1h-1l0,0c0,1.657-1.343,3-3,3H7.643l-0.744,1.015L7.119,13H3
	c-1.657,0-3-1.343-3-3V6c0-1.657,1.343-3,3-3h5.299l0.699-0.952L8.805,3H12c1.657,0,3,1.343,3,3h1v1l0,0V9L16,9z M3,5
	C2.447,5,2,5.448,2,6v4c0,0.553,0.447,1,1,1h4.554l0.441-2.033h-4.07L6.833,5H3z M13,6c0-0.552-0.447-1-1-1H8.399L7.995,6.993h4.049
	L9.108,11H12c0.553,0,1-0.447,1-1V6z"/>
</svg>
