<?xml version="1.0" encoding="utf-8"?>
<!-- Generator: Adobe Illustrator 15.1.0, SVG Export Plug-In . SVG Version: 6.00 Build 0)  -->
<!DOCTYPE svg PUBLIC "-//W3C//DTD SVG 1.1//EN" "http://www.w3.org/Graphics/SVG/1.1/DTD/svg11.dtd">
<svg version="1.1" id="Layer_1" xmlns="http://www.w3.org/2000/svg" xmlns:xlink="http://www.w3.org/1999/xlink" x="0px" y="0px"
	 width="16px" height="16px" viewBox="0 0 16 16" enable-background="new 0 0 16 16" xml:space="preserve">
<path fill-rule="evenodd" clip-rule="evenodd" fill="#231F20" d="M16,9L16,9v1h-1l0,0c0,1.657-1.343,3-3,3H3c-1.657,0-3-1.343-3-3V6
	c0-1.657,1.343-3,3-3h9c1.657,0,3,1.343,3,3h1v1l0,0V9z M13,6c0-0.552-0.447-1-1-1H3C2.447,5,2,5.448,2,6v4c0,0.553,0.447,1,1,1h9
	c0.553,0,1-0.447,1-1V6z M9,6h1v4H9V6z M7,6h1v4H7V6z M5,6h1v4H5V6z M3,6h1v4H3V6z"/>
</svg>
