<?xml version="1.0" encoding="utf-8"?>
<!-- Generator: Adobe Illustrator 15.1.0, SVG Export Plug-In . SVG Version: 6.00 Build 0)  -->
<!DOCTYPE svg PUBLIC "-//W3C//DTD SVG 1.1//EN" "http://www.w3.org/Graphics/SVG/1.1/DTD/svg11.dtd">
<svg version="1.1" id="Layer_1" xmlns="http://www.w3.org/2000/svg" xmlns:xlink="http://www.w3.org/1999/xlink" x="0px" y="0px"
	 width="16px" height="16px" viewBox="0 0 16 16" enable-background="new 0 0 16 16" xml:space="preserve">
<path fill-rule="evenodd" clip-rule="evenodd" fill="#231F20" d="M13.363,14.778l1.415-1.414L2.636,1.222L1.222,2.636L13.363,14.778
	z M13,10.172V8c0-2.065-1.254-3.837-3.041-4.6C9.986,3.271,10,3.137,10,3c0-1.104-0.896-2-2-2S6,1.896,6,3
	c0,0.065,0.013,0.127,0.019,0.19L13,10.172z M8,13c0.597,0,1.11-0.28,1.477-0.695l-1.287-1.287C8.124,11.016,8.067,11,8,11
	c-0.754,0-1.435,0.144-1.962,0.374C6.213,12.299,7.023,13,8,13z M8,14c-2.209,0-4-0.896-4-2c0-0.97,1.38-1.777,3.211-1.96
	L3.355,6.184C3.134,6.748,3,7.356,3,8v2.346C2.371,10.82,2,11.388,2,12c0,1.657,2.687,3,6,3c1.344,0,2.57-0.229,3.57-0.602
	l-0.914-0.913C9.949,13.802,9.024,14,8,14z"/>
</svg>
