<?xml version="1.0" encoding="utf-8"?>
<!-- Generator: Adobe Illustrator 15.1.0, SVG Export Plug-In . SVG Version: 6.00 Build 0)  -->
<!DOCTYPE svg PUBLIC "-//W3C//DTD SVG 1.1//EN" "http://www.w3.org/Graphics/SVG/1.1/DTD/svg11.dtd">
<svg version="1.1" id="Layer_1" xmlns="http://www.w3.org/2000/svg" xmlns:xlink="http://www.w3.org/1999/xlink" x="0px" y="0px"
	 width="16px" height="16px" viewBox="0 0 16 16" enable-background="new 0 0 16 16" xml:space="preserve">
<path fill-rule="evenodd" clip-rule="evenodd" fill="#231F20" d="M8,15c-3.313,0-6-1.343-6-3c0-0.612,0.371-1.18,1-1.654V8
	c0-2.065,1.253-3.837,3.041-4.6C6.014,3.271,6,3.137,6,3c0-1.104,0.896-2,2-2s2,0.896,2,2c0,0.137-0.014,0.271-0.041,0.4
	C11.746,4.163,13,5.935,13,8v2.346c0.629,0.475,1,1.042,1,1.654C14,13.657,11.313,15,8,15z M8,10c-2.209,0-4,0.896-4,2s1.791,2,4,2
	s4-0.896,4-2S10.209,10,8,10z M8,13c-0.977,0-1.787-0.701-1.962-1.626C6.565,11.144,7.246,11,8,11s1.436,0.144,1.963,0.374
	C9.787,12.299,8.977,13,8,13z"/>
</svg>
