<?xml version="1.0" encoding="utf-8"?>
<!-- Generator: Adobe Illustrator 15.1.0, SVG Export Plug-In . SVG Version: 6.00 Build 0)  -->
<!DOCTYPE svg PUBLIC "-//W3C//DTD SVG 1.1//EN" "http://www.w3.org/Graphics/SVG/1.1/DTD/svg11.dtd">
<svg version="1.1" id="Layer_1" xmlns="http://www.w3.org/2000/svg" xmlns:xlink="http://www.w3.org/1999/xlink" x="0px" y="0px"
	 width="16px" height="16px" viewBox="0 0 16 16" enable-background="new 0 0 16 16" xml:space="preserve">
<path fill-rule="evenodd" clip-rule="evenodd" fill="#231F20" d="M8,13c-3.313,0-6-1.343-6-3c0-0.612,0.371-1.18,1-1.654V7
	c0-2.065,1.253-3.837,3.041-4.6C6.014,2.271,6,2.137,6,2c0-1.104,0.896-2,2-2s2,0.896,2,2c0,0.137-0.014,0.271-0.041,0.4
	C11.746,3.163,13,4.935,13,7v1.346C13.629,8.82,14,9.388,14,10C14,11.657,11.313,13,8,13z M8,14c0.694,0,1.352-0.066,1.984-0.16
	C9.988,13.894,10,13.945,10,14c0,1.104-0.896,2-2,2s-2-0.896-2-2c0-0.055,0.012-0.106,0.016-0.16C6.649,13.934,7.306,14,8,14z"/>
</svg>
