<?xml version="1.0" encoding="utf-8"?>
<!-- Generator: Adobe Illustrator 15.1.0, SVG Export Plug-In . SVG Version: 6.00 Build 0)  -->
<!DOCTYPE svg PUBLIC "-//W3C//DTD SVG 1.1//EN" "http://www.w3.org/Graphics/SVG/1.1/DTD/svg11.dtd">
<svg version="1.1" id="Layer_1" xmlns="http://www.w3.org/2000/svg" xmlns:xlink="http://www.w3.org/1999/xlink" x="0px" y="0px"
	 width="16px" height="16px" viewBox="0 0 16 16" enable-background="new 0 0 16 16" xml:space="preserve">
<path fill-rule="evenodd" clip-rule="evenodd" fill="#231F20" d="M14,5v8c0,1.656-1.344,3-3,3H5c-1.657,0-3-1.344-3-3V5
	C1.448,5,1,4.552,1,4s0.448-1,1-1h3c0-1.657,1.343-3,3-3c1.656,0,3,1.343,3,3h3c0.553,0,1,0.448,1,1S14.553,5,14,5z M8,2
	C7.448,2,7,2.448,7,3h2C9,2.448,8.552,2,8,2z M12,5H4v8c0,0.553,0.448,1,1,1h6c0.553,0,1-0.447,1-1V5z M10,6h1v7h-1V6z M7,6h2v7H7V6
	z M5,6h1v7H5V6z"/>
</svg>
