<?xml version="1.0" encoding="utf-8"?>
<!-- Generator: Adobe Illustrator 15.1.0, SVG Export Plug-In . SVG Version: 6.00 Build 0)  -->
<!DOCTYPE svg PUBLIC "-//W3C//DTD SVG 1.1//EN" "http://www.w3.org/Graphics/SVG/1.1/DTD/svg11.dtd">
<svg version="1.1" id="Layer_1" xmlns="http://www.w3.org/2000/svg" xmlns:xlink="http://www.w3.org/1999/xlink" x="0px" y="0px"
	 width="16px" height="16px" viewBox="0 0 16 16" enable-background="new 0 0 16 16" xml:space="preserve">
<path fill-rule="evenodd" clip-rule="evenodd" fill="#231F20" d="M15,14c-1.53,0.067-4.447,0.329-6.03,1.151
	C8.895,15.629,8.499,16,8,16c-0.498,0-0.895-0.371-0.97-0.849C5.447,14.329,2.53,14.067,1,14c-0.552,0-1-0.447-1-1V1
	c0-0.552,0.448-1,1-1c0.035,0,0.064,0.017,0.099,0.02C7.976,0.198,8,2,8,2s0.024-1.802,6.901-1.98C14.936,0.017,14.965,0,15,0
	c0.553,0,1,0.448,1,1v12C16,13.553,15.553,14,15,14z M7,3.134C5.71,2.478,3.576,2.205,2,2.088v9.966C4.684,12.191,6.186,12.593,7,13
	V3.134z M14,2.088c-1.575,0.117-3.71,0.39-5,1.045V13c0.814-0.407,2.315-0.809,5-0.945V2.088z"/>
</svg>
