<?xml version="1.0" encoding="utf-8"?>
<!-- Generator: Adobe Illustrator 15.1.0, SVG Export Plug-In . SVG Version: 6.00 Build 0)  -->
<!DOCTYPE svg PUBLIC "-//W3C//DTD SVG 1.1//EN" "http://www.w3.org/Graphics/SVG/1.1/DTD/svg11.dtd">
<svg version="1.1" id="Layer_1" xmlns="http://www.w3.org/2000/svg" xmlns:xlink="http://www.w3.org/1999/xlink" x="0px" y="0px"
	 width="16px" height="16px" viewBox="0 0 16 16" enable-background="new 0 0 16 16" xml:space="preserve">
<g>
	<g>
		<path fill-rule="evenodd" clip-rule="evenodd" fill="#231F20" d="M15.121,1.344C14.785,1.117,14.395,1,14,1
			c-0.251,0-0.503,0.048-0.743,0.144l-5,2C8.163,3.181,8.086,3.243,8,3.294c-0.086-0.051-0.163-0.113-0.257-0.15l-5-2
			C2.503,1.048,2.251,1,2,1C1.606,1,1.214,1.117,0.879,1.344C0.329,1.716,0,2.336,0,3v9c0,0.817,0.498,1.554,1.257,1.857l5,2
			C6.497,15.953,6.749,16,7,16c0.35,0,0.691-0.106,1-0.286C8.309,15.894,8.65,16,9,16c0.251,0,0.503-0.047,0.743-0.143l5-2
			C15.502,13.554,16,12.817,16,12V3C16,2.336,15.671,1.716,15.121,1.344z M7,14l-5-2V3l5,2V14z M14,12l-5,2V5l5-2V12z M6,5.6L3,4.4
			v1L6,6.6V5.6z M6,7.6L3,6.4v1L6,8.6V7.6z M6,9.6L3,8.4v1L6,10.6V9.6z M6,11.6L3,10.4v1L6,12.6V11.6z M13,10.4L10,11.6v1l3-1.199
			V10.4z M13,8.4L10,9.6v1L13,9.4V8.4z M13,6.4L10,7.6v1L13,7.4V6.4z M13,4.4L10,5.6v1L13,5.4V4.4z"/>
	</g>
</g>
</svg>
