<?xml version="1.0" encoding="utf-8"?>
<!-- Generator: Adobe Illustrator 15.1.0, SVG Export Plug-In . SVG Version: 6.00 Build 0)  -->
<!DOCTYPE svg PUBLIC "-//W3C//DTD SVG 1.1//EN" "http://www.w3.org/Graphics/SVG/1.1/DTD/svg11.dtd">
<svg version="1.1" id="Layer_1" xmlns="http://www.w3.org/2000/svg" xmlns:xlink="http://www.w3.org/1999/xlink" x="0px" y="0px"
	 width="16px" height="16px" viewBox="0 0 16 16" enable-background="new 0 0 16 16" xml:space="preserve">
<path fill-rule="evenodd" clip-rule="evenodd" fill="#231F20" d="M14,9c-0.553,0-1-0.448-1-1s0.447-1,1-1s1,0.448,1,1S14.553,9,14,9
	z M11.535,4.465c-0.391-0.391-0.391-1.024,0-1.415s1.024-0.391,1.415,0c0.39,0.391,0.39,1.024,0,1.415
	C12.56,4.855,11.926,4.855,11.535,4.465z M8,12c-2.209,0-4-1.791-4-4s1.791-4,4-4s4,1.791,4,4S10.209,12,8,12z M8,6
	C6.896,6,6,6.896,6,8s0.896,2,2,2s2-0.896,2-2S9.104,6,8,6z M8,3C7.447,3,7,2.552,7,2s0.447-1,1-1s1,0.448,1,1S8.553,3,8,3z
	 M3.051,4.465c-0.391-0.391-0.391-1.024,0-1.415c0.39-0.391,1.023-0.391,1.414,0s0.391,1.024,0,1.415
	C4.074,4.855,3.44,4.855,3.051,4.465z M2,9C1.447,9,1,8.552,1,8s0.447-1,1-1s1,0.448,1,1S2.553,9,2,9z M4.465,11.535
	c0.391,0.391,0.391,1.023,0,1.414s-1.024,0.391-1.414,0c-0.391-0.391-0.391-1.023,0-1.414C3.44,11.145,4.074,11.145,4.465,11.535z
	 M8,13c0.553,0,1,0.447,1,1s-0.447,1-1,1s-1-0.447-1-1S7.447,13,8,13z M12.95,11.535c0.39,0.391,0.39,1.023,0,1.414
	c-0.391,0.391-1.024,0.391-1.415,0s-0.391-1.023,0-1.414S12.56,11.145,12.95,11.535z"/>
</svg>
