<?xml version="1.0" encoding="utf-8"?>
<!-- Generator: Adobe Illustrator 15.1.0, SVG Export Plug-In . SVG Version: 6.00 Build 0)  -->
<!DOCTYPE svg PUBLIC "-//W3C//DTD SVG 1.1//EN" "http://www.w3.org/Graphics/SVG/1.1/DTD/svg11.dtd">
<svg version="1.1" id="Layer_1" xmlns="http://www.w3.org/2000/svg" xmlns:xlink="http://www.w3.org/1999/xlink" x="0px" y="0px"
	 width="16px" height="16px" viewBox="0 0 16 16" enable-background="new 0 0 16 16" xml:space="preserve">
<path fill-rule="evenodd" clip-rule="evenodd" fill="#231F20" d="M14,12.816V5c0-1.657-1.344-3-3-3H3.184C3.597,0.837,4.696,0,6,0h7
	c1.656,0,3,1.343,3,3v7C16,11.305,15.162,12.403,14,12.816z M13,6v7c0,1.656-1.344,3-3,3H3c-1.657,0-3-1.344-3-3V6
	c0-1.657,1.343-3,3-3h7C11.656,3,13,4.343,13,6z M2,13c0,0.553,0.448,1,1,1h7c0.553,0,1-0.447,1-1V9H2V13z M2,6v2h9V6
	c0-0.552-0.447-1-1-1H3C2.448,5,2,5.448,2,6z M10,7H7V6h3V7z M5,6h1v1H5V6z M3,6h1v1H3V6z"/>
</svg>
