<?xml version="1.0" encoding="utf-8"?>
<!-- Generator: Adobe Illustrator 15.1.0, SVG Export Plug-In . SVG Version: 6.00 Build 0)  -->
<!DOCTYPE svg PUBLIC "-//W3C//DTD SVG 1.1//EN" "http://www.w3.org/Graphics/SVG/1.1/DTD/svg11.dtd">
<svg version="1.1" id="Layer_1" xmlns="http://www.w3.org/2000/svg" xmlns:xlink="http://www.w3.org/1999/xlink" x="0px" y="0px"
	 width="16px" height="16px" viewBox="0 0 16 16" enable-background="new 0 0 16 16" xml:space="preserve">
<path fill-rule="evenodd" clip-rule="evenodd" fill="#231F20" d="M13,16h-2v-2h2c0.553,0,1-0.447,1-1V6H2v7c0,0.553,0.448,1,1,1h2v2
	H3c-1.657,0-3-1.344-3-3V3c0-1.657,1.343-3,3-3h10c1.656,0,3,1.343,3,3v10C16,14.656,14.656,16,13,16z M14,3c0-0.552-0.447-1-1-1H3
	C2.448,2,2,2.448,2,3v2h12V3z M4,4H3V3h1V4z M6,4H5V3h1V4z M13,4H7V3h6V4z M7.293,8.292C7.488,8.097,7.744,7.999,8,7.999
	s0.512,0.098,0.707,0.293l2,2c0.285,0.286,0.371,0.716,0.217,1.091C10.77,11.756,10.404,12,10,12H9v3c0,0.553-0.447,1-1,1
	c-0.552,0-1-0.447-1-1v-3H6c-0.404,0-0.77-0.244-0.924-0.617c-0.154-0.374-0.069-0.805,0.217-1.091L7.293,8.292z"/>
</svg>
