<?xml version="1.0" encoding="utf-8"?>
<!-- Generator: Adobe Illustrator 15.1.0, SVG Export Plug-In . SVG Version: 6.00 Build 0)  -->
<!DOCTYPE svg PUBLIC "-//W3C//DTD SVG 1.1//EN" "http://www.w3.org/Graphics/SVG/1.1/DTD/svg11.dtd">
<svg version="1.1" id="Layer_1" xmlns="http://www.w3.org/2000/svg" xmlns:xlink="http://www.w3.org/1999/xlink" x="0px" y="0px"
	 width="16px" height="16px" viewBox="0 0 16 16" enable-background="new 0 0 16 16" xml:space="preserve">
<path fill-rule="evenodd" clip-rule="evenodd" fill="#231F20" d="M13,16h-1.756l0.88-0.881c0.322-0.324,0.56-0.707,0.705-1.119H13
	c0.553,0,1-0.447,1-1V6H2v7c0,0.553,0.448,1,1,1h0.17c0.146,0.414,0.384,0.799,0.708,1.123L4.757,16H3c-1.657,0-3-1.344-3-3V3
	c0-1.657,1.343-3,3-3h10c1.657,0,3,1.343,3,3v10C16,14.656,14.657,16,13,16z M14,3c0-0.552-0.447-1-1-1H3C2.448,2,2,2.448,2,3v2h12
	V3z M4,4H3V3h1V4z M6,4H5V3h1V4z M13,4H7V3h6V4z M6,12h1V9c0-0.552,0.448-1,1-1c0.553,0,1,0.447,1,1v3h1
	c0.404,0,0.77,0.244,0.924,0.617c0.154,0.375,0.068,0.805-0.217,1.09l-2,2C8.512,15.902,8.256,16.002,8,16.002
	s-0.512-0.1-0.707-0.295l-2-2c-0.286-0.285-0.371-0.717-0.217-1.09S5.596,12,6,12z"/>
</svg>
