<?xml version="1.0" encoding="utf-8"?>
<!-- Generator: Adobe Illustrator 15.1.0, SVG Export Plug-In . SVG Version: 6.00 Build 0)  -->
<!DOCTYPE svg PUBLIC "-//W3C//DTD SVG 1.1//EN" "http://www.w3.org/Graphics/SVG/1.1/DTD/svg11.dtd">
<svg version="1.1" id="Layer_1" xmlns="http://www.w3.org/2000/svg" xmlns:xlink="http://www.w3.org/1999/xlink" x="0px" y="0px"
	 width="16px" height="16px" viewBox="0 0 16 16" enable-background="new 0 0 16 16" xml:space="preserve">
<path fill-rule="evenodd" clip-rule="evenodd" fill="#231F20" d="M16,12.998c0,1.657-1.343,3-3,3h-1.756l0.88-0.88
	c0.322-0.324,0.56-0.708,0.705-1.12H13c0.553,0,1-0.447,1-1V3.999H2v8.999c0,0.553,0.448,1,1,1h0.17
	c0.146,0.414,0.384,0.799,0.708,1.123l0.878,0.877H3c-1.657,0-3-1.343-3-3V2.999c0-1.657,1.343-3,3-3h10c1.657,0,3,1.343,3,3V12.998
	z M3,0.999c-0.552,0-1,0.448-1,1s0.448,1,1,1s1-0.448,1-1S3.552,0.999,3,0.999z M6,11.998h1V8.999c0-0.553,0.448-1,1-1
	c0.553,0,1,0.447,1,1v2.999h1c0.404,0,0.77,0.244,0.924,0.618c0.154,0.375,0.068,0.805-0.217,1.09l-2,2C8.512,15.901,8.256,16,8,16
	s-0.512-0.099-0.707-0.294l-2-2c-0.286-0.285-0.371-0.717-0.217-1.09C5.23,12.242,5.596,11.998,6,11.998z"/>
</svg>
