<?xml version="1.0" encoding="utf-8"?>
<!-- Generator: Adobe Illustrator 15.1.0, SVG Export Plug-In . SVG Version: 6.00 Build 0)  -->
<!DOCTYPE svg PUBLIC "-//W3C//DTD SVG 1.1//EN" "http://www.w3.org/Graphics/SVG/1.1/DTD/svg11.dtd">
<svg version="1.1" id="Layer_1" xmlns="http://www.w3.org/2000/svg" xmlns:xlink="http://www.w3.org/1999/xlink" x="0px" y="0px"
	 width="16px" height="16px" viewBox="0 0 16 16" enable-background="new 0 0 16 16" xml:space="preserve">
<path fill-rule="evenodd" clip-rule="evenodd" fill="#231F20" d="M13,16H3c-1.657,0-3-1.343-3-3V3c0-1.657,1.343-3,3-3h10
	c1.657,0,3,1.343,3,3v10C16,14.657,14.657,16,13,16z M14,3c0-0.552-0.447-1-1-1H3C2.448,2,2,2.448,2,3v2h12V3z M14,6H2v7
	c0,0.553,0.448,1,1,1h10c0.553,0,1-0.447,1-1V6z M10.121,12.121c-0.391,0.391-1.023,0.391-1.414,0L8,11.414l-0.707,0.707
	c-0.391,0.391-1.024,0.391-1.414,0c-0.391-0.391-0.391-1.023,0-1.414L6.586,10L5.879,9.293c-0.391-0.391-0.391-1.024,0-1.414
	c0.39-0.391,1.023-0.391,1.414,0L8,8.586l0.707-0.707c0.391-0.391,1.023-0.391,1.414,0c0.391,0.39,0.391,1.023,0,1.414L9.414,10
	l0.707,0.707C10.512,11.098,10.512,11.73,10.121,12.121z M4,4H3V3h1V4z M6,4H5V3h1V4z M13,4H7V3h6V4z"/>
</svg>
