<?xml version="1.0" encoding="utf-8"?>
<!-- Generator: Adobe Illustrator 15.1.0, SVG Export Plug-In . SVG Version: 6.00 Build 0)  -->
<!DOCTYPE svg PUBLIC "-//W3C//DTD SVG 1.1//EN" "http://www.w3.org/Graphics/SVG/1.1/DTD/svg11.dtd">
<svg version="1.1" id="Layer_1" xmlns="http://www.w3.org/2000/svg" xmlns:xlink="http://www.w3.org/1999/xlink" x="0px" y="0px"
	 width="16px" height="16px" viewBox="0 0 16 16" enable-background="new 0 0 16 16" xml:space="preserve">
<path fill-rule="evenodd" clip-rule="evenodd" fill="#231F20" d="M10.486,9.314c-0.158,0.222-0.323,0.434-0.499,0.622
	C9.988,9.959,10,9.978,10,10v2c0,0.553-0.447,1-1,1H7c-0.553,0-1-0.447-1-1v-2c0-0.022,0.012-0.041,0.013-0.063
	c-0.176-0.188-0.341-0.4-0.499-0.622C4.019,8.45,3,6.852,3,5c0-2.762,2.238-5,5-5s5,2.238,5,5C13,6.852,11.981,8.45,10.486,9.314z
	 M7.5,14h1C8.776,14,9,14.224,9,14.5S8.776,15,8.5,15h-1C7.224,15,7,14.776,7,14.5S7.224,14,7.5,14z"/>
</svg>
