<?xml version="1.0" encoding="utf-8"?>
<!-- Generator: Adobe Illustrator 15.1.0, SVG Export Plug-In . SVG Version: 6.00 Build 0)  -->
<!DOCTYPE svg PUBLIC "-//W3C//DTD SVG 1.1//EN" "http://www.w3.org/Graphics/SVG/1.1/DTD/svg11.dtd">
<svg version="1.1" id="Layer_1" xmlns="http://www.w3.org/2000/svg" xmlns:xlink="http://www.w3.org/1999/xlink" x="0px" y="0px"
	 width="16px" height="16px" viewBox="0 0 16 16" enable-background="new 0 0 16 16" xml:space="preserve">
<path fill-rule="evenodd" clip-rule="evenodd" fill="#231F20" d="M12.377,7.387C12.314,7.586,12.208,7.792,12,8c-1,1-1,2-1,2v1
	c0,0.553-0.447,1-1,1H6c-0.553,0-1-0.447-1-1v-1c0-0.727-0.524-1.447-0.813-1.791c-0.009-0.01-0.017-0.021-0.024-0.03
	C4.065,8.065,4,8,4,8V7.965C3.378,7.137,3,6.117,3,5c0-2.762,2.238-5,5-5s5,2.238,5,5C13,5.869,12.77,6.679,12.377,7.387z M8,2
	C6.343,2,5,3.343,5,5c0,1.305,0.838,2.403,2,2.816V9c0,0.553,0.447,1,1,1s1-0.447,1-1V7.816C10.162,7.403,11,6.305,11,5
	C11,3.343,9.657,2,8,2z M6.5,13h3c0.276,0,0.5,0.224,0.5,0.5S9.776,14,9.5,14h-3C6.224,14,6,13.776,6,13.5S6.224,13,6.5,13z M7.5,15
	h1C8.776,15,9,15.224,9,15.5S8.776,16,8.5,16h-1C7.224,16,7,15.776,7,15.5S7.224,15,7.5,15z"/>
</svg>
