<?xml version="1.0" encoding="utf-8"?>
<!-- Generator: Adobe Illustrator 15.1.0, SVG Export Plug-In . SVG Version: 6.00 Build 0)  -->
<!DOCTYPE svg PUBLIC "-//W3C//DTD SVG 1.1//EN" "http://www.w3.org/Graphics/SVG/1.1/DTD/svg11.dtd">
<svg version="1.1" id="Layer_1" xmlns="http://www.w3.org/2000/svg" xmlns:xlink="http://www.w3.org/1999/xlink" x="0px" y="0px"
	 width="16px" height="16px" viewBox="0 0 16 16" enable-background="new 0 0 16 16" xml:space="preserve">
<g>
	<g>
		<path fill-rule="evenodd" clip-rule="evenodd" fill="#231F20" d="M13,0L7,2H4C2.343,2,1,3.343,1,5C0.448,5,0,5.448,0,6
			s0.448,1,1,1c0,1.234,0.747,2.293,1.812,2.754L2,15c0,0.553,0.448,1,1,1h2c0.552,0,1-0.447,1-1l0.75-5H7l6,2c1.656,0,3-2.687,3-6
			S14.656,0,13,0z M4,6H3V4h1V6z M6,6H5V4h1V6z M13,10c-1.104,0-2-1.791-2-4s0.896-4,2-4s2,1.791,2,4S14.104,10,13,10z M13,5h-0.908
			C12.036,5.314,12,5.647,12,6s0.036,0.686,0.092,1H13c0.553,0,1-0.448,1-1S13.553,5,13,5z"/>
	</g>
</g>
</svg>
