<?xml version="1.0" encoding="utf-8"?>
<!-- Generator: Adobe Illustrator 15.1.0, SVG Export Plug-In . SVG Version: 6.00 Build 0)  -->
<!DOCTYPE svg PUBLIC "-//W3C//DTD SVG 1.1//EN" "http://www.w3.org/Graphics/SVG/1.1/DTD/svg11.dtd">
<svg version="1.1" id="Layer_1" xmlns="http://www.w3.org/2000/svg" xmlns:xlink="http://www.w3.org/1999/xlink" x="0px" y="0px"
	 width="16px" height="16px" viewBox="0 0 16 16" enable-background="new 0 0 16 16" xml:space="preserve">
<g>
	<g>
		<path fill-rule="evenodd" clip-rule="evenodd" fill="#231F20" d="M13,5h-0.908C12.036,5.314,12,5.647,12,6s0.036,0.686,0.092,1H13
			c0.553,0,1-0.448,1-1S13.553,5,13,5z M13,0c-2.844,2.906-7,3-7,3H3C1.343,3,0,4.343,0,6s1.343,3,3,3
			c0,0.139,0.028,0.27,0.079,0.389c0.094,0.225,0.272,0.398,0.49,0.504C3.584,9.9,3.595,9.914,3.611,9.922C3.73,9.973,3.862,10,4,10
			l-1,5c0,0.553,0.448,1,1,1h2c0.552,0,1-0.447,1-1s-0.448-1-1-1l0.8-4H7c0.451,0,0.818-0.305,0.942-0.715
			C9.398,9.625,11.405,10.37,13,12c1.656,0,3-2.687,3-6S14.656,0,13,0z M3,7H2V5h1V7z M13,10c-1.104,0-2-1.791-2-4s0.896-4,2-4
			s2,1.791,2,4S14.104,10,13,10z"/>
	</g>
</g>
</svg>
