<?xml version="1.0" encoding="utf-8"?>
<!-- Generator: Adobe Illustrator 15.1.0, SVG Export Plug-In . SVG Version: 6.00 Build 0)  -->
<!DOCTYPE svg PUBLIC "-//W3C//DTD SVG 1.1//EN" "http://www.w3.org/Graphics/SVG/1.1/DTD/svg11.dtd">
<svg version="1.1" id="Layer_1" xmlns="http://www.w3.org/2000/svg" xmlns:xlink="http://www.w3.org/1999/xlink" x="0px" y="0px"
	 width="16px" height="16px" viewBox="0 0 16 16" enable-background="new 0 0 16 16" xml:space="preserve">
<path fill-rule="evenodd" clip-rule="evenodd" fill="#231F20" d="M15,15H1c-0.553,0-1-0.447-1-1V4c0-0.552,0.447-1,1-1h3V2
	c0-0.552,0.447-1,1-1h6c0.553,0,1,0.448,1,1v1h3c0.553,0,1,0.448,1,1v10C16,14.553,15.553,15,15,15z M14,5h-3h-1V3H6v2H5H2v8h12V5z
	 M3.5,6C3.776,6,4,6.224,4,6.5C4,6.776,3.776,7,3.5,7S3,6.776,3,6.5C3,6.224,3.224,6,3.5,6z M8,6c1.657,0,3,1.343,3,3
	c0,1.656-1.343,3-3,3s-3-1.344-3-3C5,7.343,6.343,6,8,6z M8,11c1.104,0,2-0.896,2-2S9.104,7,8,7S6,7.896,6,9S6.896,11,8,11z"/>
</svg>
