<?xml version="1.0" encoding="utf-8"?>
<!-- Generator: Adobe Illustrator 15.1.0, SVG Export Plug-In . SVG Version: 6.00 Build 0)  -->
<!DOCTYPE svg PUBLIC "-//W3C//DTD SVG 1.1//EN" "http://www.w3.org/Graphics/SVG/1.1/DTD/svg11.dtd">
<svg version="1.1" id="Layer_1" xmlns="http://www.w3.org/2000/svg" xmlns:xlink="http://www.w3.org/1999/xlink" x="0px" y="0px"
	 width="16px" height="16px" viewBox="0 0 16 16" enable-background="new 0 0 16 16" xml:space="preserve">
<g>
	<g>
		<path fill-rule="evenodd" clip-rule="evenodd" fill="#231F20" d="M15,3h-2c-0.553,0-1-0.448-1-1s-0.447-1-1-1H5
			C4.447,1,4,1.448,4,2S3.553,3,3,3H1C0.447,3,0,3.448,0,4v10c0,0.553,0.447,1,1,1h14c0.553,0,1-0.447,1-1V4C16,3.448,15.553,3,15,3
			z M8,13c-2.762,0-5-2.238-5-5c0-2.761,2.238-5,5-5s5,2.239,5,5C13,10.762,10.762,13,8,13z M8,5C6.343,5,5,6.343,5,8
			c0,1.656,1.343,3,3,3s3-1.344,3-3C11,6.343,9.657,5,8,5z"/>
	</g>
</g>
</svg>
