<?xml version="1.0" encoding="utf-8"?>
<!-- Generator: Adobe Illustrator 15.1.0, SVG Export Plug-In . SVG Version: 6.00 Build 0)  -->
<!DOCTYPE svg PUBLIC "-//W3C//DTD SVG 1.1//EN" "http://www.w3.org/Graphics/SVG/1.1/DTD/svg11.dtd">
<svg version="1.1" id="Layer_1" xmlns="http://www.w3.org/2000/svg" xmlns:xlink="http://www.w3.org/1999/xlink" x="0px" y="0px"
	 width="16px" height="16px" viewBox="0 0 16 16" enable-background="new 0 0 16 16" xml:space="preserve">
<path fill-rule="evenodd" clip-rule="evenodd" fill="#231F20" d="M15,16H1c-0.553,0-1-0.447-1-1V4c0-0.552,0.447-1,1-1h1V2h1v1h2V1
	c0-0.552,0.447-1,1-1h4c0.553,0,1,0.448,1,1v2h4c0.553,0,1,0.448,1,1v4v1v6C16,15.553,15.553,16,15,16z M9,2H7v1h2V2z M14,5h-4H6H2
	v3h3.778l0,0C6.328,7.391,7.115,7,8,7s1.672,0.391,2.222,1l0,0H14V5z M6,10c0,1.104,0.896,2,2,2s2-0.896,2-2S9.104,8,8,8
	S6,8.896,6,10z M14,9h-3.184l0,0C10.928,9.314,11,9.647,11,10c0,1.656-1.343,3-3,3s-3-1.344-3-3c0-0.353,0.072-0.686,0.184-1l0,0H2
	v5h12V9z M13,7h-2V6h2V7z M5,6h1v1H5V6z M3,6h1v1H3V6z"/>
</svg>
