<?xml version="1.0" encoding="utf-8"?>
<!-- Generator: Adobe Illustrator 15.1.0, SVG Export Plug-In . SVG Version: 6.00 Build 0)  -->
<!DOCTYPE svg PUBLIC "-//W3C//DTD SVG 1.1//EN" "http://www.w3.org/Graphics/SVG/1.1/DTD/svg11.dtd">
<svg version="1.1" id="Layer_1" xmlns="http://www.w3.org/2000/svg" xmlns:xlink="http://www.w3.org/1999/xlink" x="0px" y="0px"
	 width="16px" height="16px" viewBox="0 0 16 16" enable-background="new 0 0 16 16" xml:space="preserve">
<path fill-rule="evenodd" clip-rule="evenodd" fill="#231F20" d="M13,14L13,14h-1c0-1.104-0.896-2-2-2H6c-1.104,0-2,0.896-2,2H3l0,0
	c-1.657,0-3-1.344-3-3V5c0-1.657,1.343-3,3-3h10c1.656,0,3,1.343,3,3v6C16,12.656,14.656,14,13,14z M13,13h1v-1h-1V13z M2,13h1v-1H2
	V13z M14,5c0-0.552-0.447-1-1-1H3C2.448,4,2,4.448,2,5v5c0,0.553,0.448,1,1,1h10c0.553,0,1-0.447,1-1V5z M11.5,10
	C10.672,10,10,9.328,10,8.5S10.672,7,11.5,7S13,7.672,13,8.5S12.328,10,11.5,10z M3,5h10v1H3V5z M4.5,7C5.329,7,6,7.672,6,8.5
	S5.329,10,4.5,10S3,9.328,3,8.5S3.671,7,4.5,7z M9,9H7V8h2V9z M6.5,13h3c0.652,0,1.201,0.419,1.408,1H5.092
	C5.298,13.419,5.848,13,6.5,13z"/>
</svg>
