<?xml version="1.0" encoding="utf-8"?>
<!-- Generator: Adobe Illustrator 15.1.0, SVG Export Plug-In . SVG Version: 6.00 Build 0)  -->
<!DOCTYPE svg PUBLIC "-//W3C//DTD SVG 1.1//EN" "http://www.w3.org/Graphics/SVG/1.1/DTD/svg11.dtd">
<svg version="1.1" id="Layer_1" xmlns="http://www.w3.org/2000/svg" xmlns:xlink="http://www.w3.org/1999/xlink" x="0px" y="0px"
	 width="16px" height="16px" viewBox="0 0 16 16" enable-background="new 0 0 16 16" xml:space="preserve">
<path fill-rule="evenodd" clip-rule="evenodd" fill="#231F20" d="M14,16H2c-0.553,0-1-0.447-1-1V2c0-0.552,0.447-1,1-1h2v2H3v11h10
	V3h-1V1h2c0.553,0,1,0.448,1,1v13C15,15.553,14.553,16,14,16z M4,4h1c0,0.552,0.447,1,1,1h4c0.553,0,1-0.448,1-1h1v9H4V4z M10,4H6
	C5.447,4,5,3.552,5,3V1l0,0h2V0h2v1h2l0,0v2C11,3.552,10.553,4,10,4z M9,2H7v1h2V2z"/>
</svg>
