<?xml version="1.0" encoding="utf-8"?>
<!-- Generator: Adobe Illustrator 15.1.0, SVG Export Plug-In . SVG Version: 6.00 Build 0)  -->
<!DOCTYPE svg PUBLIC "-//W3C//DTD SVG 1.1//EN" "http://www.w3.org/Graphics/SVG/1.1/DTD/svg11.dtd">
<svg version="1.1" id="Layer_1" xmlns="http://www.w3.org/2000/svg" xmlns:xlink="http://www.w3.org/1999/xlink" x="0px" y="0px"
	 width="16px" height="16px" viewBox="0 0 16 16" enable-background="new 0 0 16 16" xml:space="preserve">
<g>
	<g>
		<path fill-rule="evenodd" clip-rule="evenodd" fill="#231F20" d="M14,1h-2v2h1v11H3V3h1V1H2C1.447,1,1,1.448,1,2v13
			c0,0.553,0.447,1,1,1h12c0.553,0,1-0.447,1-1V2C15,1.448,14.553,1,14,1z M6,4h4c0.553,0,1-0.448,1-1V1H9V0H7v1H5v2
			C5,3.552,5.447,4,6,4z M7,2h2v1H7V2z M4,13h8V4h-1c0,0.552-0.447,1-1,1H6C5.447,5,5,4.552,5,4H4V13z M5,6h6v1H5V6z M5,8h4v1H5V8z
			 M5,10h5v1H5V10z"/>
	</g>
</g>
</svg>
