<?xml version="1.0" encoding="utf-8"?>
<!-- Generator: Adobe Illustrator 15.1.0, SVG Export Plug-In . SVG Version: 6.00 Build 0)  -->
<!DOCTYPE svg PUBLIC "-//W3C//DTD SVG 1.1//EN" "http://www.w3.org/Graphics/SVG/1.1/DTD/svg11.dtd">
<svg version="1.1" id="Layer_1" xmlns="http://www.w3.org/2000/svg" xmlns:xlink="http://www.w3.org/1999/xlink" x="0px" y="0px"
	 width="16px" height="16px" viewBox="0 0 16 16" enable-background="new 0 0 16 16" xml:space="preserve">
<path fill-rule="evenodd" clip-rule="evenodd" fill="#231F20" d="M11.5,16C9.015,16,7,13.985,7,11.5S9.015,7,11.5,7
	S16,9.015,16,11.5S13.985,16,11.5,16z M11.5,9C10.119,9,9,10.119,9,11.5s1.119,2.5,2.5,2.5s2.5-1.119,2.5-2.5S12.881,9,11.5,9z
	 M10,11h3v1h-3V11z M11.5,5C7.916,5,5,7.916,5,11.5c0,0.169,0.013,0.334,0.025,0.5H4c-2.209,0-4-1.791-4-4V7c0-2.209,1.791-4,4-4
	c0.38,0,0.741,0.07,1.089,0.169C5.472,1.359,7.076,0,9,0c2.209,0,4,1.791,4,4c0,0.353-0.061,0.689-0.146,1.015L11.5,5z"/>
</svg>
