<?xml version="1.0" encoding="utf-8"?>
<!-- Generator: Adobe Illustrator 15.1.0, SVG Export Plug-In . SVG Version: 6.00 Build 0)  -->
<!DOCTYPE svg PUBLIC "-//W3C//DTD SVG 1.1//EN" "http://www.w3.org/Graphics/SVG/1.1/DTD/svg11.dtd">
<svg version="1.1" id="Layer_1" xmlns="http://www.w3.org/2000/svg" xmlns:xlink="http://www.w3.org/1999/xlink" x="0px" y="0px"
	 width="16px" height="16px" viewBox="0 0 16 16" enable-background="new 0 0 16 16" xml:space="preserve">
<path fill-rule="evenodd" clip-rule="evenodd" fill="#231F20" d="M0,9c0-2.209,1.791-4,4-4c0.38,0,0.741,0.07,1.089,0.169
	C5.472,3.359,7.076,2,9,2c2.209,0,4,1.791,4,4c0,0.353-0.061,0.689-0.146,1.015C12.903,7.012,12.95,7,13,7c1.657,0,3,1.344,3,3l0,0
	v1c0,1.657-1.343,3-3,3H4c-2.209,0-4-1.791-4-4l0,0V9z"/>
</svg>
