<?xml version="1.0" encoding="utf-8"?>
<!-- Generator: Adobe Illustrator 15.1.0, SVG Export Plug-In . SVG Version: 6.00 Build 0)  -->
<!DOCTYPE svg PUBLIC "-//W3C//DTD SVG 1.1//EN" "http://www.w3.org/Graphics/SVG/1.1/DTD/svg11.dtd">
<svg version="1.1" id="Layer_1" xmlns="http://www.w3.org/2000/svg" xmlns:xlink="http://www.w3.org/1999/xlink" x="0px" y="0px"
	 width="16px" height="16px" viewBox="0 0 16 16" enable-background="new 0 0 16 16" xml:space="preserve">
<path fill-rule="evenodd" clip-rule="evenodd" fill="#231F20" d="M13,12h-0.18c-0.018-0.049-0.029-0.1-0.049-0.147
	C12.439,11.049,12,10.448,11,10.171V9c0-1.654-1.346-3-3-3S5,7.346,5,9v1.169c-1,0.277-1.439,0.878-1.771,1.679
	c-0.01,0.023-0.015,0.049-0.023,0.072C1.377,11.552,0,9.937,0,8V7c0-2.209,1.791-4,4-4c0.38,0,0.741,0.07,1.089,0.169
	C5.472,1.359,7.076,0,9,0c2.209,0,4,1.791,4,4c0,0.353-0.061,0.689-0.146,1.015C12.903,5.012,12.95,5,13,5c1.657,0,3,1.344,3,3v1
	C16,10.657,14.657,12,13,12z M6,12h1.002V9c0-0.553,0.447-1,1-1c0.554,0,1.001,0.447,1.001,1v3h0.998
	c0.404,0,0.77,0.244,0.924,0.617c0.039,0.094,0.062,0.189,0.072,0.287c0.027,0.293-0.074,0.588-0.289,0.803l-2.001,2
	C8.512,15.902,8.256,16,8,16s-0.512-0.098-0.707-0.293l-2-2c-0.213-0.215-0.314-0.51-0.287-0.803
	c0.008-0.098,0.031-0.193,0.07-0.287C5.231,12.244,5.596,12,6,12z"/>
</svg>
