<?xml version="1.0" encoding="utf-8"?>
<!-- Generator: Adobe Illustrator 15.1.0, SVG Export Plug-In . SVG Version: 6.00 Build 0)  -->
<!DOCTYPE svg PUBLIC "-//W3C//DTD SVG 1.1//EN" "http://www.w3.org/Graphics/SVG/1.1/DTD/svg11.dtd">
<svg version="1.1" id="Layer_1" xmlns="http://www.w3.org/2000/svg" xmlns:xlink="http://www.w3.org/1999/xlink" x="0px" y="0px"
	 width="16px" height="16px" viewBox="0 0 16 16" enable-background="new 0 0 16 16" xml:space="preserve">
<g>
	<g>
		<path fill-rule="evenodd" clip-rule="evenodd" fill="#231F20" d="M8.709,8.293C8.514,8.098,8.258,8,8.002,8
			S7.49,8.098,7.295,8.293l-2,2c-0.215,0.215-0.316,0.51-0.289,0.803c0.01,0.098,0.033,0.193,0.072,0.287
			C5.232,11.756,5.598,12,6.002,12H7v3c0,0.553,0.447,1,1,1s1-0.447,1-1v-3h1.002c0.404,0,0.77-0.244,0.924-0.617
			c0.039-0.094,0.062-0.189,0.07-0.287c0.027-0.293-0.074-0.588-0.287-0.803L8.709,8.293z M13,5c-0.05,0-0.097,0.012-0.146,0.015
			C12.939,4.689,13,4.353,13,4c0-2.209-1.791-4-4-4C7.076,0,5.472,1.359,5.089,3.169C4.74,3.07,4.381,3,4,3C1.791,3,0,4.791,0,7v1
			c0,1.917,1.35,3.515,3.149,3.905c-0.062-0.198-0.112-0.401-0.134-0.61c-0.084-0.906,0.231-1.782,0.865-2.416l2-2
			C6.447,6.312,7.201,6,8.002,6s1.555,0.312,2.121,0.879l2,2c0.635,0.641,0.947,1.514,0.864,2.402
			c-0.019,0.232-0.08,0.478-0.166,0.719H13c1.657,0,3-1.343,3-3V8C16,6.344,14.657,5,13,5z"/>
	</g>
</g>
</svg>
