<?xml version="1.0" encoding="utf-8"?>
<!-- Generator: Adobe Illustrator 15.1.0, SVG Export Plug-In . SVG Version: 6.00 Build 0)  -->
<!DOCTYPE svg PUBLIC "-//W3C//DTD SVG 1.1//EN" "http://www.w3.org/Graphics/SVG/1.1/DTD/svg11.dtd">
<svg version="1.1" id="Layer_1" xmlns="http://www.w3.org/2000/svg" xmlns:xlink="http://www.w3.org/1999/xlink" x="0px" y="0px"
	 width="16px" height="16px" viewBox="0 0 16 16" enable-background="new 0 0 16 16" xml:space="preserve">
<g>
	<g>
		<path fill-rule="evenodd" clip-rule="evenodd" fill="#231F20" d="M13,7c-0.05,0-0.097,0.012-0.146,0.015
			C12.939,6.689,13,6.353,13,6c0-2.209-1.791-4-4-4C7.076,2,5.472,3.359,5.089,5.169C4.74,5.07,4.381,5,4,5C1.791,5,0,6.791,0,9v1
			c0,2.209,1.791,4,4,4h9c1.657,0,3-1.343,3-3v-1C16,8.344,14.657,7,13,7z M8.5,12C7.119,12,6,10.881,6,9.5S7.119,7,8.5,7
			S11,8.119,11,9.5S9.881,12,8.5,12z M7,10h3V9H7V10z"/>
	</g>
</g>
</svg>
