<?xml version="1.0" encoding="utf-8"?>
<!-- Generator: Adobe Illustrator 15.1.0, SVG Export Plug-In . SVG Version: 6.00 Build 0)  -->
<!DOCTYPE svg PUBLIC "-//W3C//DTD SVG 1.1//EN" "http://www.w3.org/Graphics/SVG/1.1/DTD/svg11.dtd">
<svg version="1.1" id="Layer_1" xmlns="http://www.w3.org/2000/svg" xmlns:xlink="http://www.w3.org/1999/xlink" x="0px" y="0px"
	 width="16px" height="16px" viewBox="0 0 16 16" enable-background="new 0 0 16 16" xml:space="preserve">
<path fill-rule="evenodd" clip-rule="evenodd" fill="#231F20" d="M11.5,16C9.015,16,7,13.985,7,11.5S9.015,7,11.5,7
	S16,9.015,16,11.5S13.985,16,11.5,16z M11.5,9C10.119,9,9,10.119,9,11.5s1.119,2.5,2.5,2.5s2.5-1.119,2.5-2.5S12.881,9,11.5,9z
	 M12,13h-1v-1h-1v-1h1v-1h1v1h1v1h-1V13z"/>
<path fill-rule="evenodd" clip-rule="evenodd" fill="#231F20" d="M12.854,5.015C12.939,4.689,13,4.353,13,4c0-2.209-1.791-4-4-4
	C7.076,0,5.472,1.359,5.089,3.169C4.741,3.07,4.38,3,4,3C1.791,3,0,4.791,0,7v1c0,2.209,1.791,4,4,4h1.025
	C5.013,11.834,5,11.669,5,11.5C5,7.916,7.916,5,11.5,5L12.854,5.015z"/>
</svg>
