<?xml version="1.0" encoding="utf-8"?>
<!-- Generator: Adobe Illustrator 15.1.0, SVG Export Plug-In . SVG Version: 6.00 Build 0)  -->
<!DOCTYPE svg PUBLIC "-//W3C//DTD SVG 1.1//EN" "http://www.w3.org/Graphics/SVG/1.1/DTD/svg11.dtd">
<svg version="1.1" id="Layer_1" xmlns="http://www.w3.org/2000/svg" xmlns:xlink="http://www.w3.org/1999/xlink" x="0px" y="0px"
	 width="16px" height="16px" viewBox="0 0 16 16" enable-background="new 0 0 16 16" xml:space="preserve">
<path fill-rule="evenodd" clip-rule="evenodd" fill="#231F20" d="M13,14H4c-2.209,0-4-1.791-4-4V9c0-2.209,1.791-4,4-4
	c0.38,0,0.741,0.07,1.089,0.169C5.472,3.359,7.076,2,9,2c2.209,0,4,1.791,4,4c0,0.353-0.061,0.689-0.146,1.015
	C12.903,7.012,12.95,7,13,7c1.657,0,3,1.344,3,3v1C16,12.657,14.657,14,13,14z M8.5,7C7.119,7,6,8.119,6,9.5S7.119,12,8.5,12
	S11,10.881,11,9.5S9.881,7,8.5,7z M9,11H8v-1H7V9h1V8h1v1h1v1H9V11z"/>
</svg>
