<?xml version="1.0" encoding="utf-8"?>
<!-- Generator: Adobe Illustrator 15.1.0, SVG Export Plug-In . SVG Version: 6.00 Build 0)  -->
<!DOCTYPE svg PUBLIC "-//W3C//DTD SVG 1.1//EN" "http://www.w3.org/Graphics/SVG/1.1/DTD/svg11.dtd">
<svg version="1.1" id="Layer_1" xmlns="http://www.w3.org/2000/svg" xmlns:xlink="http://www.w3.org/1999/xlink" x="0px" y="0px"
	 width="16px" height="16px" viewBox="0 0 16 16" enable-background="new 0 0 16 16" xml:space="preserve">
<path fill-rule="evenodd" clip-rule="evenodd" fill="#231F20" d="M13,6L13,6L13,6h-1v4h1l0,0l0,0c1.656,0,3,1.344,3,3s-1.344,3-3,3
	s-3-1.344-3-3l0,0l0,0v-1H6v1c0,1.656-1.343,3-3,3s-3-1.344-3-3s1.343-3,3-3l0,0l0,0h1V6H3C1.343,6,0,4.657,0,3c0-1.657,1.343-3,3-3
	s3,1.343,3,3c0,0.353-0.072,0.686-0.184,1H6h4h0.184C10.072,3.686,10,3.353,10,3c0-1.657,1.344-3,3-3s3,1.343,3,3
	C16,4.657,14.656,6,13,6z M13,14c0.553,0,1-0.447,1-1s-0.447-1-1-1s-1,0.447-1,1S12.447,14,13,14z M3,12c-0.552,0-1,0.447-1,1
	s0.448,1,1,1s1-0.447,1-1S3.552,12,3,12z M3,2C2.448,2,2,2.448,2,3s0.448,1,1,1s1-0.448,1-1S3.552,2,3,2z M10,6H6v4h4V6z M13,2
	c-0.553,0-1,0.448-1,1s0.447,1,1,1s1-0.448,1-1S13.553,2,13,2z"/>
</svg>
