<?xml version="1.0" encoding="utf-8"?>
<!-- Generator: Adobe Illustrator 15.1.0, SVG Export Plug-In . SVG Version: 6.00 Build 0)  -->
<!DOCTYPE svg PUBLIC "-//W3C//DTD SVG 1.1//EN" "http://www.w3.org/Graphics/SVG/1.1/DTD/svg11.dtd">
<svg version="1.1" id="Layer_1" xmlns="http://www.w3.org/2000/svg" xmlns:xlink="http://www.w3.org/1999/xlink" x="0px" y="0px"
	 width="16px" height="16px" viewBox="0 0 16 16" enable-background="new 0 0 16 16" xml:space="preserve">
<path fill-rule="evenodd" clip-rule="evenodd" fill="#231F20" d="M15.414,3.415l-1.489,1.489l-2.872-2.784l1.533-1.533
	c0.78-0.781,2.047-0.781,2.828,0C16.195,1.367,16.195,2.633,15.414,3.415z M13.053,5.775l-6.155,6.14L3,13l1.069-3.913l6.121-6.105
	L13.053,5.775z"/>
<path fill-rule="evenodd" clip-rule="evenodd" fill="#231F20" d="M15.414,3.415l-1.489,1.489l-2.872-2.784l1.533-1.533
	c0.78-0.781,2.047-0.781,2.828,0C16.195,1.367,16.195,2.633,15.414,3.415z M13.053,5.775l-6.155,6.14L3,13l1.068-3.913l6.121-6.105
	L13.053,5.775z"/>
<path fill-rule="evenodd" clip-rule="evenodd" fill="#231F20" d="M14,7.656V13c0,0.553-0.447,1-1,1H3c-0.552,0-1-0.447-1-1V3
	c0-0.552,0.448-1,1-1h5.338l2.004-2H3C1.343,0,0,1.343,0,3v10c0,1.657,1.343,3,3,3h10c1.657,0,3-1.343,3-3V5.657L14,7.656z"/>
</svg>
