<?xml version="1.0" encoding="utf-8"?>
<!-- Generator: Adobe Illustrator 15.1.0, SVG Export Plug-In . SVG Version: 6.00 Build 0)  -->
<!DOCTYPE svg PUBLIC "-//W3C//DTD SVG 1.1//EN" "http://www.w3.org/Graphics/SVG/1.1/DTD/svg11.dtd">
<svg version="1.1" id="Layer_1" xmlns="http://www.w3.org/2000/svg" xmlns:xlink="http://www.w3.org/1999/xlink" x="0px" y="0px"
	 width="16px" height="16px" viewBox="0 0 16 16" enable-background="new 0 0 16 16" xml:space="preserve">
<path fill-rule="evenodd" clip-rule="evenodd" fill="#231F20" d="M9,11c-0.849,0-1.633-0.269-2.28-0.72L4,13H3v-1l2.72-2.72l0,0
	L12,3L5.162,8.097C5.062,7.747,5,7.382,5,7c0-2.209,7.791-7,10-7c1,0,1,0,1,1C16,3.209,11.209,11,9,11z"/>
<path fill-rule="evenodd" clip-rule="evenodd" fill="#231F20" d="M14,9.347V13c0,0.553-0.447,1-1,1H3c-0.553,0-1-0.447-1-1V3
	c0-0.553,0.447-1,1-1h3.653C7.61,1.266,8.659,0.586,9.705,0H3C1.343,0,0,1.343,0,3v10c0,1.657,1.343,3,3,3h10c1.657,0,3-1.343,3-3
	V6.295C15.414,7.341,14.734,8.39,14,9.347z"/>
</svg>
