<?xml version="1.0" encoding="utf-8"?>
<!-- Generator: Adobe Illustrator 15.1.0, SVG Export Plug-In . SVG Version: 6.00 Build 0)  -->
<!DOCTYPE svg PUBLIC "-//W3C//DTD SVG 1.1//EN" "http://www.w3.org/Graphics/SVG/1.1/DTD/svg11.dtd">
<svg version="1.1" id="Layer_1" xmlns="http://www.w3.org/2000/svg" xmlns:xlink="http://www.w3.org/1999/xlink" x="0px" y="0px"
	 width="16px" height="16px" viewBox="0 0 16 16" enable-background="new 0 0 16 16" xml:space="preserve">
<path fill-rule="evenodd" clip-rule="evenodd" fill="#231F20" d="M12,0L5,7l-2,6l6-2l7-7L12,0z M5,11l1-3l2,2L5,11z M9,9L7,7l3-3
	l2,2L9,9z"/>
<path fill-rule="evenodd" clip-rule="evenodd" fill="#231F20" d="M14,8.828V13c0,0.553-0.447,1-1,1H3c-0.553,0-1-0.447-1-1V3
	c0-0.553,0.447-1,1-1h4.172l2-2H3C1.343,0,0,1.343,0,3v10c0,1.657,1.343,3,3,3h10c1.657,0,3-1.343,3-3V6.828L14,8.828z"/>
</svg>
