<?xml version="1.0" encoding="utf-8"?>
<!-- Generator: Adobe Illustrator 15.1.0, SVG Export Plug-In . SVG Version: 6.00 Build 0)  -->
<!DOCTYPE svg PUBLIC "-//W3C//DTD SVG 1.1//EN" "http://www.w3.org/Graphics/SVG/1.1/DTD/svg11.dtd">
<svg version="1.1" id="Layer_1" xmlns="http://www.w3.org/2000/svg" xmlns:xlink="http://www.w3.org/1999/xlink" x="0px" y="0px"
	 width="16px" height="16px" viewBox="0 0 16 16" enable-background="new 0 0 16 16" xml:space="preserve">
<path fill-rule="evenodd" clip-rule="evenodd" fill="#231F20" d="M13,6c-0.376,0-0.729-0.084-1.059-0.212
	C11.804,6.474,11.227,7,10.5,7c-0.253,0-0.479-0.078-0.688-0.188C9.922,7.021,10,7.248,10,7.5C10,8.328,9.328,9,8.5,9
	C8.247,9,8.021,8.922,7.812,8.812C7.922,9.021,8,9.248,8,9.5C8,10.328,7.328,11,6.5,11S5,10.328,5,9.5
	c0-0.015,0.008-0.026,0.008-0.041C4.102,10.584,4,12,4,12v0.5C4,12.776,3.776,13,3.5,13S3,12.776,3,12.5V12C3,12,4,0,13,0l0,0
	c1.657,0,3,1.343,3,3S14.657,6,13,6z"/>
<path fill-rule="evenodd" clip-rule="evenodd" fill="#231F20" d="M14,7.899V13c0,0.553-0.447,1-1,1H3c-0.552,0-1-0.447-1-1V3
	c0-0.552,0.448-1,1-1h1.765c0.604-0.747,1.301-1.418,2.082-2H3C1.343,0,0,1.343,0,3v10c0,1.657,1.343,3,3,3h10c1.657,0,3-1.343,3-3
	V6.975C15.416,7.417,14.743,7.748,14,7.899z"/>
</svg>
