<?xml version="1.0" encoding="utf-8"?>
<!-- Generator: Adobe Illustrator 15.1.0, SVG Export Plug-In . SVG Version: 6.00 Build 0)  -->
<!DOCTYPE svg PUBLIC "-//W3C//DTD SVG 1.1//EN" "http://www.w3.org/Graphics/SVG/1.1/DTD/svg11.dtd">
<svg version="1.1" id="Layer_1" xmlns="http://www.w3.org/2000/svg" xmlns:xlink="http://www.w3.org/1999/xlink" x="0px" y="0px"
	 width="16px" height="16px" viewBox="0 0 16 16" enable-background="new 0 0 16 16" xml:space="preserve">
<g>
	<path fill-rule="evenodd" clip-rule="evenodd" fill="#231F20" d="M6,9H3C2.596,9,2.23,9.244,2.076,9.617
		c-0.154,0.374-0.069,0.804,0.217,1.09L3.086,11.5l-2.793,2.793c-0.391,0.391-0.391,1.023,0,1.414s1.023,0.391,1.414,0L4.5,12.914
		l0.793,0.793C5.484,13.898,5.74,14,6,14c0.129,0,0.259-0.025,0.383-0.076C6.756,13.77,7,13.404,7,13v-3C7,9.447,6.553,9,6,9z"/>
	<path fill-rule="evenodd" clip-rule="evenodd" fill="#231F20" d="M10,7h3c0.404,0,0.77-0.244,0.924-0.617
		c0.154-0.374,0.069-0.804-0.217-1.09L12.914,4.5l2.793-2.793c0.391-0.391,0.391-1.023,0-1.414s-1.023-0.391-1.414,0L11.5,3.086
		l-0.793-0.793C10.516,2.102,10.26,2,10,2C9.871,2,9.741,2.025,9.617,2.076C9.244,2.23,9,2.596,9,3v3C9,6.553,9.447,7,10,7z"/>
	<path fill-rule="evenodd" clip-rule="evenodd" fill="#231F20" d="M6.383,2.076C6.259,2.025,6.129,2,6,2
		C5.74,2,5.484,2.102,5.293,2.293L4.5,3.086L1.707,0.293c-0.391-0.391-1.023-0.391-1.414,0s-0.391,1.023,0,1.414L3.086,4.5
		L2.293,5.293c-0.286,0.286-0.371,0.716-0.217,1.09C2.23,6.756,2.596,7,3,7h3c0.553,0,1-0.447,1-1V3C7,2.596,6.756,2.23,6.383,2.076
		z"/>
	<path fill-rule="evenodd" clip-rule="evenodd" fill="#231F20" d="M12.914,11.5l0.793-0.793c0.286-0.286,0.371-0.716,0.217-1.09
		C13.77,9.244,13.404,9,13,9h-3c-0.553,0-1,0.447-1,1v3c0,0.404,0.244,0.77,0.617,0.924C9.741,13.975,9.871,14,10,14
		c0.26,0,0.516-0.102,0.707-0.293l0.793-0.793l2.793,2.793c0.391,0.391,1.023,0.391,1.414,0s0.391-1.023,0-1.414L12.914,11.5z"/>
</g>
</svg>
