<?xml version="1.0" encoding="utf-8"?>
<!-- Generator: Adobe Illustrator 15.1.0, SVG Export Plug-In . SVG Version: 6.00 Build 0)  -->
<!DOCTYPE svg PUBLIC "-//W3C//DTD SVG 1.1//EN" "http://www.w3.org/Graphics/SVG/1.1/DTD/svg11.dtd">
<svg version="1.1" id="Layer_1" xmlns="http://www.w3.org/2000/svg" xmlns:xlink="http://www.w3.org/1999/xlink" x="0px" y="0px"
	 width="16px" height="16px" viewBox="0 0 16 16" enable-background="new 0 0 16 16" xml:space="preserve">
<path fill-rule="evenodd" clip-rule="evenodd" fill="#231F20" d="M15,0c-0.553,0-1,0.448-1,1v3c0,0.552-0.447,1-1,1h-3
	C9.229,5,8.531,5.3,8,5.779C7.468,5.3,6.772,5,6,5H3C2.448,5,2,4.552,2,4V1c0-0.552-0.448-1-1-1S0,0.448,0,1v3c0,1.657,1.343,3,3,3
	h3c0.552,0,1,0.448,1,1v4H6c-0.404,0-0.77,0.244-0.924,0.617c-0.154,0.374-0.068,0.804,0.217,1.09l2,2C7.488,15.902,7.744,16,8,16
	s0.512-0.098,0.707-0.293l2-2c0.286-0.286,0.371-0.716,0.217-1.09C10.77,12.244,10.404,12,10,12H9V8c0-0.552,0.447-1,1-1h3
	c1.657,0,3-1.343,3-3V1C16,0.448,15.553,0,15,0z"/>
</svg>
