<?xml version="1.0" encoding="utf-8"?>
<!-- Generator: Adobe Illustrator 15.1.0, SVG Export Plug-In . SVG Version: 6.00 Build 0)  -->
<!DOCTYPE svg PUBLIC "-//W3C//DTD SVG 1.1//EN" "http://www.w3.org/Graphics/SVG/1.1/DTD/svg11.dtd">
<svg version="1.1" id="Layer_1" xmlns="http://www.w3.org/2000/svg" xmlns:xlink="http://www.w3.org/1999/xlink" x="0px" y="0px"
	 width="16px" height="16px" viewBox="0 0 16 16" enable-background="new 0 0 16 16" xml:space="preserve">
<path fill-rule="evenodd" clip-rule="evenodd" fill="#231F20" d="M15.711,14.266L14,12.555V3.477l1.723-1.722
	C15.896,2.135,16,2.554,16,3v10C16,13.454,15.892,13.88,15.711,14.266z M3.352,2L1.674,0.322C2.075,0.123,2.521,0,3,0h10
	c0.479,0,0.925,0.123,1.326,0.322L12.648,2H3.352z M2,12.555l-1.711,1.711C0.108,13.88,0,13.454,0,13V3
	c0-0.446,0.104-0.865,0.278-1.245L2,3.477V12.555z M12,12H4v-2h8V12z M4,4h8v2H4V4z M12,9H4V7h8V9z M12.617,14l1.689,1.689
	C13.91,15.883,13.471,16,13,16H3c-0.47,0-0.91-0.117-1.306-0.311L3.383,14H12.617z"/>
</svg>
