<?xml version="1.0" encoding="utf-8"?>
<!-- Generator: Adobe Illustrator 15.1.0, SVG Export Plug-In . SVG Version: 6.00 Build 0)  -->
<!DOCTYPE svg PUBLIC "-//W3C//DTD SVG 1.1//EN" "http://www.w3.org/Graphics/SVG/1.1/DTD/svg11.dtd">
<svg version="1.1" id="Layer_1" xmlns="http://www.w3.org/2000/svg" xmlns:xlink="http://www.w3.org/1999/xlink" x="0px" y="0px"
	 width="16px" height="16px" viewBox="0 0 16 16" enable-background="new 0 0 16 16" xml:space="preserve">
<path fill-rule="evenodd" clip-rule="evenodd" fill="#231F20" d="M15,14H1c-0.552,0-1-0.447-1-1V3c0-0.553,0.448-1,1-1h14
	c0.553,0,1,0.447,1,1v10C16,13.553,15.553,14,15,14z M15,3H1v1h14V3z M15,6H1v7h14V6z M5,10H2V7h3V10z M4,12H2v-1h2V12z M7,12H5v-1
	h2V12z M10,12H8v-1h2V12z M12,12h-1v-1h1V12z M14,12h-1v-1h1V12z"/>
</svg>
