<?xml version="1.0" encoding="utf-8"?>
<!-- Generator: Adobe Illustrator 15.1.0, SVG Export Plug-In . SVG Version: 6.00 Build 0)  -->
<!DOCTYPE svg PUBLIC "-//W3C//DTD SVG 1.1//EN" "http://www.w3.org/Graphics/SVG/1.1/DTD/svg11.dtd">
<svg version="1.1" id="Layer_1" xmlns="http://www.w3.org/2000/svg" xmlns:xlink="http://www.w3.org/1999/xlink" x="0px" y="0px"
	 width="16px" height="16px" viewBox="0 0 16 16" enable-background="new 0 0 16 16" xml:space="preserve">
<path fill-rule="evenodd" clip-rule="evenodd" fill="#231F20" d="M15,14H1c-0.552,0-1-0.447-1-1V4V3c0-0.553,0.448-1,1-1h14
	c0.553,0,1,0.447,1,1v10C16,13.553,15.553,14,15,14z M15,3H1v1h14V3z M15,6H1v7h14V6z M5,8H2V7h3V8z M3,10H2V9h1V10z M5,12H2v-1h3
	V12z M9.5,7c0.355,0,0.693,0.077,1,0.211C10.807,7.077,11.145,7,11.5,7C12.881,7,14,8.119,14,9.5S12.881,12,11.5,12
	c-0.355,0-0.693-0.077-1-0.211C10.193,11.923,9.855,12,9.5,12C8.119,12,7,10.881,7,9.5S8.119,7,9.5,7z M11.49,10.998
	c0.004,0,0.006,0.002,0.01,0.002c0.828,0,1.5-0.672,1.5-1.5S12.328,8,11.5,8c-0.004,0-0.006,0.002-0.01,0.002
	C11.806,8.421,12,8.936,12,9.5S11.806,10.58,11.49,10.998z M10.5,10.602C10.803,10.327,11,9.94,11,9.5s-0.197-0.827-0.5-1.102
	C10.197,8.673,10,9.06,10,9.5S10.197,10.327,10.5,10.602z M9.5,11c0.004,0,0.006-0.002,0.01-0.002C9.194,10.58,9,10.064,9,9.5
	s0.194-1.079,0.51-1.498C9.506,8.002,9.504,8,9.5,8C8.671,8,8,8.672,8,9.5S8.671,11,9.5,11z"/>
</svg>
