<?xml version="1.0" encoding="utf-8"?>
<!-- Generator: Adobe Illustrator 15.1.0, SVG Export Plug-In . SVG Version: 6.00 Build 0)  -->
<!DOCTYPE svg PUBLIC "-//W3C//DTD SVG 1.1//EN" "http://www.w3.org/Graphics/SVG/1.1/DTD/svg11.dtd">
<svg version="1.1" id="Layer_1" xmlns="http://www.w3.org/2000/svg" xmlns:xlink="http://www.w3.org/1999/xlink" x="0px" y="0px"
	 width="16px" height="16px" viewBox="0 0 16 16" enable-background="new 0 0 16 16" xml:space="preserve">
<g>
	<g>
		<path fill-rule="evenodd" clip-rule="evenodd" fill="#231F20" d="M15,2H1C0.448,2,0,2.448,0,3v10c0,0.553,0.448,1,1,1h14
			c0.553,0,1-0.447,1-1V3C16,2.448,15.553,2,15,2z M10,7h2v2h-2V7z M7,7h2v2H7V7z M10,10v1H9v-1H10z M7,10h1v1H7V10z M1,4
			c0-0.552,0.448-1,1-1h2c0.552,0,1,0.448,1,1v1c0,0.553-0.448,1-1,1H2C1.448,6,1,5.553,1,5V4z M6,7v2H4V7H6z M3,13H1v-1h2V13z M3,9
			H1V7h2V9z M11,13H4v-1h7V13z M13,11h-1v-1h1V11z M15,11h-1v-1h1V11z M15,9h-2V7h2V9z"/>
	</g>
</g>
</svg>
