<?xml version="1.0" encoding="utf-8"?>
<!-- Generator: Adobe Illustrator 15.1.0, SVG Export Plug-In . SVG Version: 6.00 Build 0)  -->
<!DOCTYPE svg PUBLIC "-//W3C//DTD SVG 1.1//EN" "http://www.w3.org/Graphics/SVG/1.1/DTD/svg11.dtd">
<svg version="1.1" id="Layer_1" xmlns="http://www.w3.org/2000/svg" xmlns:xlink="http://www.w3.org/1999/xlink" x="0px" y="0px"
	 width="16px" height="16px" viewBox="0 0 16 16" enable-background="new 0 0 16 16" xml:space="preserve">
<path fill-rule="evenodd" clip-rule="evenodd" fill="#231F20" d="M15,14H1c-0.552,0-1-0.447-1-1V5h16v8C16,13.553,15.553,14,15,14z
	 M8.757,7.351C8.386,7.133,7.96,7,7.5,7C6.119,7,5,8.119,5,9.5S6.119,12,7.5,12c0.46,0,0.886-0.133,1.257-0.351
	C8.29,11.055,8,10.314,8,9.5S8.29,7.945,8.757,7.351z M11.5,7C10.119,7,9,8.119,9,9.5s1.119,2.5,2.5,2.5S14,10.881,14,9.5
	S12.881,7,11.5,7z M0,3c0-0.553,0.448-1,1-1h14c0.553,0,1,0.447,1,1v1H0V3z"/>
</svg>
