<?xml version="1.0" encoding="utf-8"?>
<!-- Generator: Adobe Illustrator 15.1.0, SVG Export Plug-In . SVG Version: 6.00 Build 0)  -->
<!DOCTYPE svg PUBLIC "-//W3C//DTD SVG 1.1//EN" "http://www.w3.org/Graphics/SVG/1.1/DTD/svg11.dtd">
<svg version="1.1" id="Layer_1" xmlns="http://www.w3.org/2000/svg" xmlns:xlink="http://www.w3.org/1999/xlink" x="0px" y="0px"
	 width="16px" height="16px" viewBox="0 0 16 16" enable-background="new 0 0 16 16" xml:space="preserve">
<path fill-rule="evenodd" clip-rule="evenodd" fill="#231F20" d="M14,16v-1h1v-1h1v2H14z M15,1h-1V0h2v2h-1V1z M14,14H2V2h12V14z
	 M12,4H4v8h8V4z M6,5c0.553,0,1,0.447,1,1S6.553,7,6,7S5,6.553,5,6S5.447,5,6,5z M6.331,11H5V9.503
	C5.448,10.041,5.935,10.836,6.331,11z M11,7.344V11H6.606C7.957,10.674,9.609,5.742,11,7.344z M1,2H0V0h2v1H1V2z M1,15h1v1H0v-2h1
	V15z"/>
</svg>
