<?xml version="1.0" encoding="utf-8"?>
<!-- Generator: Adobe Illustrator 15.1.0, SVG Export Plug-In . SVG Version: 6.00 Build 0)  -->
<!DOCTYPE svg PUBLIC "-//W3C//DTD SVG 1.1//EN" "http://www.w3.org/Graphics/SVG/1.1/DTD/svg11.dtd">
<svg version="1.1" id="Layer_1" xmlns="http://www.w3.org/2000/svg" xmlns:xlink="http://www.w3.org/1999/xlink" x="0px" y="0px"
	 width="16px" height="16px" viewBox="0 0 16 16" enable-background="new 0 0 16 16" xml:space="preserve">
<path fill-rule="evenodd" clip-rule="evenodd" fill="#231F20" d="M13,10L13,10c-0.553,0-1,0.447-1,1v2c0,1.656-1.344,3-3,3v-2
	c0.553,0,1-0.447,1-1v-2c0-1.656,1.344-3,3-3c-1.656,0-3-1.343-3-3V3l0,0c0-0.552-0.447-1-1-1V0c1.656,0,3,1.343,3,3v2
	c0,0.552,0.447,1,1,1c1.104,0,2,0.896,2,2S14.104,10,13,10z M4,13v-2c0-0.553-0.448-1-1-1l0,0c-1.104,0-2-0.896-2-2s0.896-2,2-2
	c0.552,0,1-0.448,1-1V3c0-1.657,1.343-3,3-3v2C6.448,2,6,2.448,6,3l0,0v2c0,1.657-1.343,3-3,3c1.657,0,3,1.344,3,3v2
	c0,0.553,0.448,1,1,1v2C5.343,16,4,14.656,4,13z"/>
</svg>
