<?xml version="1.0" encoding="utf-8"?>
<!-- Generator: Adobe Illustrator 15.1.0, SVG Export Plug-In . SVG Version: 6.00 Build 0)  -->
<!DOCTYPE svg PUBLIC "-//W3C//DTD SVG 1.1//EN" "http://www.w3.org/Graphics/SVG/1.1/DTD/svg11.dtd">
<svg version="1.1" id="Layer_1" xmlns="http://www.w3.org/2000/svg" xmlns:xlink="http://www.w3.org/1999/xlink" x="0px" y="0px"
	 width="16px" height="16px" viewBox="0 0 16 16" enable-background="new 0 0 16 16" xml:space="preserve">
<path fill-rule="evenodd" clip-rule="evenodd" fill="#231F20" d="M8,16c-3.313,0-6-1.343-6-3l0,0v-1.688C2,12.97,4.687,14,8,14
	s6-1.03,6-2.688V13l0,0C14,14.657,11.313,16,8,16z M8,13c-3.313,0-6-1.343-6-3V8.312C2,9.97,4.687,11,8,11s6-1.03,6-2.688V10
	C14,11.657,11.313,13,8,13z M8,10c-3.313,0-6-1.343-6-3V5.312C2,6.97,4.687,8,8,8s6-1.03,6-2.688V7C14,8.657,11.313,10,8,10z M8,7
	C4.687,7,2,5.657,2,4V3c0-1.657,2.687-3,6-3s6,1.343,6,3v1C14,5.657,11.313,7,8,7z"/>
</svg>
