<?xml version="1.0" encoding="utf-8"?>
<!-- Generator: Adobe Illustrator 15.1.0, SVG Export Plug-In . SVG Version: 6.00 Build 0)  -->
<!DOCTYPE svg PUBLIC "-//W3C//DTD SVG 1.1//EN" "http://www.w3.org/Graphics/SVG/1.1/DTD/svg11.dtd">
<svg version="1.1" id="Layer_1" xmlns="http://www.w3.org/2000/svg" xmlns:xlink="http://www.w3.org/1999/xlink" x="0px" y="0px"
	 width="16px" height="16px" viewBox="0 0 16 16" enable-background="new 0 0 16 16" xml:space="preserve">
<path fill-rule="evenodd" clip-rule="evenodd" fill="#231F20" d="M10.5,16C8.015,16,6,13.985,6,11.5S8.015,7,10.5,7
	S15,9.015,15,11.5S12.985,16,10.5,16z M10.5,9C9.119,9,8,10.119,8,11.5S9.119,14,10.5,14s2.5-1.119,2.5-2.5S11.881,9,10.5,9z M9,12
	v-1h3v1H9z M13,5.312v1.314c-0.15-0.077-0.295-0.16-0.453-0.224C12.836,6.08,13,5.716,13,5.312z M11.309,6.081
	C11.043,6.042,10.777,6,10.5,6C9.337,6,8.263,6.365,7.374,6.981C7.248,6.985,7.128,7,7,7C3.687,7,1,5.657,1,4V3c0-1.657,2.687-3,6-3
	s6,1.343,6,3v1C13,4.81,12.352,5.542,11.309,6.081z M6.312,7.973C5.85,8.522,5.498,9.157,5.277,9.859C2.81,9.487,1,8.355,1,7V5.312
	C1,6.852,3.326,7.839,6.312,7.973z M5.064,10.862C5.039,11.074,5,11.281,5,11.5c0,0.467,0.076,0.912,0.186,1.345
	C2.765,12.459,1,11.339,1,10V8.312C1,9.629,2.706,10.539,5.064,10.862z M5.588,13.928c0.407,0.821,1.001,1.529,1.743,2.056
	C7.22,15.986,7.113,16,7,16c-3.313,0-6-1.343-6-3v-1.688C1,12.725,2.959,13.676,5.588,13.928z"/>
</svg>
