<?xml version="1.0" encoding="utf-8"?>
<!-- Generator: Adobe Illustrator 15.1.0, SVG Export Plug-In . SVG Version: 6.00 Build 0)  -->
<!DOCTYPE svg PUBLIC "-//W3C//DTD SVG 1.1//EN" "http://www.w3.org/Graphics/SVG/1.1/DTD/svg11.dtd">
<svg version="1.1" id="Layer_1" xmlns="http://www.w3.org/2000/svg" xmlns:xlink="http://www.w3.org/1999/xlink" x="0px" y="0px"
	 width="16px" height="16px" viewBox="0 0 16 16" enable-background="new 0 0 16 16" xml:space="preserve">
<path fill-rule="evenodd" clip-rule="evenodd" fill="#231F20" d="M13,16H3c-1.657,0-3-1.343-3-3V3c0-1.657,1.343-3,3-3h10
	c1.657,0,3,1.343,3,3v10C16,14.657,14.657,16,13,16z M14,3c0-0.553-0.447-1-1-1H3C2.447,2,2,2.447,2,3v10c0,0.553,0.447,1,1,1h10
	c0.553,0,1-0.447,1-1V3z M11,10h-1l0,0v3H9V9V7V3h1v3l0,0h1c0.553,0,1,0.448,1,1v2C12,9.553,11.553,10,11,10z M11,7h-1v2h1V7z M6,12
	H5v1H4v-2V5V3h1v1h1c0.553,0,1,0.447,1,1v6C7,11.553,6.553,12,6,12z M6,5H5v6h1V5z"/>
</svg>
