<?xml version="1.0" encoding="utf-8"?>
<!-- Generator: Adobe Illustrator 15.1.0, SVG Export Plug-In . SVG Version: 6.00 Build 0)  -->
<!DOCTYPE svg PUBLIC "-//W3C//DTD SVG 1.1//EN" "http://www.w3.org/Graphics/SVG/1.1/DTD/svg11.dtd">
<svg version="1.1" id="Layer_1" xmlns="http://www.w3.org/2000/svg" xmlns:xlink="http://www.w3.org/1999/xlink" x="0px" y="0px"
	 width="16px" height="16px" viewBox="0 0 16 16" enable-background="new 0 0 16 16" xml:space="preserve">
<g>
	<rect x="9" y="11" fill-rule="evenodd" clip-rule="evenodd" fill="#231F20" width="3" height="1"/>
	<path fill-rule="evenodd" clip-rule="evenodd" fill="#231F20" d="M13,7.777V7.76V4L9,0H2C1.447,0,1,0.447,1,1v14
		c0,0.553,0.447,1,1,1h8.5c2.485,0,4.5-2.015,4.5-4.5C15,9.943,14.202,8.583,13,7.777z M6.76,14H3V2h5v3h3v2.038V7.05
		C10.835,7.027,10.671,7,10.5,7C8.015,7,6,9.015,6,11.5C6,12.426,6.281,13.285,6.76,14z M10.5,14C9.119,14,8,12.881,8,11.5
		S9.119,9,10.5,9s2.5,1.119,2.5,2.5S11.881,14,10.5,14z"/>
</g>
</svg>
