<?xml version="1.0" encoding="utf-8"?>
<!-- Generator: Adobe Illustrator 15.1.0, SVG Export Plug-In . SVG Version: 6.00 Build 0)  -->
<!DOCTYPE svg PUBLIC "-//W3C//DTD SVG 1.1//EN" "http://www.w3.org/Graphics/SVG/1.1/DTD/svg11.dtd">
<svg version="1.1" id="Layer_1" xmlns="http://www.w3.org/2000/svg" xmlns:xlink="http://www.w3.org/1999/xlink" x="0px" y="0px"
	 width="16px" height="16px" viewBox="0 0 16 16" enable-background="new 0 0 16 16" xml:space="preserve">
<path fill-rule="evenodd" clip-rule="evenodd" fill="#231F20" d="M14,10c-1.104,0-2-0.896-2-2s0.896-2,2-2s2,0.896,2,2
	S15.104,10,14,10z M8,10c-1.104,0-2-0.896-2-2s0.896-2,2-2s2,0.896,2,2S9.104,10,8,10z M2,10c-1.104,0-2-0.896-2-2s0.896-2,2-2
	s2,0.896,2,2S3.104,10,2,10z"/>
</svg>
