<?xml version="1.0" encoding="utf-8"?>
<!-- Generator: Adobe Illustrator 15.1.0, SVG Export Plug-In . SVG Version: 6.00 Build 0)  -->
<!DOCTYPE svg PUBLIC "-//W3C//DTD SVG 1.1//EN" "http://www.w3.org/Graphics/SVG/1.1/DTD/svg11.dtd">
<svg version="1.1" id="Layer_1" xmlns="http://www.w3.org/2000/svg" xmlns:xlink="http://www.w3.org/1999/xlink" x="0px" y="0px"
	 width="16px" height="16px" viewBox="0 0 16 16" enable-background="new 0 0 16 16" xml:space="preserve">
<path fill="#231F20" d="M13,0H3C1.343,0,0,1.343,0,3v10c0,1.657,1.343,3,3,3h10c1.657,0,3-1.343,3-3V3C16,1.343,14.657,0,13,0z M2,3
	c0-0.552,0.448-1,1-1h1c0.552,0,1,0.448,1,1v1c0,0.552-0.448,1-1,1H3C2.448,5,2,4.552,2,4V3z M14,13c0,0.553-0.447,1-1,1H3
	c-0.552,0-1-0.447-1-1V7h3.586l2.381,2.381l-0.674,0.691c-0.286,0.286-0.372,0.791-0.217,1.164S7.595,12,8,12h2.828
	c0.276,0,0.612-0.26,0.793-0.439C11.802,11.379,12,10.982,12,10.706V7.877c0-0.404-0.33-0.769-0.703-0.924
	c-0.373-0.155-0.89-0.069-1.176,0.217L9.362,7.949L7,5.586V2h6c0.553,0,1,0.448,1,1V13z"/>
</svg>
