<?xml version="1.0" encoding="utf-8"?>
<!-- Generator: Adobe Illustrator 15.1.0, SVG Export Plug-In . SVG Version: 6.00 Build 0)  -->
<!DOCTYPE svg PUBLIC "-//W3C//DTD SVG 1.1//EN" "http://www.w3.org/Graphics/SVG/1.1/DTD/svg11.dtd">
<svg version="1.1" id="Layer_1" xmlns="http://www.w3.org/2000/svg" xmlns:xlink="http://www.w3.org/1999/xlink" x="0px" y="0px"
	 width="16px" height="16px" viewBox="0 0 16 16" enable-background="new 0 0 16 16" xml:space="preserve">
<g>
	<path fill-rule="evenodd" clip-rule="evenodd" fill="#231F20" d="M3.914,2.5l0.793-0.793c0.286-0.286,0.372-0.716,0.217-1.09
		C4.769,0.244,4.404,0,4,0H1C0.448,0,0,0.448,0,1v3c0,0.404,0.244,0.769,0.617,0.924C0.741,4.975,0.871,5,1,5
		c0.26,0,0.516-0.102,0.707-0.293L2.5,3.914l2.793,2.793c0.391,0.391,1.023,0.391,1.414,0s0.391-1.023,0-1.414L3.914,2.5z"/>
	<path fill-rule="evenodd" clip-rule="evenodd" fill="#231F20" d="M15,0h-3c-0.404,0-0.77,0.244-0.924,0.617
		c-0.154,0.374-0.069,0.804,0.217,1.09L12.086,2.5L9.293,5.293c-0.391,0.391-0.391,1.023,0,1.414s1.023,0.391,1.414,0L13.5,3.914
		l0.793,0.793C14.484,4.898,14.74,5,15,5c0.129,0,0.259-0.025,0.383-0.076C15.756,4.769,16,4.404,16,4V1C16,0.448,15.553,0,15,0z"/>
	<path fill-rule="evenodd" clip-rule="evenodd" fill="#231F20" d="M5.293,9.293L2.5,12.086l-0.793-0.793C1.516,11.102,1.26,11,1,11
		c-0.129,0-0.259,0.025-0.383,0.076C0.244,11.23,0,11.596,0,12v3c0,0.553,0.448,1,1,1h3c0.404,0,0.769-0.244,0.924-0.617
		c0.155-0.374,0.069-0.804-0.217-1.09L3.914,13.5l2.793-2.793c0.391-0.391,0.391-1.023,0-1.414S5.684,8.902,5.293,9.293z"/>
	<path fill-rule="evenodd" clip-rule="evenodd" fill="#231F20" d="M15.383,11.076C15.259,11.025,15.129,11,15,11
		c-0.26,0-0.516,0.102-0.707,0.293L13.5,12.086l-2.793-2.793c-0.391-0.391-1.023-0.391-1.414,0s-0.391,1.023,0,1.414l2.793,2.793
		l-0.793,0.793c-0.286,0.286-0.371,0.716-0.217,1.09C11.23,15.756,11.596,16,12,16h3c0.553,0,1-0.447,1-1v-3
		C16,11.596,15.756,11.23,15.383,11.076z"/>
</g>
</svg>
