<?xml version="1.0" encoding="utf-8"?>
<!-- Generator: Adobe Illustrator 15.1.0, SVG Export Plug-In . SVG Version: 6.00 Build 0)  -->
<!DOCTYPE svg PUBLIC "-//W3C//DTD SVG 1.1//EN" "http://www.w3.org/Graphics/SVG/1.1/DTD/svg11.dtd">
<svg version="1.1" id="Layer_1" xmlns="http://www.w3.org/2000/svg" xmlns:xlink="http://www.w3.org/1999/xlink" x="0px" y="0px"
	 width="16px" height="16px" viewBox="0 0 16 16" enable-background="new 0 0 16 16" xml:space="preserve">
<path fill-rule="evenodd" clip-rule="evenodd" fill="#231F20" d="M8,15c-5.406,0-8-7-8-7s2.594-7,8-7s8,7,8,7S13.406,15,8,15z M8,3
	C5.238,3,3,5.238,3,8s2.238,5,5,5s5-2.238,5-5S10.762,3,8,3z M8,11c-1.657,0-3-1.343-3-3c0-0.353,0.072-0.686,0.184-1H7V5.184
	C7.314,5.072,7.647,5,8,5c1.657,0,3,1.343,3,3S9.657,11,8,11z"/>
</svg>
