<?xml version="1.0" encoding="utf-8"?>
<!-- Generator: Adobe Illustrator 15.1.0, SVG Export Plug-In . SVG Version: 6.00 Build 0)  -->
<!DOCTYPE svg PUBLIC "-//W3C//DTD SVG 1.1//EN" "http://www.w3.org/Graphics/SVG/1.1/DTD/svg11.dtd">
<svg version="1.1" id="Layer_1" xmlns="http://www.w3.org/2000/svg" xmlns:xlink="http://www.w3.org/1999/xlink" x="0px" y="0px"
	 width="16px" height="16px" viewBox="0 0 16 16" enable-background="new 0 0 16 16" xml:space="preserve">
<g>
	<path fill-rule="evenodd" clip-rule="evenodd" fill="#231F20" d="M15.121,10.878L11,6.757V2c0.553,0,1-0.448,1-1s-0.447-1-1-1H5
		C4.448,0,4,0.448,4,1s0.448,1,1,1v4.757l-4.122,4.121c-1.171,1.172-1.171,3.071,0,4.243C1.464,15.707,2.232,16,3,16h10
		c0.768,0,1.535-0.293,2.121-0.879C16.293,13.949,16.293,12.05,15.121,10.878z M13.707,13.707C13.452,13.962,13.154,14,13,14H3
		c-0.155,0-0.452-0.038-0.708-0.293c-0.39-0.39-0.39-1.025,0-1.415L7,7.586V2h2v5.586l4.707,4.706
		C13.962,12.547,14,12.845,14,12.999C14,13.154,13.962,13.452,13.707,13.707z"/>
</g>
</svg>
