<?xml version="1.0" encoding="utf-8"?>
<!-- Generator: Adobe Illustrator 15.1.0, SVG Export Plug-In . SVG Version: 6.00 Build 0)  -->
<!DOCTYPE svg PUBLIC "-//W3C//DTD SVG 1.1//EN" "http://www.w3.org/Graphics/SVG/1.1/DTD/svg11.dtd">
<svg version="1.1" id="Layer_1" xmlns="http://www.w3.org/2000/svg" xmlns:xlink="http://www.w3.org/1999/xlink" x="0px" y="0px"
	 width="16px" height="16px" viewBox="0 0 16 16" enable-background="new 0 0 16 16" xml:space="preserve">
<path fill-rule="evenodd" clip-rule="evenodd" fill="#231F20" d="M15,16h-1v-1.5c0-0.275-0.224-0.5-0.5-0.5S13,14.225,13,14.5V16h-2
	v-0.5c0-0.275-0.224-0.5-0.5-0.5S10,15.225,10,15.5V16H6v-0.5C6,15.225,5.776,15,5.5,15S5,15.225,5,15.5V16H1c-0.553,0-1-0.447-1-1
	V1c0-0.552,0.447-1,1-1h14c0.553,0,1,0.448,1,1v14C16,15.553,15.553,16,15,16z M7,14c0,0.553,0.447,1,1,1s1-0.447,1-1v-1
	c0-0.553-0.447-1-1-1s-1,0.447-1,1V14z M8,11c1.657,0,3-1.344,3-3c0-1.657-1.343-3-3-3S5,6.343,5,8C5,9.656,6.343,11,8,11z M15,2
	c0-0.552-0.447-1-1-1H2C1.447,1,1,1.448,1,2v1c0,0.552,0.447,1,1,1h12c0.553,0,1-0.448,1-1V2z M2,2h7v1H2V2z M8,6
	c1.104,0,2,0.896,2,2s-0.896,2-2,2S6,9.104,6,8S6.896,6,8,6z M8,9c0.553,0,1-0.448,1-1S8.553,7,8,7S7,7.448,7,8S7.447,9,8,9z"/>
</svg>
