<?xml version="1.0" encoding="utf-8"?>
<!-- Generator: Adobe Illustrator 15.1.0, SVG Export Plug-In . SVG Version: 6.00 Build 0)  -->
<!DOCTYPE svg PUBLIC "-//W3C//DTD SVG 1.1//EN" "http://www.w3.org/Graphics/SVG/1.1/DTD/svg11.dtd">
<svg version="1.1" id="Layer_1" xmlns="http://www.w3.org/2000/svg" xmlns:xlink="http://www.w3.org/1999/xlink" x="0px" y="0px"
	 width="16px" height="16px" viewBox="0 0 16 16" enable-background="new 0 0 16 16" xml:space="preserve">
<path fill-rule="evenodd" clip-rule="evenodd" fill="#231F20" d="M8,16c-4.418,0-8-3.582-8-8s3.582-8,8-8c4.418,0,8,3.582,8,8
	S12.418,16,8,16z M8,14c2.939,0,5.374-2.116,5.89-4.905c-1.962,1.532-4.792,1.417-6.597-0.388c-1.172-1.172-3.071-1.172-4.243,0
	C2.707,9.051,2.476,9.46,2.334,9.893C3.13,12.273,5.352,14,8,14z M8,2C5.061,2,2.626,4.116,2.11,6.905
	c1.962-1.532,4.792-1.417,6.597,0.388c1.172,1.172,3.071,1.172,4.242,0c0.344-0.344,0.574-0.753,0.717-1.186
	C12.87,3.728,10.648,2,8,2z"/>
</svg>
