<?xml version="1.0" encoding="utf-8"?>
<!-- Generator: Adobe Illustrator 15.1.0, SVG Export Plug-In . SVG Version: 6.00 Build 0)  -->
<!DOCTYPE svg PUBLIC "-//W3C//DTD SVG 1.1//EN" "http://www.w3.org/Graphics/SVG/1.1/DTD/svg11.dtd">
<svg version="1.1" id="Layer_1" xmlns="http://www.w3.org/2000/svg" xmlns:xlink="http://www.w3.org/1999/xlink" x="0px" y="0px"
	 width="16px" height="16px" viewBox="0 0 16 16" enable-background="new 0 0 16 16" xml:space="preserve">
<g>
	<g>
		<path fill-rule="evenodd" clip-rule="evenodd" fill="#231F20" d="M13,2H9.816C9.403,0.838,8.304,0,7,0H3C1.343,0,0,1.343,0,3v10
			c0,1.657,1.343,3,3,3h10c1.656,0,3-1.343,3-3V5C16,3.343,14.656,2,13,2z M11.5,14C10.119,14,9,12.881,9,11.5S10.119,9,11.5,9
			s2.5,1.119,2.5,2.5S12.881,14,11.5,14z M14,6H5C4.448,6,4,6.447,4,7v7H3c-0.552,0-1-0.447-1-1V3c0-0.553,0.448-1,1-1h4
			c0.552,0,1,0.447,1,1v1h5c0.553,0,1,0.447,1,1V6z M10,12h3v-1h-3V12z"/>
	</g>
</g>
</svg>
