<?xml version="1.0" encoding="utf-8"?>
<!-- Generator: Adobe Illustrator 15.1.0, SVG Export Plug-In . SVG Version: 6.00 Build 0)  -->
<!DOCTYPE svg PUBLIC "-//W3C//DTD SVG 1.1//EN" "http://www.w3.org/Graphics/SVG/1.1/DTD/svg11.dtd">
<svg version="1.1" id="Layer_1" xmlns="http://www.w3.org/2000/svg" xmlns:xlink="http://www.w3.org/1999/xlink" x="0px" y="0px"
	 width="16px" height="16px" viewBox="0 0 16 16" enable-background="new 0 0 16 16" xml:space="preserve">
<path fill-rule="evenodd" clip-rule="evenodd" fill="#231F20" d="M13,16H3c-1.657,0-3-1.343-3-3V3c0-1.657,1.343-3,3-3h4
	c1.304,0,2.403,0.838,2.816,2H13c1.656,0,3,1.343,3,3v8C16,14.657,14.656,16,13,16z M14,5c0-0.553-0.447-1-1-1H8V3
	c0-0.553-0.448-1-1-1H3C2.448,2,2,2.447,2,3v10c0,0.553,0.448,1,1,1h10c0.553,0,1-0.447,1-1V5z"/>
</svg>
