<?xml version="1.0" encoding="utf-8"?>
<!-- Generator: Adobe Illustrator 15.1.0, SVG Export Plug-In . SVG Version: 6.00 Build 0)  -->
<!DOCTYPE svg PUBLIC "-//W3C//DTD SVG 1.1//EN" "http://www.w3.org/Graphics/SVG/1.1/DTD/svg11.dtd">
<svg version="1.1" id="Layer_1" xmlns="http://www.w3.org/2000/svg" xmlns:xlink="http://www.w3.org/1999/xlink" x="0px" y="0px"
	 width="16px" height="16px" viewBox="0 0 16 16" enable-background="new 0 0 16 16" xml:space="preserve">
<g>
	<path fill-rule="evenodd" clip-rule="evenodd" fill="#231F20" d="M13,2H9.816C9.403,0.837,8.304,0,7,0H3C1.343,0,0,1.343,0,3v10
		c0,1.657,1.343,3,3,3h8.5c2.485,0,4.5-2.015,4.5-4.5V5C16,3.343,14.657,2,13,2z M11.5,14L11.5,14C10.119,14,9,12.881,9,11.5
		S10.119,9,11.5,9s2.5,1.119,2.5,2.5S12.881,14,11.5,14z M14,7.76C13.285,7.281,12.426,7,11.5,7C9.015,7,7,9.015,7,11.5
		c0,0.926,0.281,1.785,0.76,2.5H3c-0.552,0-1-0.447-1-1V3c0-0.552,0.448-1,1-1h4c0.552,0,1,0.448,1,1v1h5c0.553,0,1,0.448,1,1V7.76z
		"/>
	<rect x="10" y="11" fill-rule="evenodd" clip-rule="evenodd" fill="#231F20" width="3" height="1"/>
</g>
</svg>
