<?xml version="1.0" encoding="utf-8"?>
<!-- Generator: Adobe Illustrator 15.1.0, SVG Export Plug-In . SVG Version: 6.00 Build 0)  -->
<!DOCTYPE svg PUBLIC "-//W3C//DTD SVG 1.1//EN" "http://www.w3.org/Graphics/SVG/1.1/DTD/svg11.dtd">
<svg version="1.1" id="Layer_1" xmlns="http://www.w3.org/2000/svg" xmlns:xlink="http://www.w3.org/1999/xlink" x="0px" y="0px"
	 width="16px" height="16px" viewBox="0 0 16 16" enable-background="new 0 0 16 16" xml:space="preserve">
<path fill-rule="evenodd" clip-rule="evenodd" fill="#231F20" d="M16,11.5c0,2.485-2.015,4.5-4.5,4.5l0,0H3c-1.657,0-3-1.343-3-3V3
	c0-1.657,1.343-3,3-3h4c1.304,0,2.403,0.837,2.816,2H13c1.657,0,3,1.343,3,3V11.5L16,11.5z M11.499,14L11.499,14
	C12.881,14,14,12.881,14,11.5l0,0c0-1.381-1.119-2.5-2.5-2.5S9,10.119,9,11.5S10.119,14,11.499,14z M13,4H8V3c0-0.552-0.448-1-1-1H3
	C2.448,2,2,2.448,2,3v10c0,0.553,0.448,1,1,1h4.76C7.281,13.285,7,12.426,7,11.5C7,9.015,9.015,7,11.5,7
	c0.926,0,1.785,0.281,2.5,0.76V5C14,4.448,13.553,4,13,4z M11,10h1v1h1v1h-1v1h-1v-1h-1v-1h1V10z"/>
</svg>
