<?xml version="1.0" encoding="utf-8"?>
<!-- Generator: Adobe Illustrator 15.1.0, SVG Export Plug-In . SVG Version: 6.00 Build 0)  -->
<!DOCTYPE svg PUBLIC "-//W3C//DTD SVG 1.1//EN" "http://www.w3.org/Graphics/SVG/1.1/DTD/svg11.dtd">
<svg version="1.1" id="Layer_1" xmlns="http://www.w3.org/2000/svg" xmlns:xlink="http://www.w3.org/1999/xlink" x="0px" y="0px"
	 width="16px" height="16px" viewBox="0 0 16 16" enable-background="new 0 0 16 16" xml:space="preserve">
<g>
	<g>
		<path fill-rule="evenodd" clip-rule="evenodd" fill="#231F20" d="M7,12h2v-2H7V12z M4,6h2V4H4V6z M7,9h2V7H7V9z M4,12h2v-2H4V12z
			 M4,9h2V7H4V9z M13,0H3C1.343,0,0,1.343,0,3v10c0,1.656,1.343,3,3,3h10c1.656,0,3-1.344,3-3V3C16,1.343,14.656,0,13,0z M14,13
			c0,0.553-0.447,1-1,1H3c-0.552,0-1-0.447-1-1V3c0-0.552,0.448-1,1-1h10c0.553,0,1,0.448,1,1V13z M10,9h2V7h-2V9z M10,6h2V4h-2V6z
			 M7,6h2V4H7V6z M10,12h2v-2h-2V12z"/>
	</g>
</g>
</svg>
