<?xml version="1.0" encoding="utf-8"?>
<!-- Generator: Adobe Illustrator 15.1.0, SVG Export Plug-In . SVG Version: 6.00 Build 0)  -->
<!DOCTYPE svg PUBLIC "-//W3C//DTD SVG 1.1//EN" "http://www.w3.org/Graphics/SVG/1.1/DTD/svg11.dtd">
<svg version="1.1" id="Layer_1" xmlns="http://www.w3.org/2000/svg" xmlns:xlink="http://www.w3.org/1999/xlink" x="0px" y="0px"
	 width="16px" height="16px" viewBox="0 0 16 16" enable-background="new 0 0 16 16" xml:space="preserve">
<path fill-rule="evenodd" clip-rule="evenodd" fill="#231F20" d="M15,9c-0.062,0-0.114-0.024-0.173-0.035
	C14.424,10.146,13.317,11,12,11V4h-1c0-0.552-0.447-1-1-1H6C5.448,3,5,3.448,5,4H4v6v1v1c0,0.553,0.448,1,1,1c0-0.553,0.448-1,1-1h1
	c0.552,0,1,0.447,1,1v1c0,0.553-0.448,1-1,1H6c-0.552,0-1-0.447-1-1c-1.104,0-2-0.896-2-2v-1.178
	C2.143,10.516,1.468,9.83,1.173,8.965C1.115,8.976,1.062,9,1,9C0.448,9,0,8.552,0,8s0.448-1,1-1c0.059,0,0.11,0.024,0.167,0.034
	C1.463,6.172,2.141,5.489,3,5.184V4c0-1.657,1.343-3,3-3h4c1.657,0,3,1.343,3,3v1.184c0.859,0.306,1.536,0.989,1.834,1.85
	C14.89,7.024,14.94,7,15,7c0.553,0,1,0.448,1,1S15.553,9,15,9z M3,7H2v2h1V7z M14,7h-1v2h1V7z"/>
</svg>
