<?xml version="1.0" encoding="utf-8"?>
<!-- Generator: Adobe Illustrator 15.1.0, SVG Export Plug-In . SVG Version: 6.00 Build 0)  -->
<!DOCTYPE svg PUBLIC "-//W3C//DTD SVG 1.1//EN" "http://www.w3.org/Graphics/SVG/1.1/DTD/svg11.dtd">
<svg version="1.1" id="Layer_1" xmlns="http://www.w3.org/2000/svg" xmlns:xlink="http://www.w3.org/1999/xlink" x="0px" y="0px"
	 width="16px" height="16px" viewBox="0 0 16 16" enable-background="new 0 0 16 16" xml:space="preserve">
<g>
	<g>
		<path fill-rule="evenodd" clip-rule="evenodd" fill="#231F20" d="M6.469,11.031c-0.743,0-1.906-2.938-2.469-1.75
			c-0.234,0.494-0.624,1.547-1,2.39V12c0,0.553,0.448,1,1,1h8c0.553,0,1-0.447,1-1v-0.466c-0.565-1.272-1.297-3.38-2-4.19
			C9.562,5.688,7.844,11.031,6.469,11.031z M13,0H3C1.343,0,0,1.343,0,3v10c0,1.656,1.343,3,3,3h10c1.656,0,3-1.344,3-3V3
			C16,1.343,14.656,0,13,0z M14,13c0,0.553-0.447,1-1,1H3c-0.552,0-1-0.447-1-1V3c0-0.552,0.448-1,1-1h10c0.553,0,1,0.448,1,1V13z
			 M4.5,6C5.329,6,6,5.329,6,4.5S5.329,3,4.5,3S3,3.671,3,4.5S3.671,6,4.5,6z"/>
	</g>
</g>
</svg>
