<?xml version="1.0" encoding="utf-8"?>
<!-- Generator: Adobe Illustrator 15.1.0, SVG Export Plug-In . SVG Version: 6.00 Build 0)  -->
<!DOCTYPE svg PUBLIC "-//W3C//DTD SVG 1.1//EN" "http://www.w3.org/Graphics/SVG/1.1/DTD/svg11.dtd">
<svg version="1.1" id="Layer_1" xmlns="http://www.w3.org/2000/svg" xmlns:xlink="http://www.w3.org/1999/xlink" x="0px" y="0px"
	 width="16px" height="16px" viewBox="0 0 16 16" enable-background="new 0 0 16 16" xml:space="preserve">
<path fill-rule="evenodd" clip-rule="evenodd" fill="#231F20" d="M13,16H3c-1.657,0-3-1.343-3-3v-2h2v2c0,0.553,0.448,1,1,1h10
	c0.553,0,1-0.447,1-1V3c0-0.552-0.447-1-1-1H3C2.448,2,2,2.448,2,3v2H0V3c0-1.657,1.343-3,3-3h10c1.657,0,3,1.343,3,3v10
	C16,14.657,14.657,16,13,16z M4.617,5.075c0.374-0.154,0.804-0.069,1.09,0.217l2,2C7.902,7.487,8,7.743,8,7.999
	S7.902,8.511,7.707,8.706l-2,2c-0.286,0.285-0.716,0.371-1.09,0.217C4.244,10.769,4,10.403,4,9.999V9H1C0.448,9,0,8.553,0,8
	c0-0.552,0.448-1,1-1h3V5.999C4,5.595,4.244,5.229,4.617,5.075z"/>
</svg>
