<?xml version="1.0" encoding="utf-8"?>
<!-- Generator: Adobe Illustrator 15.1.0, SVG Export Plug-In . SVG Version: 6.00 Build 0)  -->
<!DOCTYPE svg PUBLIC "-//W3C//DTD SVG 1.1//EN" "http://www.w3.org/Graphics/SVG/1.1/DTD/svg11.dtd">
<svg version="1.1" id="Layer_1" xmlns="http://www.w3.org/2000/svg" xmlns:xlink="http://www.w3.org/1999/xlink" x="0px" y="0px"
	 width="16px" height="16px" viewBox="0 0 16 16" enable-background="new 0 0 16 16" xml:space="preserve">
<g>
	<path fill-rule="evenodd" clip-rule="evenodd" fill="#231F20" d="M13,0h-2v2h2c0.553,0,1,0.448,1,1v10c0,0.553-0.447,1-1,1H3
		c-0.552,0-1-0.447-1-1V3c0-0.552,0.448-1,1-1h2V0H3C1.343,0,0,1.343,0,3v10c0,1.657,1.343,3,3,3h10c1.657,0,3-1.343,3-3V3
		C16,1.343,14.657,0,13,0z"/>
	<polygon fill-rule="evenodd" clip-rule="evenodd" fill="#231F20" points="3,13 13,13 11,10 5,10 	"/>
	<path fill-rule="evenodd" clip-rule="evenodd" fill="#231F20" d="M7.293,7.707C7.488,7.902,7.744,8,8,8s0.512-0.098,0.707-0.293
		l2-2c0.285-0.286,0.371-0.716,0.217-1.09C10.77,4.244,10.404,4,10,4H9V1c0-0.553-0.447-1-1-1C7.448,0,7,0.447,7,1v3H6
		C5.596,4,5.23,4.244,5.076,4.617c-0.154,0.374-0.069,0.804,0.217,1.09L7.293,7.707z"/>
</g>
</svg>
