<?xml version="1.0" encoding="utf-8"?>
<!-- Generator: Adobe Illustrator 15.1.0, SVG Export Plug-In . SVG Version: 6.00 Build 0)  -->
<!DOCTYPE svg PUBLIC "-//W3C//DTD SVG 1.1//EN" "http://www.w3.org/Graphics/SVG/1.1/DTD/svg11.dtd">
<svg version="1.1" id="Layer_1" xmlns="http://www.w3.org/2000/svg" xmlns:xlink="http://www.w3.org/1999/xlink" x="0px" y="0px"
	 width="16px" height="16px" viewBox="0 0 16 16" enable-background="new 0 0 16 16" xml:space="preserve">
<path fill-rule="evenodd" clip-rule="evenodd" fill="#231F20" d="M13,16H3c-1.657,0-3-1.343-3-3v-3l3.445-3.445
	C3.567,6.756,3.708,6.948,3.879,7.12l0.916,0.916L2,11h3v1c0,0.553,0.448,1,1,1h4c0.553,0,1-0.447,1-1v-1h3l-2.795-2.964
	l0.916-0.916c0.172-0.172,0.312-0.364,0.435-0.564L16,10v3C16,14.657,14.657,16,13,16z M8.707,7.706
	C8.512,7.901,8.256,7.999,8,7.999S7.488,7.901,7.293,7.706l-2-2C5.008,5.42,4.922,4.99,5.076,4.616C5.23,4.243,5.596,4,6,4h1V1
	c0-0.552,0.448-1,1-1c0.553,0,1,0.448,1,1v3h1c0.404,0,0.77,0.244,0.924,0.617c0.154,0.374,0.069,0.803-0.217,1.089L8.707,7.706z"/>
</svg>
