<?xml version="1.0" encoding="utf-8"?>
<!-- Generator: Adobe Illustrator 15.1.0, SVG Export Plug-In . SVG Version: 6.00 Build 0)  -->
<!DOCTYPE svg PUBLIC "-//W3C//DTD SVG 1.1//EN" "http://www.w3.org/Graphics/SVG/1.1/DTD/svg11.dtd">
<svg version="1.1" id="Layer_1" xmlns="http://www.w3.org/2000/svg" xmlns:xlink="http://www.w3.org/1999/xlink" x="0px" y="0px"
	 width="16px" height="16px" viewBox="0 0 16 16" enable-background="new 0 0 16 16" xml:space="preserve">
<path fill-rule="evenodd" clip-rule="evenodd" fill="#231F20" d="M15,8c0,2.209-1.791,4-4,4s-4-1.791-4-4c0-1.104-0.896-2-2-2
	S3,6.896,3,8s0.896,2,2,2c0.122,0,0.24-0.015,0.356-0.036c0.229,0.657,0.566,1.255,0.994,1.786C5.927,11.902,5.477,12,5,12
	c-2.209,0-4-1.791-4-4s1.791-4,4-4s4,1.791,4,4c0,1.104,0.896,2,2,2s2-0.896,2-2l0,0c0-1.104-0.896-2-2-2
	c-0.122,0-0.24,0.015-0.356,0.036c-0.229-0.657-0.565-1.255-0.994-1.786C10.073,4.098,10.523,4,11,4C13.209,4,15,5.791,15,8L15,8z"
	/>
</svg>
