<?xml version="1.0" encoding="utf-8"?>
<!-- Generator: Adobe Illustrator 15.1.0, SVG Export Plug-In . SVG Version: 6.00 Build 0)  -->
<!DOCTYPE svg PUBLIC "-//W3C//DTD SVG 1.1//EN" "http://www.w3.org/Graphics/SVG/1.1/DTD/svg11.dtd">
<svg version="1.1" id="Layer_1" xmlns="http://www.w3.org/2000/svg" xmlns:xlink="http://www.w3.org/1999/xlink" x="0px" y="0px"
	 width="16px" height="16px" viewBox="0 0 16 16" enable-background="new 0 0 16 16" xml:space="preserve">
<path fill-rule="evenodd" clip-rule="evenodd" fill="#231F20" d="M14,16h-1v-2h-2v-2H9v-1H7v-1V9.578C6.387,9.847,5.712,10,5,10
	c-2.761,0-5-2.238-5-5s2.239-5,5-5s5,2.238,5,5c0,0.712-0.154,1.387-0.422,2H11v2l5,4v3H14z M4,2C2.896,2,2,2.896,2,4s0.896,2,2,2
	s2-0.896,2-2S5.104,2,4,2z"/>
</svg>
