<?xml version="1.0" encoding="utf-8"?>
<!-- Generator: Adobe Illustrator 15.1.0, SVG Export Plug-In . SVG Version: 6.00 Build 0)  -->
<!DOCTYPE svg PUBLIC "-//W3C//DTD SVG 1.1//EN" "http://www.w3.org/Graphics/SVG/1.1/DTD/svg11.dtd">
<svg version="1.1" id="Layer_1" xmlns="http://www.w3.org/2000/svg" xmlns:xlink="http://www.w3.org/1999/xlink" x="0px" y="0px"
	 width="16px" height="16px" viewBox="0 0 16 16" enable-background="new 0 0 16 16" xml:space="preserve">
<path fill-rule="evenodd" clip-rule="evenodd" fill="#231F20" d="M13,16h-1v-6c0.553,0,1-0.447,1-1V0c1.657,0,3,1.343,3,3v10
	C16,14.656,14.657,16,13,16z M11,10v6H5v-6c0.553,0,1-0.447,1-1V0h4v9C10,9.553,10.447,10,11,10z M4,10v6H3c-1.657,0-3-1.344-3-3V3
	c0-1.657,1.343-3,3-3v9C3,9.553,3.447,10,4,10z"/>
</svg>
