<?xml version="1.0" encoding="utf-8"?>
<!-- Generator: Adobe Illustrator 15.1.0, SVG Export Plug-In . SVG Version: 6.00 Build 0)  -->
<!DOCTYPE svg PUBLIC "-//W3C//DTD SVG 1.1//EN" "http://www.w3.org/Graphics/SVG/1.1/DTD/svg11.dtd">
<svg version="1.1" id="Layer_1" xmlns="http://www.w3.org/2000/svg" xmlns:xlink="http://www.w3.org/1999/xlink" x="0px" y="0px"
	 width="16px" height="16px" viewBox="0 0 16 16" enable-background="new 0 0 16 16" xml:space="preserve">
<path fill-rule="evenodd" clip-rule="evenodd" fill="#231F20" d="M3,16h10c1.656,0,3-1.343,3-3V3c0-1.657-1.344-3-3-3H3
	C1.343,0,0,1.343,0,3v10C0,14.657,1.343,16,3,16z M2,13V6h8v8H3C2.448,14,2,13.553,2,13z M13,14h-2V6h3v7C14,13.553,13.553,14,13,14
	z M3,2h10c0.553,0,1,0.448,1,1v2h-3h-1H2V3C2,2.448,2.448,2,3,2z"/>
</svg>
