<?xml version="1.0" encoding="utf-8"?>
<!-- Generator: Adobe Illustrator 15.1.0, SVG Export Plug-In . SVG Version: 6.00 Build 0)  -->
<!DOCTYPE svg PUBLIC "-//W3C//DTD SVG 1.1//EN" "http://www.w3.org/Graphics/SVG/1.1/DTD/svg11.dtd">
<svg version="1.1" id="Layer_1" xmlns="http://www.w3.org/2000/svg" xmlns:xlink="http://www.w3.org/1999/xlink" x="0px" y="0px"
	 width="16px" height="16px" viewBox="0 0 16 16" enable-background="new 0 0 16 16" xml:space="preserve">
<path fill-rule="evenodd" clip-rule="evenodd" fill="#231F20" d="M13,16H3c-1.657,0-3-1.343-3-3V3c0-1.657,1.343-3,3-3h10
	c1.656,0,3,1.343,3,3v10C16,14.657,14.656,16,13,16z M11,14V6H5v8H11z M2,13c0,0.553,0.448,1,1,1h1V6H2V13z M14,3
	c0-0.552-0.447-1-1-1H3C2.448,2,2,2.448,2,3v2h2h1h6h1h2V3z M14,6h-2v8h1c0.553,0,1-0.447,1-1V6z"/>
</svg>
