<?xml version="1.0" encoding="utf-8"?>
<!-- Generator: Adobe Illustrator 15.1.0, SVG Export Plug-In . SVG Version: 6.00 Build 0)  -->
<!DOCTYPE svg PUBLIC "-//W3C//DTD SVG 1.1//EN" "http://www.w3.org/Graphics/SVG/1.1/DTD/svg11.dtd">
<svg version="1.1" id="Layer_1" xmlns="http://www.w3.org/2000/svg" xmlns:xlink="http://www.w3.org/1999/xlink" x="0px" y="0px"
	 width="16px" height="16px" viewBox="0 0 16 16" enable-background="new 0 0 16 16" xml:space="preserve">
<path fill-rule="evenodd" clip-rule="evenodd" fill="#231F20" d="M13,12h-1c-1.305,0-2.402-0.837-2.816-2H13c0.553,0,1-0.447,1-1V7
	c0-0.553-0.447-1-1-1H9.184C9.598,4.838,10.695,4,12,4h1c1.656,0,3,1.343,3,3v2C16,10.657,14.656,12,13,12z M4,8
	c0-0.553,0.448-1,1-1h6c0.553,0,1,0.447,1,1s-0.447,1-1,1H5C4.448,9,4,8.553,4,8z M2,7v2c0,0.553,0.448,1,1,1h3.816
	C6.403,11.163,5.304,12,4,12H3c-1.657,0-3-1.343-3-3V7c0-1.657,1.343-3,3-3h1c1.304,0,2.403,0.838,2.816,2H3C2.448,6,2,6.447,2,7z"
	/>
</svg>
