<?xml version="1.0" encoding="utf-8"?>
<!-- Generator: Adobe Illustrator 15.1.0, SVG Export Plug-In . SVG Version: 6.00 Build 0)  -->
<!DOCTYPE svg PUBLIC "-//W3C//DTD SVG 1.1//EN" "http://www.w3.org/Graphics/SVG/1.1/DTD/svg11.dtd">
<svg version="1.1" id="Layer_1" xmlns="http://www.w3.org/2000/svg" xmlns:xlink="http://www.w3.org/1999/xlink" x="0px" y="0px"
	 width="16px" height="16px" viewBox="0 0 16 16" enable-background="new 0 0 16 16" xml:space="preserve">
<path fill-rule="evenodd" clip-rule="evenodd" fill="#231F20" d="M15.146,6.511l-1.479,1.477c-0.922,0.922-2.291,1.107-3.404,0.577
	l3.404-3.405c0.391-0.391,0.391-1.024,0-1.414L12.254,2.33c-0.391-0.391-1.023-0.391-1.414,0L7.435,5.736
	C6.905,4.622,7.09,3.253,8.012,2.33l1.476-1.477c1.172-1.171,3.072-1.171,4.242,0l1.416,1.414
	C16.316,3.439,16.316,5.339,15.146,6.511z M5.184,10.815c-0.391-0.391-0.391-1.023,0-1.414l4.242-4.242
	c0.391-0.391,1.023-0.391,1.414,0s0.391,1.023,0,1.414l-4.242,4.242C6.208,11.206,5.574,11.206,5.184,10.815z M2.355,12.23
	l1.414,1.414c0.391,0.391,1.023,0.391,1.414,0l3.406-3.406c0.53,1.114,0.345,2.483-0.577,3.406l-1.352,1.477
	c-1.172,1.172-3.071,1.172-4.243,0l-1.54-1.539c-1.171-1.172-1.171-3.071,0-4.243l1.477-1.352C3.278,7.065,4.646,6.88,5.761,7.41
	l-3.406,3.405C1.965,11.206,1.965,11.84,2.355,12.23z"/>
</svg>
