<?xml version="1.0" encoding="utf-8"?>
<!-- Generator: Adobe Illustrator 15.1.0, SVG Export Plug-In . SVG Version: 6.00 Build 0)  -->
<!DOCTYPE svg PUBLIC "-//W3C//DTD SVG 1.1//EN" "http://www.w3.org/Graphics/SVG/1.1/DTD/svg11.dtd">
<svg version="1.1" id="Layer_1" xmlns="http://www.w3.org/2000/svg" xmlns:xlink="http://www.w3.org/1999/xlink" x="0px" y="0px"
	 width="16px" height="16px" viewBox="0 0 16 16" enable-background="new 0 0 16 16" xml:space="preserve">
<path fill-rule="evenodd" clip-rule="evenodd" fill="#231F20" d="M16,10c0,1.104-0.896,2-2,2c1.104,0,2,0.896,2,2s-0.896,2-2,2
	s-2-0.896-2-2c0,1.104-0.896,2-2,2s-2-0.896-2-2c0,1.104-0.896,2-2,2s-2-0.896-2-2c0,1.104-0.896,2-2,2s-2-0.896-2-2s0.896-2,2-2
	c-1.104,0-2-0.896-2-2s0.896-2,2-2C0.896,8,0,7.104,0,6s0.896-2,2-2C0.896,4,0,3.104,0,2s0.896-2,2-2s2,0.896,2,2
	c0-1.104,0.896-2,2-2s2,0.896,2,2c0-1.104,0.896-2,2-2s2,0.896,2,2c0-1.104,0.896-2,2-2s2,0.896,2,2s-0.896,2-2,2
	c1.104,0,2,0.896,2,2s-0.896,2-2,2C15.104,8,16,8.896,16,10z M13,3H3v10h10V3z M8,4c2.209,0,4,1.791,4,4v1.5
	c0,0.828-0.672,1.5-1.5,1.5c-0.756,0-1.375-0.562-1.479-1.289C8.722,9.891,8.375,10,8,10c-1.104,0-2-0.896-2-2s0.896-2,2-2
	s2,0.896,2,2v1.5c0,0.276,0.224,0.5,0.5,0.5S11,9.776,11,9.5V8c0-1.657-1.343-3-3-3C6.344,5,5,6.343,5,8c0,1.657,1.344,3,3,3h0.5
	C8.776,11,9,11.224,9,11.5S8.776,12,8.5,12H8c-2.209,0-4-1.791-4-4S5.791,4,8,4z M8,7C7.447,7,7,7.447,7,8s0.447,1,1,1s1-0.447,1-1
	S8.553,7,8,7z"/>
</svg>
