<?xml version="1.0" encoding="utf-8"?>
<!-- Generator: Adobe Illustrator 15.1.0, SVG Export Plug-In . SVG Version: 6.00 Build 0)  -->
<!DOCTYPE svg PUBLIC "-//W3C//DTD SVG 1.1//EN" "http://www.w3.org/Graphics/SVG/1.1/DTD/svg11.dtd">
<svg version="1.1" id="Layer_1" xmlns="http://www.w3.org/2000/svg" xmlns:xlink="http://www.w3.org/1999/xlink" x="0px" y="0px"
	 width="16px" height="16px" viewBox="0 0 16 16" enable-background="new 0 0 16 16" xml:space="preserve">
<g>
	<g>
		<path fill-rule="evenodd" clip-rule="evenodd" fill="#231F20" d="M3,10v1h1v-1H3z M3,13h1v-1H3V13z M6,13v-1H5v1H6z M4,12h1v-1H4
			V12z M6,3H5v1h1V3z M4,7h1V6H4V7z M12,6h-1v1h1V6z M4,4H3v1h1V4z M7,12h1v-1H7V12z M12,9h1V8h-1V9z M11,11h1v-1h-1V11z M9,6h1V5H9
			V6z M13,0H3C1.343,0,0,1.343,0,3v10c0,1.656,1.343,3,3,3h10c1.657,0,3-1.344,3-3V3C16,1.343,14.657,0,13,0z M14,13
			c0,0.553-0.447,1-1,1H3c-0.553,0-1-0.447-1-1V3c0-0.552,0.447-1,1-1h10c0.553,0,1,0.448,1,1V13z M5,11h1v-1H5V11z M9,7H8v1h1V7z
			 M9,12h1v-1H9V12z M7,7H6v1h1V7z"/>
	</g>
</g>
</svg>
