<?xml version="1.0" encoding="utf-8"?>
<!-- Generator: Adobe Illustrator 15.1.0, SVG Export Plug-In . SVG Version: 6.00 Build 0)  -->
<!DOCTYPE svg PUBLIC "-//W3C//DTD SVG 1.1//EN" "http://www.w3.org/Graphics/SVG/1.1/DTD/svg11.dtd">
<svg version="1.1" id="Layer_1" xmlns="http://www.w3.org/2000/svg" xmlns:xlink="http://www.w3.org/1999/xlink" x="0px" y="0px"
	 width="16px" height="16px" viewBox="0 0 16 16" enable-background="new 0 0 16 16" xml:space="preserve">
<path fill-rule="evenodd" clip-rule="evenodd" fill="#231F20" d="M13,16H3c-1.657,0-3-1.344-3-3V3c0-1.657,1.343-3,3-3h0.558
	C2.96,0.663,2.518,1.458,2.263,2.338C2.104,2.515,2,2.744,2,3v10c0,0.553,0.447,1,1,1h10c0.553,0,1-0.447,1-1V3
	c0-0.256-0.104-0.485-0.263-0.662C13.482,1.458,13.04,0.663,12.443,0H13c1.657,0,3,1.343,3,3v10C16,14.656,14.657,16,13,16z M4,4
	c0-2.209,1.791-4,4-4s4,1.791,4,4s-4,8-4,8S4,6.209,4,4z M10,4c0-1.104-0.896-2-2-2S6,2.896,6,4s0.896,2,2,2S10,5.104,10,4z"/>
</svg>
