<?xml version="1.0" encoding="utf-8"?>
<!-- Generator: Adobe Illustrator 15.1.0, SVG Export Plug-In . SVG Version: 6.00 Build 0)  -->
<!DOCTYPE svg PUBLIC "-//W3C//DTD SVG 1.1//EN" "http://www.w3.org/Graphics/SVG/1.1/DTD/svg11.dtd">
<svg version="1.1" id="Layer_1" xmlns="http://www.w3.org/2000/svg" xmlns:xlink="http://www.w3.org/1999/xlink" x="0px" y="0px"
	 width="16px" height="16px" viewBox="0 0 16 16" enable-background="new 0 0 16 16" xml:space="preserve">
<path fill-rule="evenodd" clip-rule="evenodd" fill="#231F20" d="M14,9h2v2h-2V9z M14,5h2v2h-2V5z M13,2V0c1.657,0,3,1.343,3,3h-2
	C14,2.448,13.553,2,13,2z M9,14h2v2H9V14z M9,0h2v2H9V0z M10.924,7.383C10.77,7.756,10.404,8,10,8H9v3c0,0.553-0.447,1-1,1
	c-0.552,0-1-0.447-1-1V8H6C5.596,8,5.23,7.756,5.076,7.383C4.922,7.009,5.007,6.578,5.293,6.292l2-2
	C7.488,4.097,7.744,3.999,8,3.999s0.512,0.098,0.707,0.293l2,2C10.992,6.578,11.078,7.008,10.924,7.383z M5,0h2v2H5V0z M0,13h2
	c0,0.553,0.448,1,1,1v2C1.343,16,0,14.657,0,13z M2,3H0c0-1.657,1.343-3,3-3v2C2.448,2,2,2.448,2,3z M2,7H0V5h2V7z M2,11H0V9h2V11z
	 M7,16H5v-2h2V16z M14,13h2c0,1.657-1.343,3-3,3v-2C13.553,14,14,13.553,14,13z"/>
</svg>
