<?xml version="1.0" encoding="utf-8"?>
<!-- Generator: Adobe Illustrator 15.1.0, SVG Export Plug-In . SVG Version: 6.00 Build 0)  -->
<!DOCTYPE svg PUBLIC "-//W3C//DTD SVG 1.1//EN" "http://www.w3.org/Graphics/SVG/1.1/DTD/svg11.dtd">
<svg version="1.1" id="Layer_1" xmlns="http://www.w3.org/2000/svg" xmlns:xlink="http://www.w3.org/1999/xlink" x="0px" y="0px"
	 width="16px" height="16px" viewBox="0 0 16 16" enable-background="new 0 0 16 16" xml:space="preserve">
<path fill-rule="evenodd" clip-rule="evenodd" fill="#231F20" d="M14,9h2v2h-2V9z M14,5h2v2h-2V5z M13,2V0c1.657,0,3,1.343,3,3h-2
	C14,2.448,13.553,2,13,2z M11,9H5C4.448,9,4,8.553,4,8c0-0.552,0.448-1,1-1h6c0.553,0,1,0.448,1,1C12,8.553,11.553,9,11,9z M9,0h2v2
	H9V0z M5,0h2v2H5V0z M0,13h2c0,0.553,0.448,1,1,1v2C1.343,16,0,14.657,0,13z M2,3H0c0-1.657,1.343-3,3-3v2C2.448,2,2,2.448,2,3z
	 M2,7H0V5h2V7z M2,11H0V9h2V11z M7,16H5v-2h2V16z M11,16H9v-2h2V16z M14,13h2c0,1.657-1.343,3-3,3v-2C13.553,14,14,13.553,14,13z"/>
</svg>
