<?xml version="1.0" encoding="utf-8"?>
<!-- Generator: Adobe Illustrator 15.1.0, SVG Export Plug-In . SVG Version: 6.00 Build 0)  -->
<!DOCTYPE svg PUBLIC "-//W3C//DTD SVG 1.1//EN" "http://www.w3.org/Graphics/SVG/1.1/DTD/svg11.dtd">
<svg version="1.1" id="Layer_1" xmlns="http://www.w3.org/2000/svg" xmlns:xlink="http://www.w3.org/1999/xlink" x="0px" y="0px"
	 width="16px" height="16px" viewBox="0 0 16 16" enable-background="new 0 0 16 16" xml:space="preserve">
<g>
	<g>
		<path fill-rule="evenodd" clip-rule="evenodd" fill="#231F20" d="M2,5H0v2h2V5z M2,9H0v2h2V9z M2,13H0c0,1.656,1.343,3,3,3v-2
			C2.448,14,2,13.553,2,13z M5,2h2V0H5V2z M14,3h2c0-1.657-1.344-3-3-3v2C13.553,2,14,2.448,14,3z M0,3h2c0-0.552,0.448-1,1-1V0
			C1.343,0,0,1.343,0,3z M14,11h2V9h-2V11z M14,7h2V5h-2V7z M13,14v2c1.656,0,3-1.344,3-3h-2C14,13.553,13.553,14,13,14z M9,2h2V0H9
			V2z M5,16h2v-2H5V16z M9,16h2v-2H9V16z"/>
	</g>
</g>
</svg>
