<?xml version="1.0" encoding="utf-8"?>
<!-- Generator: Adobe Illustrator 15.1.0, SVG Export Plug-In . SVG Version: 6.00 Build 0)  -->
<!DOCTYPE svg PUBLIC "-//W3C//DTD SVG 1.1//EN" "http://www.w3.org/Graphics/SVG/1.1/DTD/svg11.dtd">
<svg version="1.1" id="Layer_1" xmlns="http://www.w3.org/2000/svg" xmlns:xlink="http://www.w3.org/1999/xlink" x="0px" y="0px"
	 width="16px" height="16px" viewBox="0 0 16 16" enable-background="new 0 0 16 16" xml:space="preserve">
<g>
	<g>
		<path fill-rule="evenodd" clip-rule="evenodd" fill="#231F20" d="M15,0h-3c-0.404,0-0.77,0.244-0.924,0.617
			c-0.154,0.374-0.069,0.804,0.217,1.09L12.086,2.5L9.293,5.293c-0.391,0.391-0.391,1.023,0,1.414s1.023,0.391,1.414,0L13.5,3.914
			l0.793,0.793C14.484,4.898,14.74,5,15,5c0.129,0,0.259-0.025,0.383-0.076C15.756,4.769,16,4.404,16,4V1C16,0.448,15.553,0,15,0z
			 M5.293,9.293L2.5,12.086l-0.793-0.793C1.516,11.102,1.26,11,1,11c-0.129,0-0.259,0.025-0.383,0.076C0.244,11.23,0,11.596,0,12v3
			c0,0.553,0.448,1,1,1h3c0.404,0,0.769-0.244,0.924-0.617c0.155-0.374,0.069-0.804-0.217-1.09L3.914,13.5l2.793-2.793
			c0.391-0.391,0.391-1.023,0-1.414S5.684,8.902,5.293,9.293z"/>
	</g>
</g>
</svg>
