<?xml version="1.0" encoding="utf-8"?>
<!-- Generator: Adobe Illustrator 15.1.0, SVG Export Plug-In . SVG Version: 6.00 Build 0)  -->
<!DOCTYPE svg PUBLIC "-//W3C//DTD SVG 1.1//EN" "http://www.w3.org/Graphics/SVG/1.1/DTD/svg11.dtd">
<svg version="1.1" id="Layer_1" xmlns="http://www.w3.org/2000/svg" xmlns:xlink="http://www.w3.org/1999/xlink" x="0px" y="0px"
	 width="16px" height="16px" viewBox="0 0 16 16" enable-background="new 0 0 16 16" xml:space="preserve">
<g>
	<rect x="3" y="7" fill-rule="evenodd" clip-rule="evenodd" fill="#231F20" width="10" height="1"/>
	<rect x="3" y="5" fill-rule="evenodd" clip-rule="evenodd" fill="#231F20" width="10" height="1"/>
	<path fill-rule="evenodd" clip-rule="evenodd" fill="#231F20" d="M13,0H3C1.343,0,0,1.343,0,3v10c0,1.657,1.343,3,3,3h10
		c1.657,0,3-1.343,3-3V3C16,1.343,14.657,0,13,0z M14,13c0,0.553-0.447,1-1,1H3c-0.552,0-1-0.447-1-1V3c0-0.552,0.448-1,1-1h10
		c0.553,0,1,0.448,1,1V13z"/>
	<rect x="3" y="3" fill-rule="evenodd" clip-rule="evenodd" fill="#231F20" width="10" height="1"/>
	<path fill-rule="evenodd" clip-rule="evenodd" fill="#231F20" d="M10,9H6C5.596,9,5.23,9.243,5.076,9.617
		c-0.154,0.373-0.069,0.805,0.217,1.09l2,1.999C7.488,12.901,7.744,13,8,13s0.512-0.099,0.707-0.294l2-2
		c0.285-0.285,0.371-0.714,0.217-1.089C10.77,9.243,10.404,9,10,9z"/>
</g>
</svg>
