<?xml version="1.0" encoding="utf-8"?>
<!-- Generator: Adobe Illustrator 15.1.0, SVG Export Plug-In . SVG Version: 6.00 Build 0)  -->
<!DOCTYPE svg PUBLIC "-//W3C//DTD SVG 1.1//EN" "http://www.w3.org/Graphics/SVG/1.1/DTD/svg11.dtd">
<svg version="1.1" id="Layer_1" xmlns="http://www.w3.org/2000/svg" xmlns:xlink="http://www.w3.org/1999/xlink" x="0px" y="0px"
	 width="16px" height="16px" viewBox="0 0 16 16" enable-background="new 0 0 16 16" xml:space="preserve">
<path fill-rule="evenodd" clip-rule="evenodd" fill="#231F20" d="M8,16c-3.313,0-6-2.686-6-6c0-0.553,0.448-1,1-1s1,0.447,1,1
	c0,2.209,1.791,4,4,4s4-1.791,4-4c0-0.553,0.447-1,1-1s1,0.447,1,1C14,13.314,11.313,16,8,16z M9.5,2C9.225,2,9,2.224,9,2.5
	C9,2.776,9.225,3,9.5,3H11v1H9.5C9.225,4,9,4.224,9,4.5C9,4.776,9.225,5,9.5,5H11v1H9.5C9.225,6,9,6.224,9,6.5
	C9,6.776,9.225,7,9.5,7H11v1H9.5C9.225,8,9,8.224,9,8.5C9,8.776,9.225,9,9.5,9H11v1c0,1.656-1.344,3-3,3c-1.657,0-3-1.344-3-3V9h1.5
	C6.776,9,7,8.776,7,8.5C7,8.224,6.776,8,6.5,8H5V7h1.5C6.776,7,7,6.776,7,6.5C7,6.224,6.776,6,6.5,6H5V5h1.5C6.776,5,7,4.776,7,4.5
	C7,4.224,6.776,4,6.5,4H5V3h1.5C6.776,3,7,2.776,7,2.5C7,2.224,6.776,2,6.5,2H5.184C5.597,0.837,6.696,0,8,0
	c1.305,0,2.403,0.837,2.816,2H9.5z"/>
</svg>
