<?xml version="1.0" encoding="utf-8"?>
<!-- Generator: Adobe Illustrator 15.1.0, SVG Export Plug-In . SVG Version: 6.00 Build 0)  -->
<!DOCTYPE svg PUBLIC "-//W3C//DTD SVG 1.1//EN" "http://www.w3.org/Graphics/SVG/1.1/DTD/svg11.dtd">
<svg version="1.1" id="Layer_1" xmlns="http://www.w3.org/2000/svg" xmlns:xlink="http://www.w3.org/1999/xlink" x="0px" y="0px"
	 width="16px" height="16px" viewBox="0 0 16 16" enable-background="new 0 0 16 16" xml:space="preserve">
<path fill-rule="evenodd" clip-rule="evenodd" fill="#231F20" d="M9,8.5C9,8.776,9.225,9,9.5,9H12c0,1.305-0.838,2.403-2,2.816V10.5
	c0-0.275-0.225-0.5-0.5-0.5S9,10.225,9,10.5V14c0,0.553-0.448,1-1,1s-1-0.447-1-1v-3.5C7,10.225,6.776,10,6.5,10
	C6.224,10,6,10.225,6,10.5v1.316C4.837,11.403,4,10.305,4,9h2.5C6.776,9,7,8.776,7,8.5C7,8.224,6.776,8,6.5,8H4V7h1.5
	C5.776,7,6,6.776,6,6.5C6,6.224,5.776,6,5.5,6H4V5h2.5C6.776,5,7,4.776,7,4.5C7,4.224,6.776,4,6.5,4H4l0,0
	c0-1.304,0.837-2.403,2-2.816V2.5C6,2.776,6.224,3,6.5,3C6.776,3,7,2.776,7,2.5V1h2v1.5C9,2.776,9.225,3,9.5,3S10,2.776,10,2.5
	V1.184C11.162,1.597,12,2.696,12,4l0,0H9.5C9.225,4,9,4.224,9,4.5C9,4.776,9.225,5,9.5,5H12v1h-1.5C10.225,6,10,6.224,10,6.5
	C10,6.776,10.225,7,10.5,7H12v1H9.5C9.225,8,9,8.224,9,8.5z M8.5,6h-1C7.224,6,7,6.224,7,6.5C7,6.776,7.224,7,7.5,7h1
	C8.776,7,9,6.776,9,6.5C9,6.224,8.776,6,8.5,6z"/>
</svg>
