<?xml version="1.0" encoding="utf-8"?>
<!-- Generator: Adobe Illustrator 15.1.0, SVG Export Plug-In . SVG Version: 6.00 Build 0)  -->
<!DOCTYPE svg PUBLIC "-//W3C//DTD SVG 1.1//EN" "http://www.w3.org/Graphics/SVG/1.1/DTD/svg11.dtd">
<svg version="1.1" id="Layer_1" xmlns="http://www.w3.org/2000/svg" xmlns:xlink="http://www.w3.org/1999/xlink" x="0px" y="0px"
	 width="16px" height="16px" viewBox="0 0 16 16" enable-background="new 0 0 16 16" xml:space="preserve">
<path fill-rule="evenodd" clip-rule="evenodd" fill="#231F20" d="M13,16H3c-1.657,0-3-1.344-3-3V3c0-1.657,1.343-3,3-3h10
	c1.657,0,3,1.343,3,3v10C16,14.656,14.657,16,13,16z M14,3c0-0.552-0.447-1-1-1H3C2.447,2,2,2.448,2,3v10c0,0.553,0.447,1,1,1h10
	c0.553,0,1-0.447,1-1V3z M11,11v1.5c0,0.276-0.224,0.5-0.5,0.5S10,12.776,10,12.5V11c-0.553,0-1-0.447-1-1V9c0-0.552,0.447-1,1-1
	V3.5C10,3.224,10.224,3,10.5,3S11,3.224,11,3.5V8c0.553,0,1,0.448,1,1v1C12,10.553,11.553,11,11,11z M6,8v4.5
	C6,12.776,5.776,13,5.5,13S5,12.776,5,12.5V8C4.447,8,4,7.552,4,7V6c0-0.552,0.447-1,1-1V3.5C5,3.224,5.224,3,5.5,3S6,3.224,6,3.5V5
	c0.553,0,1,0.448,1,1v1C7,7.552,6.553,8,6,8z"/>
</svg>
