<?xml version="1.0" encoding="utf-8"?>
<!-- Generator: Adobe Illustrator 15.1.0, SVG Export Plug-In . SVG Version: 6.00 Build 0)  -->
<!DOCTYPE svg PUBLIC "-//W3C//DTD SVG 1.1//EN" "http://www.w3.org/Graphics/SVG/1.1/DTD/svg11.dtd">
<svg version="1.1" id="Layer_1" xmlns="http://www.w3.org/2000/svg" xmlns:xlink="http://www.w3.org/1999/xlink" x="0px" y="0px"
	 width="16px" height="16px" viewBox="0 0 16 16" enable-background="new 0 0 16 16" xml:space="preserve">
<path fill-rule="evenodd" clip-rule="evenodd" fill="#231F20" d="M13,16H3c-1.657,0-3-1.343-3-3V0h12v1h2l0,0v1h1h1v11
	C16,14.657,14.657,16,13,16z M10,2H2v11c0,0.553,0.447,1,1,1h7V2z M15,3h-1v9.5c0,0.276-0.224,0.5-0.5,0.5S13,12.776,13,12.5V2h-1
	v10.5c0,0.828,0.672,1.5,1.5,1.5s1.5-0.672,1.5-1.5V3z M3,12h3v1H3V12z M3,10h4v1H3V10z M9,11H8v-1h1V11z M7,8h2v1H7V8z M3,3h6v4H3
	V3z M6,9H3V8h3V9z"/>
</svg>
