<?xml version="1.0" encoding="utf-8"?>
<!-- Generator: Adobe Illustrator 15.1.0, SVG Export Plug-In . SVG Version: 6.00 Build 0)  -->
<!DOCTYPE svg PUBLIC "-//W3C//DTD SVG 1.1//EN" "http://www.w3.org/Graphics/SVG/1.1/DTD/svg11.dtd">
<svg version="1.1" id="Layer_1" xmlns="http://www.w3.org/2000/svg" xmlns:xlink="http://www.w3.org/1999/xlink" x="0px" y="0px"
	 width="16px" height="16px" viewBox="0 0 16 16" enable-background="new 0 0 16 16" xml:space="preserve">
<path fill-rule="evenodd" clip-rule="evenodd" fill="#231F20" d="M14.479,6.479L9.505,1.505L11,0l5,5L14.479,6.479z M12.999,7.92
	C12.965,7.953,12.938,7.971,12.906,8H12h-1l-1,4l-8,4H1l3.18-3.18C4.431,12.934,4.707,13,5,13c1.104,0,2-0.896,2-2S6.104,9,5,9
	s-2,0.896-2,2c0,0.293,0.066,0.569,0.18,0.82L0,15v-1l4-8l4-1V4V3.028C8.019,3.008,8.028,2.991,8.049,2.97l0.459-0.462l4.958,4.958
	L12.999,7.92z"/>
</svg>
