<?xml version="1.0" encoding="utf-8"?>
<!-- Generator: Adobe Illustrator 15.1.0, SVG Export Plug-In . SVG Version: 6.00 Build 0)  -->
<!DOCTYPE svg PUBLIC "-//W3C//DTD SVG 1.1//EN" "http://www.w3.org/Graphics/SVG/1.1/DTD/svg11.dtd">
<svg version="1.1" id="Layer_1" xmlns="http://www.w3.org/2000/svg" xmlns:xlink="http://www.w3.org/1999/xlink" x="0px" y="0px"
	 width="16px" height="16px" viewBox="0 0 16 16" enable-background="new 0 0 16 16" xml:space="preserve">
<path fill-rule="evenodd" clip-rule="evenodd" fill="#231F20" d="M8,16c-4.418,0-8-3.582-8-8s3.582-8,8-8c4.418,0,8,3.582,8,8
	S12.418,16,8,16z M8,14c1.295,0,2.487-0.42,3.468-1.118l-8.35-8.35C2.42,5.513,2,6.705,2,8C2,11.313,4.687,14,8,14z M8,2
	C6.705,2,5.513,2.42,4.532,3.118l8.35,8.35C13.58,10.487,14,9.296,14,8C14,4.687,11.313,2,8,2z"/>
</svg>
