<?xml version="1.0" encoding="utf-8"?>
<!-- Generator: Adobe Illustrator 15.1.0, SVG Export Plug-In . SVG Version: 6.00 Build 0)  -->
<!DOCTYPE svg PUBLIC "-//W3C//DTD SVG 1.1//EN" "http://www.w3.org/Graphics/SVG/1.1/DTD/svg11.dtd">
<svg version="1.1" id="Layer_1" xmlns="http://www.w3.org/2000/svg" xmlns:xlink="http://www.w3.org/1999/xlink" x="0px" y="0px"
	 width="16px" height="16px" viewBox="0 0 16 16" enable-background="new 0 0 16 16" xml:space="preserve">
<path fill-rule="evenodd" clip-rule="evenodd" fill="#231F20" d="M13,16H3c-1.657,0-3-1.344-3-3V3c0-1.304,0.838-2.403,2-2.816V1.5
	C2,2.329,2.672,3,3.5,3S5,2.329,5,1.5V0h6v1.5C11,2.329,11.672,3,12.5,3S14,2.329,14,1.5V0.184C15.162,0.597,16,1.696,16,3v10
	C16,14.656,14.657,16,13,16z M14,5H2v8c0,0.553,0.447,1,1,1h10c0.553,0,1-0.447,1-1V5z M3,10h10v1H3V10z M3,8h10v1H3V8z M3,6h10v1H3
	V6z M8,13H3v-1h5V13z M12.5,2C12.224,2,12,1.776,12,1.5V0h1v1.5C13,1.776,12.776,2,12.5,2z M3.5,2C3.224,2,3,1.776,3,1.5V0h1v1.5
	C4,1.776,3.776,2,3.5,2z"/>
</svg>
