<?xml version="1.0" encoding="utf-8"?>
<!-- Generator: Adobe Illustrator 15.1.0, SVG Export Plug-In . SVG Version: 6.00 Build 0)  -->
<!DOCTYPE svg PUBLIC "-//W3C//DTD SVG 1.1//EN" "http://www.w3.org/Graphics/SVG/1.1/DTD/svg11.dtd">
<svg version="1.1" id="Layer_1" xmlns="http://www.w3.org/2000/svg" xmlns:xlink="http://www.w3.org/1999/xlink" x="0px" y="0px"
	 width="16px" height="16px" viewBox="0 0 16 16" enable-background="new 0 0 16 16" xml:space="preserve">
<g>
	<path fill-rule="evenodd" clip-rule="evenodd" fill="#231F20" d="M13,0H3C1.343,0,0,1.343,0,3v1.757l0.879-0.879
		C1.201,3.557,1.585,3.329,2,3.182V3c0-0.552,0.448-1,1-1h10c0.553,0,1,0.448,1,1v10c0,0.553-0.447,1-1,1H3c-0.552,0-1-0.447-1-1
		v-0.183c-0.416-0.147-0.8-0.376-1.121-0.697L0,11.241V13c0,1.657,1.343,3,3,3h10c1.657,0,3-1.343,3-3V3C16,1.343,14.657,0,13,0z"/>
	<path fill-rule="evenodd" clip-rule="evenodd" fill="#231F20" d="M3.383,5.075c-0.374-0.154-0.804-0.069-1.09,0.217l-2,2
		C0.098,7.487,0,7.743,0,7.999s0.098,0.512,0.293,0.707l2,2c0.286,0.285,0.716,0.371,1.09,0.217C3.756,10.769,4,10.403,4,9.999V9h3
		c0.553,0,1-0.447,1-1c0-0.552-0.447-1-1-1H4V5.999C4,5.595,3.756,5.229,3.383,5.075z"/>
</g>
</svg>
