<?xml version="1.0" encoding="utf-8"?>
<!-- Generator: Adobe Illustrator 15.1.0, SVG Export Plug-In . SVG Version: 6.00 Build 0)  -->
<!DOCTYPE svg PUBLIC "-//W3C//DTD SVG 1.1//EN" "http://www.w3.org/Graphics/SVG/1.1/DTD/svg11.dtd">
<svg version="1.1" id="Layer_1" xmlns="http://www.w3.org/2000/svg" xmlns:xlink="http://www.w3.org/1999/xlink" x="0px" y="0px"
	 width="16px" height="16px" viewBox="0 0 16 16" enable-background="new 0 0 16 16" xml:space="preserve">
<path fill-rule="evenodd" clip-rule="evenodd" fill="#231F20" d="M13,16H3c-1.657,0-3-1.343-3-3v-3l4-4h1v2H4.829L2,11h3v1
	c0,0.553,0.448,1,1,1h4c0.553,0,1-0.447,1-1v-1h3l-2.828-3H11V6h1l4,4v3C16,14.657,14.657,16,13,16z M10,4H9v3c0,0.552-0.447,1-1,1
	C7.448,8,7,7.552,7,7V4H6C5.596,4,5.23,3.756,5.076,3.383c-0.154-0.374-0.068-0.804,0.217-1.09l2-2C7.488,0.098,7.744,0,8,0
	s0.512,0.098,0.707,0.293l2,2c0.286,0.286,0.371,0.716,0.217,1.09C10.77,3.756,10.404,4,10,4z"/>
</svg>
