<?xml version="1.0" encoding="utf-8"?>
<!-- Generator: Adobe Illustrator 15.1.0, SVG Export Plug-In . SVG Version: 6.00 Build 0)  -->
<!DOCTYPE svg PUBLIC "-//W3C//DTD SVG 1.1//EN" "http://www.w3.org/Graphics/SVG/1.1/DTD/svg11.dtd">
<svg version="1.1" id="Layer_1" xmlns="http://www.w3.org/2000/svg" xmlns:xlink="http://www.w3.org/1999/xlink" x="0px" y="0px"
	 width="16px" height="16px" viewBox="0 0 16 16" enable-background="new 0 0 16 16" xml:space="preserve">
<g>
	<polygon fill-rule="evenodd" clip-rule="evenodd" fill="#231F20" points="13,13 11,10 5,10 3,13 	"/>
	<path fill-rule="evenodd" clip-rule="evenodd" fill="#231F20" d="M6,4h1v3c0,0.553,0.448,1,1,1c0.553,0,1-0.447,1-1V4h1
		c0.404,0,0.77-0.244,0.924-0.617c0.039-0.094,0.062-0.191,0.071-0.288c0.027-0.292-0.074-0.588-0.288-0.803l-2-2
		C8.512,0.097,8.256-0.001,8-0.001S7.488,0.097,7.293,0.292l-2,2c-0.215,0.215-0.316,0.51-0.288,0.803
		c0.009,0.097,0.033,0.194,0.071,0.288C5.23,3.756,5.596,4,6,4z"/>
	<path fill-rule="evenodd" clip-rule="evenodd" fill="#231F20" d="M13,0h-1.757l0.878,0.878C12.445,1.203,12.683,1.587,12.829,2H13
		c0.553,0,1,0.448,1,1v10c0,0.553-0.447,1-1,1H3c-0.552,0-1-0.447-1-1V3c0-0.552,0.448-1,1-1h0.17
		c0.146-0.414,0.384-0.798,0.708-1.122L4.757,0H3C1.343,0,0,1.343,0,3v10c0,1.657,1.343,3,3,3h10c1.657,0,3-1.343,3-3V3
		C16,1.343,14.657,0,13,0z"/>
</g>
</svg>
