<?xml version="1.0" encoding="utf-8"?>
<!-- Generator: Adobe Illustrator 15.1.0, SVG Export Plug-In . SVG Version: 6.00 Build 0)  -->
<!DOCTYPE svg PUBLIC "-//W3C//DTD SVG 1.1//EN" "http://www.w3.org/Graphics/SVG/1.1/DTD/svg11.dtd">
<svg version="1.1" id="Layer_1" xmlns="http://www.w3.org/2000/svg" xmlns:xlink="http://www.w3.org/1999/xlink" x="0px" y="0px"
	 width="16px" height="16px" viewBox="0 0 16 16" enable-background="new 0 0 16 16" xml:space="preserve">
<path fill-rule="evenodd" clip-rule="evenodd" fill="#231F20" d="M16.888,11.212c-0.001-0.003-0.003-0.005-0.004-0.009l0.006-0.002
	C16.889,11.204,16.889,11.209,16.888,11.212z M13,16H3c-1.657,0-3-1.344-3-3V3c0-1.657,1.343-3,3-3h5v2H3C2.447,2,2,2.448,2,3v10
	c0,0.553,0.447,1,1,1h10c0.553,0,1-0.447,1-1v-2.666l2-1.667V13C16,14.656,14.657,16,13,16z M10,7.042
	C6.764,7.26,4.129,9.653,3.581,12.788C3.209,11.934,3,10.992,3,10c0-3.866,3.134-7,7-7V0l6,5l-6,5V7.042z"/>
</svg>
