<?xml version="1.0" encoding="utf-8"?>
<!-- Generator: Adobe Illustrator 15.1.0, SVG Export Plug-In . SVG Version: 6.00 Build 0)  -->
<!DOCTYPE svg PUBLIC "-//W3C//DTD SVG 1.1//EN" "http://www.w3.org/Graphics/SVG/1.1/DTD/svg11.dtd">
<svg version="1.1" id="Layer_1" xmlns="http://www.w3.org/2000/svg" xmlns:xlink="http://www.w3.org/1999/xlink" x="0px" y="0px"
	 width="16px" height="16px" viewBox="0 0 16 16" enable-background="new 0 0 16 16" xml:space="preserve">
<path fill-rule="evenodd" clip-rule="evenodd" fill="#231F20" d="M16,16L16,16L16,16L16,16L16,16z M12,8v8l-2-2l-2,2l-2-2l-2,2l-2-2
	l-2,2l0,0l0,0V3c0-1.657,1.343-3,3-3h9c2.209,0,4,1.791,4,4S14.209,8,12,8z M10,2H3C2.448,2,2,2.448,2,3v8l2,2l2-2l2,2l2-2l0,0V2z
	 M12,2v4c1.104,0,2-0.896,2-2S13.104,2,12,2z M4,8h4v1H4V8z M4,6h4v1H4V6z M4,4h4v1H4V4z"/>
</svg>
