<?xml version="1.0" encoding="utf-8"?>
<!-- Generator: Adobe Illustrator 15.1.0, SVG Export Plug-In . SVG Version: 6.00 Build 0)  -->
<!DOCTYPE svg PUBLIC "-//W3C//DTD SVG 1.1//EN" "http://www.w3.org/Graphics/SVG/1.1/DTD/svg11.dtd">
<svg version="1.1" id="Layer_1" xmlns="http://www.w3.org/2000/svg" xmlns:xlink="http://www.w3.org/1999/xlink" x="0px" y="0px"
	 width="16px" height="16px" viewBox="0 0 16 16" enable-background="new 0 0 16 16" xml:space="preserve">
<path fill-rule="evenodd" clip-rule="evenodd" fill="#231F20" d="M16,16L16,16l-2-2l-2,2l-2-2l-2,2l-2-2l-2,2l-2-2l-2,2l0,0l0,0V3
	c0-1.657,1.343-3,3-3h10c1.656,0,3,1.343,3,3V16L16,16z M14,9V3c0-0.552-0.447-1-1-1H3C2.448,2,2,2.448,2,3v6v2l2,2l2-2l2,2l2-2l2,2
	l2-2V9z M4,8h8v1H4V8z M4,6h8v1H4V6z M4,4h8v1H4V4z"/>
</svg>
