<?xml version="1.0" encoding="utf-8"?>
<!-- Generator: Adobe Illustrator 15.1.0, SVG Export Plug-In . SVG Version: 6.00 Build 0)  -->
<!DOCTYPE svg PUBLIC "-//W3C//DTD SVG 1.1//EN" "http://www.w3.org/Graphics/SVG/1.1/DTD/svg11.dtd">
<svg version="1.1" id="Layer_1" xmlns="http://www.w3.org/2000/svg" xmlns:xlink="http://www.w3.org/1999/xlink" x="0px" y="0px"
	 width="16px" height="16px" viewBox="0 0 16 16" enable-background="new 0 0 16 16" xml:space="preserve">
<path fill-rule="evenodd" clip-rule="evenodd" fill="#231F20" d="M12,8c-0.732,0-1.41-0.211-2-0.555V14v2H8H2H0v-2V4
	c0-2.209,1.791-4,4-4h8l0,0c2.209,0,4,1.791,4,4S14.209,8,12,8z M4,2C2.896,2,2,2.896,2,4l0,0v10h6V4c0-0.732,0.211-1.409,0.555-2H4
	z M12,2c-1.104,0-2,0.896-2,2s0.896,2,2,2s2-0.896,2-2S13.104,2,12,2z M3,12h4v1H3V12z M3,9h4v1H3V9z M3,6h4v1H3V6z M3,3h4v1H3V3z"
	/>
</svg>
