<?xml version="1.0" encoding="utf-8"?>
<!-- Generator: Adobe Illustrator 15.1.0, SVG Export Plug-In . SVG Version: 6.00 Build 0)  -->
<!DOCTYPE svg PUBLIC "-//W3C//DTD SVG 1.1//EN" "http://www.w3.org/Graphics/SVG/1.1/DTD/svg11.dtd">
<svg version="1.1" id="Layer_1" xmlns="http://www.w3.org/2000/svg" xmlns:xlink="http://www.w3.org/1999/xlink" x="0px" y="0px"
	 width="16px" height="16px" viewBox="0 0 16 16" enable-background="new 0 0 16 16" xml:space="preserve">
<path fill-rule="evenodd" clip-rule="evenodd" fill="#231F20" d="M12.95,4.051c-2.734-2.734-7.166-2.734-9.899,0L1.636,2.636
	c3.515-3.515,9.214-3.515,12.729,0L12.95,4.051z M5.172,6.172L3.758,4.757c2.343-2.343,6.142-2.343,8.484,0l-1.414,1.415
	C9.267,4.609,6.733,4.609,5.172,6.172z M13,15c0,0.553-0.447,1-1,1H4c-0.553,0-1-0.447-1-1v-1c0.29-1.425,1.285-2.63,2.506-3.334
	C5.188,10.189,5,9.617,5,9c0-1.657,1.343-3,3-3s3,1.343,3,3c0,0.617-0.188,1.189-0.506,1.666C11.715,11.37,12.71,12.575,13,14V15z
	 M8,8C7.447,8,7,8.447,7,9s0.447,1,1,1s1-0.447,1-1S8.553,8,8,8z M10.816,14C10.403,12.838,9.305,12,8,12s-2.403,0.838-2.816,2
	H10.816z"/>
</svg>
