<?xml version="1.0" encoding="utf-8"?>
<!-- Generator: Adobe Illustrator 15.1.0, SVG Export Plug-In . SVG Version: 6.00 Build 0)  -->
<!DOCTYPE svg PUBLIC "-//W3C//DTD SVG 1.1//EN" "http://www.w3.org/Graphics/SVG/1.1/DTD/svg11.dtd">
<svg version="1.1" id="Layer_1" xmlns="http://www.w3.org/2000/svg" xmlns:xlink="http://www.w3.org/1999/xlink" x="0px" y="0px"
	 width="16px" height="16px" viewBox="0 0 16 16" enable-background="new 0 0 16 16" xml:space="preserve">
<path fill-rule="evenodd" clip-rule="evenodd" fill="#231F20" d="M12,14.921V14c0-0.477-0.098-0.927-0.25-1.351
	C13.111,11.55,14,9.887,14,8c0-3.313-2.687-6-6-6S2,4.687,2,8c0,1.887,0.889,3.55,2.25,4.649C4.098,13.073,4,13.523,4,14v0.921
	C1.611,13.537,0,10.959,0,8c0-4.418,3.582-8,8-8s8,3.582,8,8C16,10.959,14.389,13.537,12,14.921z M8,3c2.762,0,5,2.238,5,5
	c0,1.494-0.668,2.819-1.706,3.735c-0.388-0.562-0.921-1.009-1.538-1.312C10.507,9.877,11,8.999,11,8c0-1.657-1.343-3-3-3
	S5,6.343,5,8c0,0.999,0.493,1.877,1.244,2.423c-0.617,0.304-1.15,0.75-1.538,1.312C3.668,10.819,3,9.494,3,8C3,5.238,5.238,3,8,3z
	 M6,8c0-1.104,0.896-2,2-2s2,0.896,2,2s-0.896,2-2,2S6,9.104,6,8z M8,11c1.657,0,3,1.343,3,3v2H5v-2C5,12.343,6.343,11,8,11z"/>
</svg>
