<?xml version="1.0" encoding="utf-8"?>
<!-- Generator: Adobe Illustrator 15.1.0, SVG Export Plug-In . SVG Version: 6.00 Build 0)  -->
<!DOCTYPE svg PUBLIC "-//W3C//DTD SVG 1.1//EN" "http://www.w3.org/Graphics/SVG/1.1/DTD/svg11.dtd">
<svg version="1.1" id="Layer_1" xmlns="http://www.w3.org/2000/svg" xmlns:xlink="http://www.w3.org/1999/xlink" x="0px" y="0px"
	 width="16px" height="16px" viewBox="0 0 16 16" enable-background="new 0 0 16 16" xml:space="preserve">
<path fill-rule="evenodd" clip-rule="evenodd" fill="#231F20" d="M13,16H3c-1.657,0-3-1.344-3-3V3c0-1.657,1.343-3,3-3h10
	c1.657,0,3,1.343,3,3v10C16,14.656,14.657,16,13,16z M14,3c0-0.552-0.447-1-1-1H3C2.448,2,2,2.448,2,3v9h12V3z M6.556,7.378
	C6.213,7.019,6,6.536,6,6V5c0-1.104,0.896-2,2-2s2,0.896,2,2v1c0,0.536-0.213,1.019-0.556,1.378C10.229,7.812,10.847,8.583,11,9.5
	l0,0c0,0.828-0.672,1.5-1.5,1.5h-3C5.671,11,5,10.328,5,9.5l0,0C5.155,8.583,5.772,7.812,6.556,7.378z"/>
</svg>
