<?xml version="1.0" encoding="utf-8"?>
<!-- Generator: Adobe Illustrator 15.1.0, SVG Export Plug-In . SVG Version: 6.00 Build 0)  -->
<!DOCTYPE svg PUBLIC "-//W3C//DTD SVG 1.1//EN" "http://www.w3.org/Graphics/SVG/1.1/DTD/svg11.dtd">
<svg version="1.1" id="Layer_1" xmlns="http://www.w3.org/2000/svg" xmlns:xlink="http://www.w3.org/1999/xlink" x="0px" y="0px"
	 width="16px" height="16px" viewBox="0 0 16 16" enable-background="new 0 0 16 16" xml:space="preserve">
<path fill-rule="evenodd" clip-rule="evenodd" fill="#231F20" d="M8,16c-3.866,0-7-3.134-7-7c0-2.787,1.641-5.166,4-6.286v2.307
	C3.79,5.932,3,7.369,3,9c0,2.762,2.238,5,5,5s5-2.238,5-5c0-1.631-0.79-3.068-2-3.979V2.714c2.359,1.121,4,3.5,4,6.286
	C15,12.866,11.866,16,8,16z M9,7c0,0.552-0.447,1-1,1S7,7.552,7,7V1c0-0.552,0.447-1,1-1s1,0.448,1,1V7z"/>
</svg>
