<?xml version="1.0" encoding="utf-8"?>
<!-- Generator: Adobe Illustrator 15.1.0, SVG Export Plug-In . SVG Version: 6.00 Build 0)  -->
<!DOCTYPE svg PUBLIC "-//W3C//DTD SVG 1.1//EN" "http://www.w3.org/Graphics/SVG/1.1/DTD/svg11.dtd">
<svg version="1.1" id="Layer_1" xmlns="http://www.w3.org/2000/svg" xmlns:xlink="http://www.w3.org/1999/xlink" x="0px" y="0px"
	 width="16px" height="16px" viewBox="0 0 16 16" enable-background="new 0 0 16 16" xml:space="preserve">
<path fill-rule="evenodd" clip-rule="evenodd" fill="#231F20" d="M13,14v1c0,0.553-0.447,1-1,1H4c-0.552,0-1-0.447-1-1v-1
	c-1.657,0-3-1.343-3-3V8c0-1.657,1.343-3,3-3V1c0-0.553,0.448-1,1-1h8c0.553,0,1,0.447,1,1v4c1.656,0,3,1.343,3,3v3
	C16,12.657,14.656,14,13,14z M4,15h8v-4H4V15z M12,1H4v4h1V2h6v3h1V1z M6,3v2h4V3H6z M12,7h-1v1h1V7z M12,9H4c-1.104,0-2,0.896-2,2
	v1h1v-1c0-0.553,0.448-1,1-1h8c0.553,0,1,0.447,1,1v1h1v-1C14,9.896,13.104,9,12,9z M14,7h-1v1h1V7z"/>
</svg>
