<?xml version="1.0" encoding="utf-8"?>
<!-- Generator: Adobe Illustrator 15.1.0, SVG Export Plug-In . SVG Version: 6.00 Build 0)  -->
<!DOCTYPE svg PUBLIC "-//W3C//DTD SVG 1.1//EN" "http://www.w3.org/Graphics/SVG/1.1/DTD/svg11.dtd">
<svg version="1.1" id="Layer_1" xmlns="http://www.w3.org/2000/svg" xmlns:xlink="http://www.w3.org/1999/xlink" x="0px" y="0px"
	 width="16px" height="16px" viewBox="0 0 16 16" enable-background="new 0 0 16 16" xml:space="preserve">
<path fill-rule="evenodd" clip-rule="evenodd" fill="#231F20" d="M13,6c-0.376,0-0.729-0.084-1.059-0.212
	C11.804,6.474,11.227,7,10.5,7c-0.253,0-0.479-0.078-0.688-0.188C9.922,7.021,10,7.248,10,7.5C10,8.328,9.328,9,8.5,9
	C8.248,9,8.021,8.922,7.812,8.812C7.922,9.021,8,9.248,8,9.5C8,10.328,7.329,11,6.5,11S5,10.328,5,9.5
	c0-0.015,0.008-0.026,0.008-0.041C3.19,11.176,1.638,13.086,1,15v0.5C1,15.776,0.776,16,0.5,16C0.224,16,0,15.776,0,15.5V15
	C0,15,4,0,13,0l0,0c1.657,0,3,1.343,3,3S14.657,6,13,6z"/>
</svg>
