<?xml version="1.0" encoding="utf-8"?>
<!-- Generator: Adobe Illustrator 15.1.0, SVG Export Plug-In . SVG Version: 6.00 Build 0)  -->
<!DOCTYPE svg PUBLIC "-//W3C//DTD SVG 1.1//EN" "http://www.w3.org/Graphics/SVG/1.1/DTD/svg11.dtd">
<svg version="1.1" id="Layer_1" xmlns="http://www.w3.org/2000/svg" xmlns:xlink="http://www.w3.org/1999/xlink" x="0px" y="0px"
	 width="16px" height="16px" viewBox="0 0 16 16" enable-background="new 0 0 16 16" xml:space="preserve">
<path fill-rule="evenodd" clip-rule="evenodd" fill="#231F20" d="M14.924,8.617C14.77,8.244,14.404,8,14,8h-1c0-3.313-2.687-6-6-6
	S1,4.687,1,8s2.687,6,6,6c1.085,0,2.101-0.293,2.979-0.797l-1.508-1.49C8.014,11.894,7.521,12,7,12c-2.209,0-4-1.791-4-4
	s1.791-4,4-4s4,1.791,4,4h-1C9.596,8,9.23,8.244,9.076,8.617c-0.154,0.374-0.069,0.804,0.217,1.09l2,2
	C11.488,11.902,11.744,12,12,12s0.512-0.098,0.707-0.293l2-2C14.993,9.421,15.079,8.991,14.924,8.617z"/>
</svg>
