<?xml version="1.0" encoding="utf-8"?>
<!-- Generator: Adobe Illustrator 15.1.0, SVG Export Plug-In . SVG Version: 6.00 Build 0)  -->
<!DOCTYPE svg PUBLIC "-//W3C//DTD SVG 1.1//EN" "http://www.w3.org/Graphics/SVG/1.1/DTD/svg11.dtd">
<svg version="1.1" id="Layer_1" xmlns="http://www.w3.org/2000/svg" xmlns:xlink="http://www.w3.org/1999/xlink" x="0px" y="0px"
	 width="16px" height="16px" viewBox="0 0 16 16" enable-background="new 0 0 16 16" xml:space="preserve">
<path fill-rule="evenodd" clip-rule="evenodd" fill="#231F20" d="M14,6.627V3c0-0.552-0.447-1-1-1H5C4.447,2,4,2.448,4,3v10
	c0,0.553,0.447,1,1,1h1.627c0.41,0.798,0.995,1.488,1.725,2H5c-1.657,0-3-1.344-3-3l0,0H1c-0.553,0-1-0.447-1-1s0.447-1,1-1h1V9H1
	C0.447,9,0,8.552,0,8s0.447-1,1-1h1V5H1C0.447,5,0,4.552,0,4s0.447-1,1-1h1l0,0c0-1.657,1.343-3,3-3h8c1.657,0,3,1.343,3,3v5.352
	C15.488,7.622,14.798,7.038,14,6.627z M5,7h3.352C7.95,7.281,7.603,7.625,7.29,8H5V7z M5,9h1.627c-0.163,0.317-0.294,0.65-0.394,1H5
	V9z M5,12v-1h1.051C6.035,11.168,6,11.328,6,11.5s0.035,0.333,0.051,0.5H5z M5,3h8v1H5V3z M13,6H5V5h8V6z M7,11.5
	C7,9.015,9.015,7,11.5,7S16,9.015,16,11.5S13.985,16,11.5,16S7,13.985,7,11.5z M11.5,14c1.381,0,2.5-1.119,2.5-2.5S12.881,9,11.5,9
	S9,10.119,9,11.5S10.119,14,11.5,14z M11.5,10c0.276,0,0.5,0.225,0.5,0.5V11h0.5c0.276,0,0.5,0.225,0.5,0.5
	c0,0.276-0.224,0.5-0.5,0.5h-1c-0.276,0-0.5-0.224-0.5-0.5v-1C11,10.225,11.224,10,11.5,10z"/>
</svg>
