<?xml version="1.0" encoding="utf-8"?>
<!-- Generator: Adobe Illustrator 15.1.0, SVG Export Plug-In . SVG Version: 6.00 Build 0)  -->
<!DOCTYPE svg PUBLIC "-//W3C//DTD SVG 1.1//EN" "http://www.w3.org/Graphics/SVG/1.1/DTD/svg11.dtd">
<svg version="1.1" id="Layer_1" xmlns="http://www.w3.org/2000/svg" xmlns:xlink="http://www.w3.org/1999/xlink" x="0px" y="0px"
	 width="16px" height="16px" viewBox="0 0 16 16" enable-background="new 0 0 16 16" xml:space="preserve">
<g>
	<path fill-rule="evenodd" clip-rule="evenodd" fill="#231F20" d="M15.924,6.617C15.77,6.244,15.404,6,15,6h-1V5
		c0-1.657-1.343-3-3-3H5C3.645,2,2.512,2.905,2.141,4.14C2.417,4.057,2.703,4,3,4c0.454,0,0.889,0.111,1.287,0.301
		C4.469,4.116,4.72,4,5,4h6c0.553,0,1,0.448,1,1v1h-1c-0.404,0-0.77,0.244-0.924,0.617c-0.154,0.374-0.069,0.804,0.217,1.09l2,2
		C12.488,9.902,12.744,10,13,10s0.512-0.098,0.707-0.293l2-2C15.993,7.421,16.079,6.991,15.924,6.617z"/>
	<path fill-rule="evenodd" clip-rule="evenodd" fill="#231F20" d="M11.713,11.699C11.531,11.884,11.28,12,11,12H5
		c-0.552,0-1-0.447-1-1v-1h1c0.404,0,0.77-0.244,0.924-0.617c0.155-0.374,0.069-0.804-0.217-1.09l-2-2C3.512,6.098,3.256,6,3,6
		S2.488,6.098,2.293,6.293l-2,2c-0.286,0.286-0.371,0.716-0.217,1.09C0.23,9.756,0.596,10,1,10h1v1c0,1.657,1.343,3,3,3h6
		c1.356,0,2.488-0.905,2.859-2.14C13.583,11.943,13.297,12,13,12C12.546,12,12.111,11.89,11.713,11.699z"/>
</g>
</svg>
