<?xml version="1.0" encoding="utf-8"?>
<!-- Generator: Adobe Illustrator 15.1.0, SVG Export Plug-In . SVG Version: 6.00 Build 0)  -->
<!DOCTYPE svg PUBLIC "-//W3C//DTD SVG 1.1//EN" "http://www.w3.org/Graphics/SVG/1.1/DTD/svg11.dtd">
<svg version="1.1" id="Layer_1" xmlns="http://www.w3.org/2000/svg" xmlns:xlink="http://www.w3.org/1999/xlink" x="0px" y="0px"
	 width="16px" height="16px" viewBox="0 0 16 16" enable-background="new 0 0 16 16" xml:space="preserve">
<path fill-rule="evenodd" clip-rule="evenodd" fill="#231F20" d="M13,2H5C4.448,2,4,2.448,4,3s0.448,1,1,1h8c0.553,0,1,0.448,1,1v4
	c0,0.553-0.447,1-1,1H4V9c0-0.404-0.244-0.77-0.617-0.924c-0.374-0.154-0.804-0.069-1.09,0.217l-2,2C0.098,10.488,0,10.744,0,11
	s0.098,0.512,0.293,0.707l2,2c0.286,0.285,0.716,0.371,1.09,0.217C3.756,13.77,4,13.404,4,13v-1h9c1.657,0,3-1.343,3-3V5
	C16,3.343,14.657,2,13,2z"/>
</svg>
