<?xml version="1.0" encoding="utf-8"?>
<!-- Generator: Adobe Illustrator 15.1.0, SVG Export Plug-In . SVG Version: 6.00 Build 0)  -->
<!DOCTYPE svg PUBLIC "-//W3C//DTD SVG 1.1//EN" "http://www.w3.org/Graphics/SVG/1.1/DTD/svg11.dtd">
<svg version="1.1" id="Layer_1" xmlns="http://www.w3.org/2000/svg" xmlns:xlink="http://www.w3.org/1999/xlink" x="0px" y="0px"
	 width="16px" height="16px" viewBox="0 0 16 16" enable-background="new 0 0 16 16" xml:space="preserve">
<path fill-rule="evenodd" clip-rule="evenodd" fill="#231F20" d="M15,16H4v-1h11V4h1v11v1H15z M15,3h-1V2h-1v1h-1V1h-1v2h-1V2H9v1H8
	V2H7v1H6V2H5v1H4V0h12v2h-1V3z M2,16H0V4h3v1H2v1h1v1H2v1h1v1H2v1h1v1H1v1h2v1H2v1h1v1H2V16z M0,0h3v3H0V0z"/>
</svg>
