<?xml version="1.0" encoding="utf-8"?>
<!-- Generator: Adobe Illustrator 15.1.0, SVG Export Plug-In . SVG Version: 6.00 Build 0)  -->
<!DOCTYPE svg PUBLIC "-//W3C//DTD SVG 1.1//EN" "http://www.w3.org/Graphics/SVG/1.1/DTD/svg11.dtd">
<svg version="1.1" id="Layer_1" xmlns="http://www.w3.org/2000/svg" xmlns:xlink="http://www.w3.org/1999/xlink" x="0px" y="0px"
	 width="16px" height="16px" viewBox="0 0 16 16" enable-background="new 0 0 16 16" xml:space="preserve">
<path fill-rule="evenodd" clip-rule="evenodd" fill="#231F20" d="M2.5,6C2.776,6,3,5.776,3,5.5S2.776,5,2.5,5C2.224,5,2,5.224,2,5.5
	S2.224,6,2.5,6z M2.5,10C2.224,10,2,10.224,2,10.5S2.224,11,2.5,11C2.776,11,3,10.776,3,10.5S2.776,10,2.5,10z M13,0H3
	C1.343,0,0,1.343,0,3v10c0,1.657,1.343,3,3,3h10c1.656,0,3-1.343,3-3V3C16,1.343,14.656,0,13,0z M14,13c0,0.553-0.447,1-1,1H3
	c-0.552,0-1-0.447-1-1v-1c-0.552,0-1-0.447-1-1v-1c0-0.552,0.448-1,1-1V7C1.448,7,1,6.553,1,6V5c0-0.552,0.448-1,1-1V3
	c0-0.552,0.448-1,1-1h10c0.553,0,1,0.448,1,1V13z M12,3H4C3.448,3,3,3.448,3,4c0.552,0,1,0.448,1,1v1c0,0.553-0.448,1-1,1v2
	c0.552,0,1,0.448,1,1v1c0,0.553-0.448,1-1,1c0,0.553,0.448,1,1,1h8c0.553,0,1-0.447,1-1V4C13,3.448,12.553,3,12,3z M8,11
	c-1.657,0-3-1.343-3-3s1.343-3,3-3c1.656,0,3,1.343,3,3S9.656,11,8,11z M8,6C6.896,6,6,6.896,6,8s0.896,2,2,2s2-0.896,2-2
	S9.104,6,8,6z"/>
</svg>
