<?xml version="1.0" encoding="utf-8"?>
<!-- Generator: Adobe Illustrator 15.1.0, SVG Export Plug-In . SVG Version: 6.00 Build 0)  -->
<!DOCTYPE svg PUBLIC "-//W3C//DTD SVG 1.1//EN" "http://www.w3.org/Graphics/SVG/1.1/DTD/svg11.dtd">
<svg version="1.1" id="Layer_1" xmlns="http://www.w3.org/2000/svg" xmlns:xlink="http://www.w3.org/1999/xlink" x="0px" y="0px"
	 width="16px" height="16px" viewBox="0 0 16 16" enable-background="new 0 0 16 16" xml:space="preserve">
<path fill-rule="evenodd" clip-rule="evenodd" fill="#231F20" d="M8,4c1.104,0,2.104,0.448,2.828,1.172C11.553,5.896,12,6.896,12,8
	c0,1.312-0.641,2.467-1.617,3.195C10.765,11.699,11,12.32,11,13c0,1.656-1.344,3-3,3c-1.657,0-3-1.344-3-3h2c0,0.553,0.448,1,1,1
	s1-0.447,1-1s-0.448-1-1-1c-1.104,0-2.104-0.447-2.829-1.172C4.448,10.104,4,9.104,4,8c0-1.312,0.641-2.466,1.617-3.196
	C5.235,4.301,5,3.681,5,3c0-1.657,1.343-3,3-3c1.656,0,3,1.343,3,3H9c0-0.552-0.448-1-1-1S7,2.448,7,3S7.448,4,8,4z M6,8
	c0,1.104,0.896,2,2,2s2-0.896,2-2S9.104,6,8,6S6,6.896,6,8z"/>
</svg>
