<?xml version="1.0" encoding="utf-8"?>
<!-- Generator: Adobe Illustrator 15.1.0, SVG Export Plug-In . SVG Version: 6.00 Build 0)  -->
<!DOCTYPE svg PUBLIC "-//W3C//DTD SVG 1.1//EN" "http://www.w3.org/Graphics/SVG/1.1/DTD/svg11.dtd">
<svg version="1.1" id="Layer_1" xmlns="http://www.w3.org/2000/svg" xmlns:xlink="http://www.w3.org/1999/xlink" x="0px" y="0px"
	 width="16px" height="16px" viewBox="0 0 16 16" enable-background="new 0 0 16 16" xml:space="preserve">
<path fill-rule="evenodd" clip-rule="evenodd" fill="#231F20" d="M15,11c0.553,0,1,0.447,1,1s-0.447,1-1,1h-0.184
	c-0.035,0.098-0.072,0.193-0.116,0.286l0.128,0.128c0.391,0.391,0.391,1.023,0,1.414s-1.023,0.391-1.414,0L13.286,14.7
	c-0.093,0.044-0.188,0.081-0.286,0.116V15c0,0.553-0.447,1-1,1s-1-0.447-1-1v-0.184c-0.098-0.035-0.193-0.072-0.286-0.116
	l-0.128,0.128c-0.391,0.391-1.023,0.391-1.414,0s-0.391-1.023,0-1.414L9.3,13.286C9.256,13.193,9.219,13.098,9.184,13H9
	c-0.553,0-1-0.447-1-1s0.447-1,1-1h0.184c0.035-0.098,0.072-0.193,0.116-0.286l-0.128-0.128c-0.391-0.391-0.391-1.023,0-1.414
	s1.023-0.391,1.414,0L10.714,9.3C10.807,9.256,10.902,9.219,11,9.184V9c0-0.552,0.447-1,1-1s1,0.448,1,1v0.184
	c0.098,0.035,0.193,0.072,0.286,0.116l0.128-0.128c0.391-0.391,1.023-0.391,1.414,0s0.391,1.023,0,1.414L14.7,10.714
	c0.044,0.093,0.081,0.188,0.116,0.286H15z M12,10c-1.104,0-2,0.896-2,2s0.896,2,2,2s2-0.896,2-2S13.104,10,12,10z M9,6H8.858
	C8.765,6.364,8.62,6.705,8.434,7.02l0.102,0.101c0.391,0.391,0.391,1.024,0,1.414c-0.391,0.391-1.023,0.391-1.414,0L7.02,8.434
	C6.705,8.62,6.364,8.765,6,8.858V9c0,0.553-0.448,1-1,1S4,9.553,4,9V8.858C3.636,8.765,3.295,8.62,2.98,8.434L2.879,8.535
	c-0.391,0.391-1.024,0.391-1.415,0c-0.391-0.39-0.391-1.023,0-1.414L1.566,7.02C1.379,6.705,1.236,6.364,1.142,6H1
	C0.448,6,0,5.552,0,5s0.448-1,1-1h0.142c0.094-0.364,0.238-0.705,0.424-1.02L1.464,2.879c-0.391-0.391-0.391-1.024,0-1.415
	s1.024-0.391,1.415,0L2.98,1.566C3.295,1.379,3.636,1.236,4,1.142V1c0-0.552,0.448-1,1-1s1,0.448,1,1v0.142
	c0.364,0.094,0.705,0.238,1.02,0.424l0.101-0.102c0.391-0.391,1.023-0.391,1.414,0s0.391,1.024,0,1.415L8.434,2.98
	C8.62,3.295,8.765,3.636,8.858,4H9c0.553,0,1,0.448,1,1S9.553,6,9,6z M5,3C3.896,3,3,3.896,3,5s0.896,2,2,2s2-0.896,2-2S6.104,3,5,3
	z"/>
</svg>
