<?xml version="1.0" encoding="utf-8"?>
<!-- Generator: Adobe Illustrator 15.1.0, SVG Export Plug-In . SVG Version: 6.00 Build 0)  -->
<!DOCTYPE svg PUBLIC "-//W3C//DTD SVG 1.1//EN" "http://www.w3.org/Graphics/SVG/1.1/DTD/svg11.dtd">
<svg version="1.1" id="Layer_1" xmlns="http://www.w3.org/2000/svg" xmlns:xlink="http://www.w3.org/1999/xlink" x="0px" y="0px"
	 width="16px" height="16px" viewBox="0 0 16 16" enable-background="new 0 0 16 16" xml:space="preserve">
<g>
	<g>
		<path fill-rule="evenodd" clip-rule="evenodd" fill="#231F20" d="M15,7h-1c-0.035,0-0.064,0.017-0.099,0.02
			c-0.152-0.923-0.509-1.772-1.031-2.502c0.025-0.021,0.056-0.029,0.08-0.053l0.707-0.707c0.391-0.391,0.391-1.023,0-1.414
			s-1.024-0.391-1.415,0L11.535,3.05c-0.023,0.023-0.032,0.055-0.053,0.08C10.753,2.607,9.903,2.251,8.98,2.099
			C8.983,2.064,9,2.035,9,2V1c0-0.552-0.447-1-1-1S7,0.448,7,1v1c0,0.035,0.017,0.064,0.02,0.099
			C6.097,2.251,5.247,2.607,4.518,3.13C4.497,3.105,4.488,3.074,4.465,3.05L3.758,2.343c-0.391-0.391-1.024-0.391-1.415,0
			c-0.39,0.391-0.39,1.023,0,1.414l0.708,0.707C3.074,4.488,3.104,4.497,3.13,4.518C2.607,5.248,2.251,6.097,2.099,7.02
			C2.064,7.017,2.035,7,2,7H1C0.447,7,0,7.448,0,8s0.447,1,1,1h1c0.035,0,0.064-0.016,0.099-0.02
			c0.152,0.923,0.509,1.772,1.031,2.502c-0.025,0.021-0.056,0.029-0.079,0.053l-0.708,0.707c-0.39,0.391-0.39,1.024,0,1.414
			c0.391,0.391,1.024,0.391,1.415,0l0.707-0.707c0.023-0.023,0.032-0.055,0.053-0.08c0.729,0.523,1.579,0.879,2.502,1.032
			C7.017,13.936,7,13.965,7,14v1c0,0.553,0.447,1,1,1s1-0.447,1-1v-1c0-0.035-0.017-0.064-0.02-0.099
			c0.923-0.153,1.772-0.509,2.502-1.032c0.021,0.025,0.029,0.057,0.053,0.08l0.707,0.707c0.391,0.391,1.024,0.391,1.415,0
			c0.391-0.39,0.391-1.023,0-1.414l-0.707-0.707c-0.024-0.023-0.055-0.031-0.08-0.053c0.522-0.73,0.879-1.579,1.031-2.502
			C13.936,8.984,13.965,9,14,9h1c0.553,0,1-0.448,1-1S15.553,7,15,7z M8,11c-1.657,0-3-1.344-3-3c0-1.657,1.343-3,3-3s3,1.343,3,3
			C11,9.656,9.657,11,8,11z"/>
	</g>
</g>
</svg>
