<?xml version="1.0" encoding="utf-8"?>
<!-- Generator: Adobe Illustrator 15.1.0, SVG Export Plug-In . SVG Version: 6.00 Build 0)  -->
<!DOCTYPE svg PUBLIC "-//W3C//DTD SVG 1.1//EN" "http://www.w3.org/Graphics/SVG/1.1/DTD/svg11.dtd">
<svg version="1.1" id="Layer_1" xmlns="http://www.w3.org/2000/svg" xmlns:xlink="http://www.w3.org/1999/xlink" x="0px" y="0px"
	 width="16px" height="16px" viewBox="0 0 16 16" enable-background="new 0 0 16 16" xml:space="preserve">
<path fill-rule="evenodd" clip-rule="evenodd" fill="#231F20" d="M15,12h-1v-1c0-1.104-0.896-2-2-2H4c-1.104,0-2,0.896-2,2v1H1
	c-0.552,0-1-0.447-1-1V5c0-0.552,0.448-1,1-1h2V0h10v4h2c0.553,0,1,0.448,1,1v6C16,11.553,15.553,12,15,12z M12,1H4v3h8V1z M12,6h-1
	v1h1V6z M14,6h-1v1h1V6z M3,16v-4l0,0l0,0v-1c0-0.553,0.448-1,1-1h8c0.553,0,1,0.447,1,1v1h-1v2h-1v-2h-1v4H9v-4H8v3H7v-3H6v2H5v-2
	H4v4H3z"/>
</svg>
