<?xml version="1.0" encoding="utf-8"?>
<!-- Generator: Adobe Illustrator 15.1.0, SVG Export Plug-In . SVG Version: 6.00 Build 0)  -->
<!DOCTYPE svg PUBLIC "-//W3C//DTD SVG 1.1//EN" "http://www.w3.org/Graphics/SVG/1.1/DTD/svg11.dtd">
<svg version="1.1" id="Layer_1" xmlns="http://www.w3.org/2000/svg" xmlns:xlink="http://www.w3.org/1999/xlink" x="0px" y="0px"
	 width="16px" height="16px" viewBox="0 0 16 16" enable-background="new 0 0 16 16" xml:space="preserve">
<g>
	<path fill="#231F20" d="M1,5h1c0.945,0,1.778,0.446,2.328,1.129C4.551,5.452,4.886,4.833,5.32,4.288C4.436,3.496,3.28,3,2,3H1
		C0.448,3,0,3.448,0,4S0.448,5,1,5z"/>
	<path fill="#231F20" d="M10,5h2v0.999c0,0.404,0.244,0.77,0.617,0.924c0.374,0.154,0.804,0.069,1.09-0.217l2-2
		C15.902,4.511,16,4.255,16,3.999s-0.098-0.512-0.293-0.707l-2-2c-0.286-0.285-0.716-0.371-1.09-0.217
		C12.244,1.229,12,1.595,12,1.999V3h-2C7.239,3,5,5.239,5,8c0,1.657-1.343,3-3,3H1c-0.552,0-1,0.447-1,1s0.448,1,1,1h1
		c2.761,0,5-2.238,5-5C7,6.343,8.343,5,10,5z"/>
	<path fill="#231F20" d="M13.707,9.292c-0.286-0.285-0.716-0.371-1.09-0.217C12.244,9.229,12,9.595,12,9.999V11h-2
		c-0.945,0-1.778-0.445-2.328-1.129c-0.224,0.678-0.559,1.296-0.993,1.842C7.564,12.505,8.72,13,10,13h2v0.999
		c0,0.404,0.244,0.77,0.617,0.924c0.374,0.154,0.804,0.069,1.09-0.217l2-2C15.902,12.511,16,12.255,16,11.999
		s-0.098-0.512-0.293-0.707L13.707,9.292z"/>
</g>
</svg>
