<?xml version="1.0" encoding="utf-8"?>
<!-- Generator: Adobe Illustrator 15.1.0, SVG Export Plug-In . SVG Version: 6.00 Build 0)  -->
<!DOCTYPE svg PUBLIC "-//W3C//DTD SVG 1.1//EN" "http://www.w3.org/Graphics/SVG/1.1/DTD/svg11.dtd">
<svg version="1.1" id="Layer_1" xmlns="http://www.w3.org/2000/svg" xmlns:xlink="http://www.w3.org/1999/xlink" x="0px" y="0px"
	 width="16px" height="16px" viewBox="0 0 16 16" enable-background="new 0 0 16 16" xml:space="preserve">
<g>
	<g>
		<path fill-rule="evenodd" clip-rule="evenodd" fill="#231F20" d="M13,0H3C1.343,0,0,1.343,0,3v7c0,1.656,1.343,3,3,3l2,3l2-3h6
			c1.656,0,3-1.344,3-3V3C16,1.343,14.656,0,13,0z M8,10H3V9h5V10z M13,8H3V7h10V8z M13,6H3V5h10V6z M13,4H3V3h10V4z"/>
	</g>
</g>
</svg>
