<?xml version="1.0" encoding="utf-8"?>
<!-- Generator: Adobe Illustrator 15.1.0, SVG Export Plug-In . SVG Version: 6.00 Build 0)  -->
<!DOCTYPE svg PUBLIC "-//W3C//DTD SVG 1.1//EN" "http://www.w3.org/Graphics/SVG/1.1/DTD/svg11.dtd">
<svg version="1.1" id="Layer_1" xmlns="http://www.w3.org/2000/svg" xmlns:xlink="http://www.w3.org/1999/xlink" x="0px" y="0px"
	 width="16px" height="16px" viewBox="0 0 16 16" enable-background="new 0 0 16 16" xml:space="preserve">
<path fill-rule="evenodd" clip-rule="evenodd" fill="#231F20" d="M13,13l-2,3l-2-3H3c-1.657,0-3-1.344-3-3V3c0-1.657,1.343-3,3-3h10
	c1.657,0,3,1.343,3,3v7C16,11.656,14.657,13,13,13z M3,10h5V9H3V10z M13,3H3v1h10V3z M13,5H3v1h10V5z M13,7H3v1h10V7z"/>
</svg>
