<?xml version="1.0" encoding="utf-8"?>
<!-- Generator: Adobe Illustrator 15.1.0, SVG Export Plug-In . SVG Version: 6.00 Build 0)  -->
<!DOCTYPE svg PUBLIC "-//W3C//DTD SVG 1.1//EN" "http://www.w3.org/Graphics/SVG/1.1/DTD/svg11.dtd">
<svg version="1.1" id="Layer_1" xmlns="http://www.w3.org/2000/svg" xmlns:xlink="http://www.w3.org/1999/xlink" x="0px" y="0px"
	 width="16px" height="16px" viewBox="0 0 16 16" enable-background="new 0 0 16 16" xml:space="preserve">
<path fill-rule="evenodd" clip-rule="evenodd" fill="#231F20" d="M2,10.816V5c0-1.657,1.343-3,3-3h7.816C12.403,0.837,11.305,0,10,0
	H3C1.343,0,0,1.343,0,3v5C0,9.305,0.838,10.403,2,10.816z M3,6v4c0,1.656,1.343,3,3,3h3l2,3l2-3c1.657,0,3-1.344,3-3V6
	c0-1.657-1.343-3-3-3H6C4.343,3,3,4.343,3,6z M14,6v4c0,0.553-0.447,1-1,1h-0.667L11,13l-1.333-2H6c-0.553,0-1-0.447-1-1V6
	c0-0.552,0.447-1,1-1h7C13.553,5,14,5.448,14,6z"/>
</svg>
