<?xml version="1.0" encoding="utf-8"?>
<!-- Generator: Adobe Illustrator 15.1.0, SVG Export Plug-In . SVG Version: 6.00 Build 0)  -->
<!DOCTYPE svg PUBLIC "-//W3C//DTD SVG 1.1//EN" "http://www.w3.org/Graphics/SVG/1.1/DTD/svg11.dtd">
<svg version="1.1" id="Layer_1" xmlns="http://www.w3.org/2000/svg" xmlns:xlink="http://www.w3.org/1999/xlink" x="0px" y="0px"
	 width="16px" height="16px" viewBox="0 0 16 16" enable-background="new 0 0 16 16" xml:space="preserve">
<path fill-rule="evenodd" clip-rule="evenodd" fill="#231F20" d="M15,9h-2c-0.553,0-1-0.447-1-1c0-0.552,0.447-1,1-1h2
	c0.553,0,1,0.448,1,1C16,8.553,15.553,9,15,9z M12.242,5.172c-0.391,0.391-1.023,0.391-1.414,0s-0.391-1.023,0-1.414l1.414-1.415
	c0.391-0.39,1.023-0.39,1.414,0c0.391,0.391,0.391,1.024,0,1.415L12.242,5.172z M8,16c-0.552,0-1-0.447-1-1v-2c0-0.552,0.448-1,1-1
	c0.553,0,1,0.448,1,1v2C9,15.553,8.553,16,8,16z M8,4C7.448,4,7,3.553,7,3V1c0-0.552,0.448-1,1-1c0.553,0,1,0.448,1,1v2
	C9,3.553,8.553,4,8,4z M3.757,13.657c-0.391,0.391-1.023,0.391-1.414,0s-0.391-1.024,0-1.414l1.414-1.415
	c0.391-0.39,1.024-0.39,1.414,0c0.391,0.391,0.391,1.024,0,1.415L3.757,13.657z M3.757,5.172L2.343,3.758
	c-0.391-0.391-0.391-1.024,0-1.415c0.391-0.39,1.023-0.39,1.414,0l1.414,1.415c0.391,0.391,0.391,1.023,0,1.414
	C4.781,5.562,4.148,5.562,3.757,5.172z M4,8c0,0.553-0.448,1-1,1H1C0.448,9,0,8.553,0,8c0-0.552,0.448-1,1-1h2C3.552,7,4,7.448,4,8z
	 M12.242,10.828l1.414,1.415c0.391,0.39,0.391,1.023,0,1.414s-1.023,0.391-1.414,0l-1.414-1.414c-0.391-0.391-0.391-1.024,0-1.415
	C11.219,10.438,11.852,10.438,12.242,10.828z"/>
</svg>
