<?xml version="1.0" encoding="utf-8"?>
<!-- Generator: Adobe Illustrator 15.1.0, SVG Export Plug-In . SVG Version: 6.00 Build 0)  -->
<!DOCTYPE svg PUBLIC "-//W3C//DTD SVG 1.1//EN" "http://www.w3.org/Graphics/SVG/1.1/DTD/svg11.dtd">
<svg version="1.1" id="Layer_1" xmlns="http://www.w3.org/2000/svg" xmlns:xlink="http://www.w3.org/1999/xlink" x="0px" y="0px"
	 width="16px" height="16px" viewBox="0 0 16 16" enable-background="new 0 0 16 16" xml:space="preserve">
<g>
	<path fill="#231F20" d="M5,12H4v-2c0-0.552,0.429-1,0.981-1h6C12.639,9,14,7.657,14,6V1c0-0.552-0.447-1-1-1s-1,0.448-1,1v5
		c0,0.552-0.466,1-1.019,1h-6C3.325,7,2,8.343,2,10v2H1c-0.404,0-0.77,0.244-0.924,0.617c-0.154,0.374-0.068,0.804,0.217,1.09l2,2
		C2.488,15.902,2.744,16,3,16s0.512-0.098,0.707-0.293l2-2c0.286-0.286,0.371-0.716,0.217-1.09C5.77,12.244,5.404,12,5,12z"/>
	<path fill="#231F20" d="M15.924,12.617C15.77,12.244,15.404,12,15,12h-1V8.62c-1,0.597-1,1.034-2,1.238V12h-1
		c-0.404,0-0.77,0.244-0.924,0.617c-0.154,0.374-0.068,0.804,0.217,1.09l2,2C12.488,15.902,12.744,16,13,16s0.512-0.098,0.707-0.293
		l2-2C15.993,13.421,16.078,12.991,15.924,12.617z"/>
</g>
</svg>
