<?xml version="1.0" encoding="utf-8"?>
<!-- Generator: Adobe Illustrator 15.1.0, SVG Export Plug-In . SVG Version: 6.00 Build 0)  -->
<!DOCTYPE svg PUBLIC "-//W3C//DTD SVG 1.1//EN" "http://www.w3.org/Graphics/SVG/1.1/DTD/svg11.dtd">
<svg version="1.1" id="Layer_1" xmlns="http://www.w3.org/2000/svg" xmlns:xlink="http://www.w3.org/1999/xlink" x="0px" y="0px"
	 width="16px" height="16px" viewBox="0 0 16 16" enable-background="new 0 0 16 16" xml:space="preserve">
<path fill-rule="evenodd" clip-rule="evenodd" fill="#231F20" d="M15.924,12.617C15.77,12.244,15.404,12,15,12h-1v-2
	c0-1.657-1.344-3-3-3h-1C9.447,7,9,6.553,9,6V1c0-0.552-0.447-1-1-1C7.448,0,7,0.448,7,1v5c0,0.553-0.448,1-1,1H5
	c-1.657,0-3,1.343-3,3v2H1c-0.404,0-0.77,0.244-0.924,0.617c-0.154,0.374-0.068,0.804,0.217,1.09l2,2C2.488,15.902,2.744,16,3,16
	s0.512-0.098,0.707-0.293l2-2c0.286-0.286,0.371-0.716,0.217-1.09C5.77,12.244,5.404,12,5,12H4v-2c0-0.552,0.448-1,1-1h1
	c0.772,0,1.468-0.3,2-0.778C8.531,8.7,9.229,9,10,9h1c0.553,0,1,0.448,1,1v2h-1c-0.404,0-0.77,0.244-0.924,0.617
	c-0.154,0.374-0.068,0.804,0.217,1.09l2,2C12.488,15.902,12.744,16,13,16s0.512-0.098,0.707-0.293l2-2
	C15.993,13.421,16.078,12.991,15.924,12.617z"/>
</svg>
