<?xml version="1.0" encoding="utf-8"?>
<!-- Generator: Adobe Illustrator 15.1.0, SVG Export Plug-In . SVG Version: 6.00 Build 0)  -->
<!DOCTYPE svg PUBLIC "-//W3C//DTD SVG 1.1//EN" "http://www.w3.org/Graphics/SVG/1.1/DTD/svg11.dtd">
<svg version="1.1" id="Layer_1" xmlns="http://www.w3.org/2000/svg" xmlns:xlink="http://www.w3.org/1999/xlink" x="0px" y="0px"
	 width="16px" height="16px" viewBox="0 0 16 16" enable-background="new 0 0 16 16" xml:space="preserve">
<path fill-rule="evenodd" clip-rule="evenodd" fill="#231F20" d="M8,16c-4.418,0-8-3.582-8-8s3.582-8,8-8s8,3.582,8,8
	S12.418,16,8,16z M8,2C4.687,2,2,4.687,2,8c0,3.314,2.687,6,6,6s6-2.686,6-6C14,4.687,11.313,2,8,2z M12.33,10.5
	c-0.275,0.479-0.888,0.643-1.366,0.366c-0.478-0.276-0.642-0.888-0.366-1.366c0.276-0.479,0.889-0.642,1.366-0.366
	C12.442,9.41,12.606,10.021,12.33,10.5z M8,10c-1.104,0-2-0.896-2-2s0.896-2,2-2s2,0.896,2,2S9.104,10,8,10z M8,7
	C7.448,7,7,7.448,7,8s0.448,1,1,1s1-0.448,1-1S8.552,7,8,7z M8,5C7.448,5,7,4.552,7,4s0.448-1,1-1s1,0.448,1,1S8.552,5,8,5z
	 M5.036,10.866c-0.479,0.276-1.09,0.112-1.366-0.366S3.558,9.41,4.036,9.134C4.514,8.858,5.126,9.021,5.402,9.5
	C5.678,9.979,5.514,10.59,5.036,10.866z"/>
</svg>
