<?xml version="1.0" encoding="utf-8"?>
<!-- Generator: Adobe Illustrator 15.1.0, SVG Export Plug-In . SVG Version: 6.00 Build 0)  -->
<!DOCTYPE svg PUBLIC "-//W3C//DTD SVG 1.1//EN" "http://www.w3.org/Graphics/SVG/1.1/DTD/svg11.dtd">
<svg version="1.1" id="Layer_1" xmlns="http://www.w3.org/2000/svg" xmlns:xlink="http://www.w3.org/1999/xlink" x="0px" y="0px"
	 width="16px" height="16px" viewBox="0 0 16 16" enable-background="new 0 0 16 16" xml:space="preserve">
<g>
	<g>
		<path fill-rule="evenodd" clip-rule="evenodd" fill="#231F20" d="M13,3H3v10h10V3z M4,4h3v1H4V4z M4,7h5v1H4V7z M8,12H4v-1h4V12z
			 M11,10H4V9h7V10z M12,5h-1V4h1V5z M16,3V1c0-0.552-0.447-1-1-1h-2c0,0.553-0.447,1-1,1s-1-0.447-1-1H9c0,0.553-0.447,1-1,1
			S7,0.553,7,0H5c0,0.553-0.447,1-1,1S3,0.553,3,0H1C0.447,0,0,0.448,0,1v2c0.553,0,1,0.448,1,1c0,0.553-0.447,1-1,1v2
			c0.553,0,1,0.448,1,1c0,0.553-0.447,1-1,1v2c0.553,0,1,0.448,1,1c0,0.553-0.447,1-1,1v2c0,0.553,0.447,1,1,1h2
			c0-0.552,0.447-1,1-1s1,0.448,1,1h2c0-0.552,0.447-1,1-1s1,0.448,1,1h2c0-0.552,0.447-1,1-1s1,0.448,1,1h2c0.553,0,1-0.447,1-1v-2
			c-0.553,0-1-0.447-1-1c0-0.552,0.447-1,1-1V9c-0.553,0-1-0.447-1-1c0-0.552,0.447-1,1-1V5c-0.553,0-1-0.447-1-1
			C15,3.448,15.447,3,16,3z M14,14H2V2h12V14z"/>
	</g>
</g>
</svg>
