<?xml version="1.0" encoding="utf-8"?>
<!-- Generator: Adobe Illustrator 15.1.0, SVG Export Plug-In . SVG Version: 6.00 Build 0)  -->
<!DOCTYPE svg PUBLIC "-//W3C//DTD SVG 1.1//EN" "http://www.w3.org/Graphics/SVG/1.1/DTD/svg11.dtd">
<svg version="1.1" id="Layer_1" xmlns="http://www.w3.org/2000/svg" xmlns:xlink="http://www.w3.org/1999/xlink" x="0px" y="0px"
	 width="16px" height="16px" viewBox="0 0 16 16" enable-background="new 0 0 16 16" xml:space="preserve">
<path fill-rule="evenodd" clip-rule="evenodd" fill="#231F20" d="M16,13v2c0,0.553-0.447,1-1,1h-2c0-0.552-0.447-1-1-1s-1,0.448-1,1
	H9c0-0.552-0.447-1-1-1s-1,0.448-1,1H5c0-0.552-0.447-1-1-1s-1,0.448-1,1H1c-0.553,0-1-0.447-1-1v-2c0.553,0,1-0.447,1-1
	c0-0.552-0.447-1-1-1V9c0.553,0,1-0.447,1-1c0-0.552-0.447-1-1-1V5c0.553,0,1-0.447,1-1c0-0.552-0.447-1-1-1V1c0-0.552,0.447-1,1-1
	h2c0,0.553,0.447,1,1,1s1-0.447,1-1h2c0,0.553,0.447,1,1,1s1-0.447,1-1h2c0,0.553,0.447,1,1,1s1-0.447,1-1h2c0.553,0,1,0.448,1,1v2
	c-0.553,0-1,0.448-1,1c0,0.553,0.447,1,1,1v2c-0.553,0-1,0.448-1,1c0,0.553,0.447,1,1,1v2c-0.553,0-1,0.448-1,1
	C15,12.553,15.447,13,16,13z M14,2H2v12h12V2z M13,13H3V3h10V13z M12,4H4v8h8V4z"/>
</svg>
