<?xml version="1.0" encoding="utf-8"?>
<!-- Generator: Adobe Illustrator 15.1.0, SVG Export Plug-In . SVG Version: 6.00 Build 0)  -->
<!DOCTYPE svg PUBLIC "-//W3C//DTD SVG 1.1//EN" "http://www.w3.org/Graphics/SVG/1.1/DTD/svg11.dtd">
<svg version="1.1" id="Layer_1" xmlns="http://www.w3.org/2000/svg" xmlns:xlink="http://www.w3.org/1999/xlink" x="0px" y="0px"
	 width="16px" height="16px" viewBox="0 0 16 16" enable-background="new 0 0 16 16" xml:space="preserve">
<g>
	<g>
		<path fill-rule="evenodd" clip-rule="evenodd" fill="#231F20" d="M12,10H4c-0.553,0-1,0.447-1,1v4c0,0.553,0.447,1,1,1h8
			c0.553,0,1-0.447,1-1v-4C13,10.447,12.553,10,12,10z M14,0.184V6c0,0.552-0.447,1-1,1H3C2.447,7,2,6.552,2,6V0.184
			C0.838,0.597,0,1.696,0,3v10c0,1.305,0.838,2.403,2,2.816V10c0-0.553,0.447-1,1-1h10c0.553,0,1,0.447,1,1v5.816
			c1.162-0.413,2-1.512,2-2.816V3C16,1.696,15.162,0.597,14,0.184z M6,6h6c0.553,0,1-0.448,1-1V1c0-0.552-0.447-1-1-1H6
			C5.447,0,5,0.448,5,1v4C5,5.552,5.447,6,6,6z M10,2c0-0.552,0.447-1,1-1s1,0.448,1,1v2c0,0.552-0.447,1-1,1s-1-0.448-1-1V2z"/>
	</g>
</g>
</svg>
