<?xml version="1.0" encoding="utf-8"?>
<!-- Generator: Adobe Illustrator 15.1.0, SVG Export Plug-In . SVG Version: 6.00 Build 0)  -->
<!DOCTYPE svg PUBLIC "-//W3C//DTD SVG 1.1//EN" "http://www.w3.org/Graphics/SVG/1.1/DTD/svg11.dtd">
<svg version="1.1" id="Layer_1" xmlns="http://www.w3.org/2000/svg" xmlns:xlink="http://www.w3.org/1999/xlink" x="0px" y="0px"
	 width="16px" height="16px" viewBox="0 0 16 16" enable-background="new 0 0 16 16" xml:space="preserve">
<g>
	<g>
		<path fill-rule="evenodd" clip-rule="evenodd" fill="#231F20" d="M2,8v6h12V8c-0.771,0-1.469-0.3-2-0.778V12H4V7.222
			C3.468,7.7,2.772,8,2,8z M14,0H2L0,5c0,1.104,0.896,2,2,2s2-0.896,2-2c0,1.104,0.896,2,2,2s2-0.896,2-2c0,1.104,0.896,2,2,2
			s2-0.896,2-2c0,1.104,0.896,2,2,2s2-0.896,2-2L14,0z M1,16h14v-1H1V16z"/>
	</g>
</g>
</svg>
