<?xml version="1.0" encoding="utf-8"?>
<!-- Generator: Adobe Illustrator 15.1.0, SVG Export Plug-In . SVG Version: 6.00 Build 0)  -->
<!DOCTYPE svg PUBLIC "-//W3C//DTD SVG 1.1//EN" "http://www.w3.org/Graphics/SVG/1.1/DTD/svg11.dtd">
<svg version="1.1" id="Layer_1" xmlns="http://www.w3.org/2000/svg" xmlns:xlink="http://www.w3.org/1999/xlink" x="0px" y="0px"
	 width="16px" height="16px" viewBox="0 0 16 16" enable-background="new 0 0 16 16" xml:space="preserve">
<path fill-rule="evenodd" clip-rule="evenodd" fill="#231F20" d="M14,7c-1.104,0-2-0.896-2-2c0,1.104-0.896,2-2,2S8,6.104,8,5
	c0,1.104-0.896,2-2,2S4,6.104,4,5c0,1.104-0.896,2-2,2S0,6.104,0,5l2-5h12l2,5C16,6.104,15.104,7,14,7z M2,14V8
	c0.772,0,1.468-0.3,2-0.778V12l0,0v2H2z M14,8v6h-2v-2l0,0V7.222C12.531,7.7,13.229,8,14,8z M4,16h1v-2h6v2h1v-1h3v1H1v-1h3V16z"/>
</svg>
