<?xml version="1.0" encoding="utf-8"?>
<!-- Generator: Adobe Illustrator 15.1.0, SVG Export Plug-In . SVG Version: 6.00 Build 0)  -->
<!DOCTYPE svg PUBLIC "-//W3C//DTD SVG 1.1//EN" "http://www.w3.org/Graphics/SVG/1.1/DTD/svg11.dtd">
<svg version="1.1" id="Layer_1" xmlns="http://www.w3.org/2000/svg" xmlns:xlink="http://www.w3.org/1999/xlink" x="0px" y="0px"
	 width="16px" height="16px" viewBox="0 0 16 16" enable-background="new 0 0 16 16" xml:space="preserve">
<path fill-rule="evenodd" clip-rule="evenodd" fill="#231F20" d="M14.137,4.699C14.359,5.11,14.535,5.548,14.678,6h-2.104
	C12.068,4.852,11.15,3.926,10,3.422v-2.1c0.456,0.144,0.896,0.322,1.312,0.546l1.282-1.282c0.781-0.781,2.047-0.781,2.828,0
	c0.781,0.781,0.781,2.047,0,2.828L14.137,4.699z M14.715,1.293c-0.391-0.391-1.023-0.391-1.414,0L12.18,2.415
	c0.536,0.403,1.011,0.877,1.413,1.415l1.122-1.123C15.105,2.316,15.105,1.684,14.715,1.293z M7,3.101V1.083C7.326,1.033,7.659,1,8,1
	s0.674,0.033,1,0.083v2.017C8.677,3.035,8.343,3,8,3C7.658,3,7.323,3.035,7,3.101z M3.406,15.414c-0.781,0.781-2.047,0.781-2.829,0
	c-0.781-0.781-0.781-2.047,0-2.828l1.285-1.285C1.641,10.89,1.465,10.452,1.322,10h2.1c0.504,1.15,1.43,2.068,2.578,2.573v2.104
	c-0.456-0.144-0.897-0.321-1.311-0.546L3.406,15.414z M2.407,12.171l-1.123,1.122c-0.39,0.391-0.39,1.023,0,1.414
	c0.391,0.391,1.024,0.391,1.415,0l1.122-1.121C3.284,13.183,2.809,12.708,2.407,12.171z M1.083,9C1.033,8.674,1,8.341,1,8
	s0.033-0.674,0.083-1h2.029C3.046,7.324,3,7.656,3,8c0,0.343,0.035,0.677,0.101,1H1.083z M3.427,6H1.322
	c0.143-0.452,0.319-0.89,0.541-1.301L0.578,3.414c-0.781-0.781-0.781-2.047,0-2.828c0.781-0.781,2.047-0.781,2.829,0l1.283,1.282
	C5.103,1.644,5.544,1.466,6,1.322v2.1C4.85,3.926,3.932,4.852,3.427,6z M2.699,1.293c-0.391-0.391-1.024-0.391-1.415,0
	c-0.39,0.391-0.39,1.023,0,1.414L2.407,3.83c0.402-0.538,0.876-1.012,1.414-1.415L2.699,1.293z M9,12.887v2.03
	C8.674,14.967,8.341,15,8,15s-0.674-0.033-1-0.083v-2.03C7.324,12.953,7.656,13,8,13S8.676,12.953,9,12.887z M14.916,7
	C14.967,7.326,15,7.659,15,8s-0.033,0.674-0.084,1h-2.017C12.965,8.677,13,8.343,13,8c0-0.344-0.047-0.676-0.113-1H14.916z
	 M10,12.573c1.148-0.505,2.074-1.423,2.578-2.573h2.1c-0.143,0.452-0.318,0.89-0.541,1.301l1.285,1.285
	c0.781,0.781,0.781,2.047,0,2.828s-2.047,0.781-2.828,0l-1.282-1.282c-0.415,0.225-0.855,0.402-1.312,0.546V12.573z M13.301,14.707
	c0.391,0.391,1.023,0.391,1.414,0s0.391-1.023,0-1.414l-1.122-1.122c-0.402,0.537-0.877,1.012-1.413,1.415L13.301,14.707z"/>
</svg>
