<?xml version="1.0" encoding="utf-8"?>
<!-- Generator: Adobe Illustrator 15.1.0, SVG Export Plug-In . SVG Version: 6.00 Build 0)  -->
<!DOCTYPE svg PUBLIC "-//W3C//DTD SVG 1.1//EN" "http://www.w3.org/Graphics/SVG/1.1/DTD/svg11.dtd">
<svg version="1.1" id="Layer_1" xmlns="http://www.w3.org/2000/svg" xmlns:xlink="http://www.w3.org/1999/xlink" x="0px" y="0px"
	 width="16px" height="16px" viewBox="0 0 16 16" enable-background="new 0 0 16 16" xml:space="preserve">
<path fill-rule="evenodd" clip-rule="evenodd" fill="#231F20" d="M14.137,4.699C14.519,5.406,14.789,6.179,14.916,7h-3.058
	C11.496,5.6,10.4,4.504,9,4.142V1.084c0.825,0.127,1.602,0.4,2.312,0.784l1.282-1.282c0.781-0.781,2.047-0.781,2.828,0
	s0.781,2.047,0,2.828L14.137,4.699z M14.715,1.293c-0.391-0.391-1.023-0.391-1.414,0L12.18,2.415
	c0.536,0.402,1.011,0.877,1.413,1.414l1.122-1.122C15.105,2.316,15.105,1.684,14.715,1.293z M7,4.142C5.6,4.504,4.504,5.6,4.142,7
	H1.084c0.127-0.821,0.397-1.594,0.779-2.301L0.578,3.414c-0.781-0.781-0.781-2.047,0-2.828s2.047-0.781,2.828,0l1.282,1.282
	C5.398,1.484,6.175,1.211,7,1.084V4.142z M2.699,1.293c-0.391-0.391-1.023-0.391-1.414,0s-0.391,1.023,0,1.414l1.122,1.122
	C2.809,3.292,3.283,2.817,3.82,2.415L2.699,1.293z M1.863,11.301C1.481,10.594,1.211,9.821,1.084,9h3.058
	C4.504,10.4,5.6,11.496,7,11.858v3.059c-0.825-0.128-1.602-0.401-2.312-0.785l-1.282,1.282c-0.781,0.781-2.047,0.781-2.828,0
	s-0.781-2.047,0-2.828L1.863,11.301z M1.285,14.707c0.391,0.391,1.023,0.391,1.414,0l1.121-1.121
	c-0.537-0.403-1.012-0.878-1.413-1.415l-1.122,1.122C0.895,13.684,0.895,14.316,1.285,14.707z M9,11.858
	C10.4,11.496,11.496,10.4,11.858,9h3.058c-0.127,0.821-0.397,1.594-0.779,2.301l1.285,1.285c0.781,0.781,0.781,2.047,0,2.828
	s-2.047,0.781-2.828,0l-1.282-1.282c-0.71,0.384-1.486,0.657-2.312,0.785V11.858z M13.301,14.707c0.391,0.391,1.023,0.391,1.414,0
	s0.391-1.023,0-1.414l-1.122-1.122c-0.402,0.537-0.877,1.012-1.413,1.415L13.301,14.707z"/>
</svg>
