<?xml version="1.0" encoding="utf-8"?>
<!-- Generator: Adobe Illustrator 15.1.0, SVG Export Plug-In . SVG Version: 6.00 Build 0)  -->
<!DOCTYPE svg PUBLIC "-//W3C//DTD SVG 1.1//EN" "http://www.w3.org/Graphics/SVG/1.1/DTD/svg11.dtd">
<svg version="1.1" id="Layer_1" xmlns="http://www.w3.org/2000/svg" xmlns:xlink="http://www.w3.org/1999/xlink" x="0px" y="0px"
	 width="16px" height="16px" viewBox="0 0 16 16" enable-background="new 0 0 16 16" xml:space="preserve">
<path fill-rule="evenodd" clip-rule="evenodd" fill="#231F20" d="M16,8c0,0.338-0.027,0.67-0.068,0.997
	c-0.01,0.08-0.024,0.159-0.037,0.238c-0.043,0.274-0.098,0.545-0.168,0.81c-0.013,0.047-0.023,0.095-0.036,0.141
	c-0.19,0.662-0.461,1.291-0.805,1.872c-0.688,1.166-1.662,2.14-2.828,2.828c-0.581,0.344-1.21,0.614-1.872,0.805
	c-0.046,0.013-0.094,0.023-0.141,0.036c-0.265,0.07-0.535,0.125-0.81,0.168c-0.079,0.013-0.158,0.027-0.238,0.037
	C8.67,15.973,8.338,16,8,16l0,0l0,0c-0.338,0-0.67-0.027-0.997-0.068c-0.081-0.01-0.159-0.024-0.239-0.037
	c-0.274-0.043-0.545-0.098-0.81-0.168c-0.046-0.013-0.094-0.023-0.14-0.036c-0.663-0.19-1.291-0.461-1.872-0.805
	c-1.166-0.688-2.14-1.662-2.829-2.828c-0.343-0.581-0.614-1.21-0.804-1.872c-0.013-0.046-0.024-0.094-0.036-0.141
	C0.203,9.78,0.148,9.51,0.105,9.235C0.093,9.156,0.079,9.077,0.068,8.997C0.027,8.67,0,8.338,0,8l0,0l0,0
	c0-0.338,0.027-0.67,0.068-0.997c0.01-0.081,0.024-0.159,0.037-0.239c0.043-0.274,0.098-0.545,0.169-0.81
	c0.012-0.046,0.023-0.094,0.036-0.14C0.5,5.152,0.771,4.523,1.114,3.942c0.689-1.166,1.663-2.14,2.829-2.829
	C4.523,0.771,5.152,0.5,5.814,0.31c0.046-0.013,0.094-0.024,0.14-0.036c0.265-0.071,0.536-0.125,0.81-0.169
	c0.08-0.012,0.158-0.026,0.239-0.037C7.33,0.027,7.662,0,8,0l0,0l0,0c0.338,0,0.67,0.027,0.997,0.068
	c0.08,0.01,0.159,0.024,0.238,0.037c0.274,0.043,0.545,0.098,0.81,0.169c0.047,0.012,0.095,0.023,0.141,0.036
	c0.662,0.19,1.291,0.461,1.872,0.804c1.166,0.689,2.14,1.663,2.828,2.829c0.344,0.581,0.614,1.209,0.805,1.872
	c0.013,0.046,0.023,0.094,0.036,0.14c0.07,0.265,0.125,0.536,0.168,0.81c0.013,0.08,0.027,0.158,0.037,0.239
	C15.973,7.33,16,7.662,16,8L16,8L16,8z M3.353,6.182L1.866,4.694C1.332,5.683,1,6.797,1,8c0,1.203,0.332,2.317,0.866,3.306
	l1.487-1.487C3.132,9.254,3,8.644,3,8C3,7.357,3.132,6.747,3.353,6.182z M8,15c1.203,0,2.317-0.331,3.306-0.865l-1.487-1.488
	C9.254,12.868,8.644,13,8,13c-0.643,0-1.253-0.132-1.818-0.354l-1.488,1.488C5.683,14.669,6.797,15,8,15z M8,1
	C6.797,1,5.683,1.332,4.694,1.866l1.488,1.487C6.747,3.132,7.357,3,8,3c0.644,0,1.254,0.132,1.818,0.353l1.487-1.487
	C10.317,1.332,9.203,1,8,1z M11.852,6.977L11.852,6.977c-0.367-1.382-1.446-2.461-2.828-2.829l0,0l0,0
	C8.891,4.113,8.757,4.084,8.619,4.062C8.417,4.026,8.213,4,8,4S7.583,4.026,7.38,4.062C7.243,4.084,7.109,4.113,6.977,4.148l0,0l0,0
	C5.595,4.516,4.516,5.595,4.148,6.977l0,0l0,0C4.113,7.109,4.084,7.243,4.062,7.38C4.026,7.583,4,7.787,4,8s0.026,0.417,0.062,0.619
	c0.021,0.138,0.051,0.271,0.086,0.404l0,0l0,0c0.367,1.382,1.447,2.461,2.829,2.828l0,0l0,0c0.132,0.035,0.266,0.064,0.403,0.086
	C7.583,11.974,7.787,12,8,12s0.417-0.026,0.619-0.062c0.138-0.021,0.271-0.051,0.404-0.086l0,0l0,0
	c1.382-0.367,2.461-1.446,2.828-2.828l0,0l0,0c0.035-0.133,0.064-0.267,0.086-0.404C11.974,8.417,12,8.213,12,8
	s-0.026-0.417-0.062-0.62C11.916,7.243,11.887,7.109,11.852,6.977L11.852,6.977z M14.135,4.694l-1.488,1.488
	C12.868,6.747,13,7.357,13,8c0,0.644-0.132,1.254-0.354,1.818l1.488,1.487C14.669,10.317,15,9.203,15,8
	C15,6.797,14.669,5.683,14.135,4.694z"/>
</svg>
