<?xml version="1.0" encoding="utf-8"?>
<!-- Generator: Adobe Illustrator 15.1.0, SVG Export Plug-In . SVG Version: 6.00 Build 0)  -->
<!DOCTYPE svg PUBLIC "-//W3C//DTD SVG 1.1//EN" "http://www.w3.org/Graphics/SVG/1.1/DTD/svg11.dtd">
<svg version="1.1" id="Layer_1" xmlns="http://www.w3.org/2000/svg" xmlns:xlink="http://www.w3.org/1999/xlink" x="0px" y="0px"
	 width="16px" height="16px" viewBox="0 0 16 16" enable-background="new 0 0 16 16" xml:space="preserve">
<g>
	<path fill="#231F20" d="M15.924,7.617C15.77,7.244,15.404,7,15,7h-1V5c0-1.657-1.343-3-3-3H9V0.999c0-0.404-0.244-0.77-0.617-0.924
		c-0.374-0.154-0.804-0.068-1.09,0.217l-2,2C5.098,2.487,5,2.743,5,2.999s0.098,0.512,0.293,0.707l2,2
		c0.286,0.286,0.716,0.371,1.09,0.217C8.756,5.769,9,5.403,9,4.999V4h2c0.553,0,1,0.448,1,1v2h-1c-0.404,0-0.77,0.244-0.924,0.617
		c-0.154,0.374-0.068,0.804,0.217,1.09l2,2C12.488,10.902,12.744,11,13,11s0.512-0.098,0.707-0.293l2-2
		C15.993,8.421,16.078,7.991,15.924,7.617z"/>
	<path fill="#231F20" d="M8,10H7v2v2H5H3v1c0,0.553,0.448,1,1,1h4c0.553,0,1-0.447,1-1v-4C9,10.447,8.553,10,8,10z"/>
	<path fill="#231F20" d="M6,12V8c0-0.552-0.448-1-1-1H1C0.448,7,0,7.448,0,8v4c0,0.553,0.448,1,1,1h4C5.552,13,6,12.553,6,12z M4,11
		H2V9h2V11z"/>
</g>
</svg>
