<?xml version="1.0" encoding="utf-8"?>
<!-- Generator: Adobe Illustrator 15.1.0, SVG Export Plug-In . SVG Version: 6.00 Build 0)  -->
<!DOCTYPE svg PUBLIC "-//W3C//DTD SVG 1.1//EN" "http://www.w3.org/Graphics/SVG/1.1/DTD/svg11.dtd">
<svg version="1.1" id="Layer_1" xmlns="http://www.w3.org/2000/svg" xmlns:xlink="http://www.w3.org/1999/xlink" x="0px" y="0px"
	 width="16px" height="16px" viewBox="0 0 16 16" enable-background="new 0 0 16 16" xml:space="preserve">
<g>
	<path fill="#231F20" d="M5,10H1c-0.552,0-1,0.448-1,1v4c0,0.553,0.448,1,1,1h4c0.552,0,1-0.447,1-1v-4C6,10.448,5.552,10,5,10z
		 M4,14H2v-2h2V14z"/>
	<path fill="#231F20" d="M15,0h-4c-0.553,0-1,0.448-1,1v4c0,0.552,0.447,1,1,1h4c0.553,0,1-0.448,1-1V1C16,0.448,15.553,0,15,0z
		 M14,4h-2V2h2V4z"/>
	<path fill="#231F20" d="M7,1H5C3.343,1,2,2.343,2,4H1C0.596,4,0.23,4.244,0.076,4.617c-0.154,0.374-0.068,0.804,0.217,1.09l2,2
		C2.488,7.902,2.744,8,3,8s0.512-0.098,0.707-0.293l2-2c0.286-0.286,0.371-0.716,0.217-1.09C5.77,4.244,5.404,4,5,4H4
		c0-0.552,0.448-1,1-1h2c0.552,0,1-0.448,1-1S7.552,1,7,1z"/>
	<path fill="#231F20" d="M13.707,8.293C13.512,8.098,13.256,8,13,8s-0.512,0.098-0.707,0.293l-2,2
		c-0.286,0.286-0.371,0.716-0.217,1.09C10.23,11.756,10.596,12,11,12h1c0,0.553-0.447,1-1,1H9c-0.552,0-1,0.447-1,1
		c0,0.552,0.447,1,1,1h2c1.656,0,3-1.344,3-3h1c0.404,0,0.77-0.244,0.924-0.617c0.154-0.374,0.068-0.804-0.217-1.09L13.707,8.293z"
		/>
</g>
</svg>
