<?xml version="1.0" encoding="utf-8"?>
<!-- Generator: Adobe Illustrator 15.1.0, SVG Export Plug-In . SVG Version: 6.00 Build 0)  -->
<!DOCTYPE svg PUBLIC "-//W3C//DTD SVG 1.1//EN" "http://www.w3.org/Graphics/SVG/1.1/DTD/svg11.dtd">
<svg version="1.1" id="Layer_1" xmlns="http://www.w3.org/2000/svg" xmlns:xlink="http://www.w3.org/1999/xlink" x="0px" y="0px"
	 width="16px" height="16px" viewBox="0 0 16 16" enable-background="new 0 0 16 16" xml:space="preserve">
<path fill-rule="evenodd" clip-rule="evenodd" fill="#231F20" d="M13,16H3c-1.657,0-3-1.343-3-3V3c0-1.657,1.343-3,3-3h10
	c1.657,0,3,1.343,3,3v10C16,14.657,14.657,16,13,16z M13,14l1-2h-2L13,14z M13,2H3C2.447,2,2,2.448,2,3v10c0,0.553,0.447,1,1,1h7v-3
	c0-0.553,0.447-1,1-1h3V3C14,2.448,13.553,2,13,2z"/>
</svg>
