<?xml version="1.0" encoding="utf-8"?>
<!-- Generator: Adobe Illustrator 15.1.0, SVG Export Plug-In . SVG Version: 6.00 Build 0)  -->
<!DOCTYPE svg PUBLIC "-//W3C//DTD SVG 1.1//EN" "http://www.w3.org/Graphics/SVG/1.1/DTD/svg11.dtd">
<svg version="1.1" id="Layer_1" xmlns="http://www.w3.org/2000/svg" xmlns:xlink="http://www.w3.org/1999/xlink" x="0px" y="0px"
	 width="16px" height="16px" viewBox="0 0 16 16" enable-background="new 0 0 16 16" xml:space="preserve">
<path fill-rule="evenodd" clip-rule="evenodd" fill="#231F20" d="M13,16H6c-1.657,0-3-1.343-3-3V6c0-1.657,1.343-3,3-3h7
	c1.657,0,3,1.343,3,3v7C16,14.657,14.657,16,13,16z M14,6c0-0.552-0.447-1-1-1H6C5.447,5,5,5.448,5,6v7c0,0.553,0.447,1,1,1h4v-3
	c0-0.553,0.447-1,1-1h3V6z M12,12l1,2l1-2H12z M2,5v7.816C0.838,12.403,0,11.305,0,10V3c0-1.657,1.343-3,3-3h7
	c1.305,0,2.403,0.838,2.816,2H5C3.343,2,2,3.343,2,5z"/>
</svg>
