<?xml version="1.0" encoding="utf-8"?>
<!-- Generator: Adobe Illustrator 15.1.0, SVG Export Plug-In . SVG Version: 6.00 Build 0)  -->
<!DOCTYPE svg PUBLIC "-//W3C//DTD SVG 1.1//EN" "http://www.w3.org/Graphics/SVG/1.1/DTD/svg11.dtd">
<svg version="1.1" id="Layer_1" xmlns="http://www.w3.org/2000/svg" xmlns:xlink="http://www.w3.org/1999/xlink" x="0px" y="0px"
	 width="16px" height="16px" viewBox="0 0 16 16" enable-background="new 0 0 16 16" xml:space="preserve">
<g>
	<g>
		<path fill-rule="evenodd" clip-rule="evenodd" fill="#231F20" d="M13,0H3C1.343,0,0,1.343,0,3v10c0,1.656,1.343,3,3,3h10
			c1.656,0,3-1.344,3-3V3C16,1.343,14.656,0,13,0z M2.5,14C2.224,14,2,13.776,2,13.5C2,13.225,2.224,13,2.5,13
			C2.776,13,3,13.225,3,13.5C3,13.776,2.776,14,2.5,14z M2.5,3C2.224,3,2,2.776,2,2.5C2,2.224,2.224,2,2.5,2C2.776,2,3,2.224,3,2.5
			C3,2.776,2.776,3,2.5,3z M11,13c0,0.553-0.447,1-1,1H6c-0.552,0-1-0.447-1-1V3c0-0.552,0.448-1,1-1h4c0.553,0,1,0.448,1,1V13z
			 M13.5,14c-0.275,0-0.5-0.224-0.5-0.5c0-0.275,0.225-0.5,0.5-0.5s0.5,0.225,0.5,0.5C14,13.776,13.775,14,13.5,14z M13.5,3
			C13.225,3,13,2.776,13,2.5C13,2.224,13.225,2,13.5,2S14,2.224,14,2.5C14,2.776,13.775,3,13.5,3z M9,8H7C6.448,8,6,8.448,6,9v3
			c0,0.553,0.448,1,1,1h2c0.553,0,1-0.447,1-1V9C10,8.448,9.553,8,9,8z"/>
	</g>
</g>
</svg>
