<?xml version="1.0" encoding="utf-8"?>
<!-- Generator: Adobe Illustrator 15.1.0, SVG Export Plug-In . SVG Version: 6.00 Build 0)  -->
<!DOCTYPE svg PUBLIC "-//W3C//DTD SVG 1.1//EN" "http://www.w3.org/Graphics/SVG/1.1/DTD/svg11.dtd">
<svg version="1.1" id="Layer_1" xmlns="http://www.w3.org/2000/svg" xmlns:xlink="http://www.w3.org/1999/xlink" x="0px" y="0px"
	 width="16px" height="16px" viewBox="0 0 16 16" enable-background="new 0 0 16 16" xml:space="preserve">
<path fill-rule="evenodd" clip-rule="evenodd" fill="#231F20" d="M15.121,12.121l-3,3c-1.172,1.172-3.07,1.172-4.242,0l-5-5
	C2.293,9.535,2,8.768,2,8V2h3c0-0.553-0.447-1-1-1H2C1.447,1,1,1.447,1,2v1.5C1,3.776,0.776,4,0.5,4S0,3.776,0,3.5V2
	c0-1.104,0.896-2,2-2h2c1.104,0,2,0.896,2,2l0,0v3.5C6,5.776,5.776,6,5.5,6S5,5.776,5,5.5V4.101C4.42,4.309,4,4.849,4,5.5
	C4,6.328,4.672,7,5.5,7S7,6.328,7,5.5V2h1c0.768,0,1.535,0.293,2.121,0.879l5,5C16.293,9.051,16.293,10.949,15.121,12.121z"/>
</svg>
