<?xml version="1.0" encoding="utf-8"?>
<!-- Generator: Adobe Illustrator 15.1.0, SVG Export Plug-In . SVG Version: 6.00 Build 0)  -->
<!DOCTYPE svg PUBLIC "-//W3C//DTD SVG 1.1//EN" "http://www.w3.org/Graphics/SVG/1.1/DTD/svg11.dtd">
<svg version="1.1" id="Layer_1" xmlns="http://www.w3.org/2000/svg" xmlns:xlink="http://www.w3.org/1999/xlink" x="0px" y="0px"
	 width="16px" height="16px" viewBox="0 0 16 16" enable-background="new 0 0 16 16" xml:space="preserve">
<path fill-rule="evenodd" clip-rule="evenodd" fill="#231F20" d="M15.121,12.121l-3,3c-1.172,1.172-3.07,1.172-4.242,0l-5-5
	C2.293,9.535,2,8.768,2,8V2h3c0-0.552-0.448-1-1-1H2C1.448,1,1,1.448,1,2v1.5C1,3.776,0.776,4,0.5,4S0,3.776,0,3.5V2
	c0-1.104,0.896-2,2-2h2c1.104,0,2,0.896,2,2h2c0.768,0,1.535,0.293,2.121,0.879l5,5C16.293,9.051,16.293,10.949,15.121,12.121z
	 M6,4.101V5.5C6,5.776,5.776,6,5.5,6S5,5.776,5,5.5V4.101C4.42,4.309,4,4.849,4,5.5C4,6.329,4.671,7,5.5,7S7,6.329,7,5.5
	C7,4.849,6.58,4.309,6,4.101z M13.707,9.293l-5-5C8.512,4.098,8.256,4,8,4H7.489C7.805,4.419,8,4.935,8,5.5C8,6.881,6.881,8,5.5,8
	C4.935,8,4.419,7.805,4,7.489V8c0,0.256,0.098,0.512,0.293,0.707l5,5c0.391,0.391,1.023,0.391,1.414,0l3-3
	C14.098,10.316,14.098,9.684,13.707,9.293z"/>
</svg>
