<?xml version="1.0" encoding="utf-8"?>
<!-- Generator: Adobe Illustrator 15.1.0, SVG Export Plug-In . SVG Version: 6.00 Build 0)  -->
<!DOCTYPE svg PUBLIC "-//W3C//DTD SVG 1.1//EN" "http://www.w3.org/Graphics/SVG/1.1/DTD/svg11.dtd">
<svg version="1.1" id="Layer_1" xmlns="http://www.w3.org/2000/svg" xmlns:xlink="http://www.w3.org/1999/xlink" x="0px" y="0px"
	 width="16px" height="16px" viewBox="0 0 16 16" enable-background="new 0 0 16 16" xml:space="preserve">
<g>
	<g>
		<path fill-rule="evenodd" clip-rule="evenodd" fill="#231F20" d="M15.121,7.879l-7-7C7.535,0.293,6.768,0,6,0H0v6
			c0,0.768,0.293,1.535,0.879,2.121l7,7c1.172,1.172,3.07,1.172,4.242,0l3-3C16.293,10.949,16.293,9.051,15.121,7.879z
			 M13.707,10.707l-3,3c-0.391,0.391-1.023,0.391-1.414,0l-7-7C2.098,6.512,2,6.256,2,6V2h4c0.256,0,0.512,0.098,0.707,0.293l7,7
			C14.098,9.684,14.098,10.316,13.707,10.707z M4,3C3.447,3,3,3.447,3,4s0.447,1,1,1s1-0.447,1-1S4.553,3,4,3z"/>
	</g>
</g>
</svg>
