<?xml version="1.0" encoding="utf-8"?>
<!-- Generator: Adobe Illustrator 15.1.0, SVG Export Plug-In . SVG Version: 6.00 Build 0)  -->
<!DOCTYPE svg PUBLIC "-//W3C//DTD SVG 1.1//EN" "http://www.w3.org/Graphics/SVG/1.1/DTD/svg11.dtd">
<svg version="1.1" id="Layer_1" xmlns="http://www.w3.org/2000/svg" xmlns:xlink="http://www.w3.org/1999/xlink" x="0px" y="0px"
	 width="16px" height="16px" viewBox="0 0 16 16" enable-background="new 0 0 16 16" xml:space="preserve">
<path fill-rule="evenodd" clip-rule="evenodd" fill="#231F20" d="M13,16H3c-1.657,0-3-1.343-3-3V3c0-1.657,1.343-3,3-3h10
	c1.656,0,3,1.343,3,3v10C16,14.657,14.656,16,13,16z M14,3c0-0.553-0.447-1-1-1H3C2.448,2,2,2.447,2,3v10c0,0.553,0.448,1,1,1h10
	c0.553,0,1-0.447,1-1V3z M11.5,12c-0.65,0-1.191-0.42-1.398-1H7.898C7.691,11.58,7.15,12,6.5,12C5.671,12,5,11.328,5,10.5
	S5.671,9,6.5,9c0.65,0,1.191,0.42,1.398,1h2.203c0.207-0.58,0.748-1,1.398-1c0.828,0,1.5,0.672,1.5,1.5S12.328,12,11.5,12z M11.5,10
	c-0.275,0-0.5,0.224-0.5,0.5s0.225,0.5,0.5,0.5s0.5-0.224,0.5-0.5S11.775,10,11.5,10z M9.5,7C8.85,7,8.309,6.58,8.102,6H5.899
	C5.691,6.58,5.151,7,4.5,7C3.671,7,3,6.328,3,5.5S3.671,4,4.5,4c0.651,0,1.191,0.42,1.399,1h2.203C8.309,4.42,8.85,4,9.5,4
	C10.328,4,11,4.672,11,5.5S10.328,7,9.5,7z M4.5,5C4.224,5,4,5.224,4,5.5S4.224,6,4.5,6C4.776,6,5,5.776,5,5.5S4.776,5,4.5,5z"/>
</svg>
