<?xml version="1.0" encoding="utf-8"?>
<!-- Generator: Adobe Illustrator 15.1.0, SVG Export Plug-In . SVG Version: 6.00 Build 0)  -->
<!DOCTYPE svg PUBLIC "-//W3C//DTD SVG 1.1//EN" "http://www.w3.org/Graphics/SVG/1.1/DTD/svg11.dtd">
<svg version="1.1" id="Layer_1" xmlns="http://www.w3.org/2000/svg" xmlns:xlink="http://www.w3.org/1999/xlink" x="0px" y="0px"
	 width="16px" height="16px" viewBox="0 0 16 16" enable-background="new 0 0 16 16" xml:space="preserve">
<path fill-rule="evenodd" clip-rule="evenodd" fill="#231F20" d="M13,16H3c-1.657,0-3-1.344-3-3V3c0-1.657,1.343-3,3-3h10
	c1.656,0,3,1.343,3,3v10C16,14.656,14.656,16,13,16z M2.5,14C2.776,14,3,13.776,3,13.5C3,13.225,2.776,13,2.5,13
	C2.224,13,2,13.225,2,13.5C2,13.776,2.224,14,2.5,14z M2.5,2C2.224,2,2,2.224,2,2.5C2,2.776,2.224,3,2.5,3C2.776,3,3,2.776,3,2.5
	C3,2.224,2.776,2,2.5,2z M13.5,2C13.225,2,13,2.224,13,2.5C13,2.776,13.225,3,13.5,3S14,2.776,14,2.5C14,2.224,13.775,2,13.5,2z
	 M11,5H5C3.343,5,2,6.343,2,8c0,1.656,1.343,3,3,3h6c1.656,0,3-1.344,3-3C14,6.343,12.656,5,11,5z M13.5,13
	c-0.275,0-0.5,0.225-0.5,0.5c0,0.276,0.225,0.5,0.5,0.5s0.5-0.224,0.5-0.5C14,13.225,13.775,13,13.5,13z M5,10c-1.104,0-2-0.896-2-2
	s0.896-2,2-2s2,0.896,2,2S6.104,10,5,10z"/>
</svg>
