<?xml version="1.0" encoding="utf-8"?>
<!-- Generator: Adobe Illustrator 15.1.0, SVG Export Plug-In . SVG Version: 6.00 Build 0)  -->
<!DOCTYPE svg PUBLIC "-//W3C//DTD SVG 1.1//EN" "http://www.w3.org/Graphics/SVG/1.1/DTD/svg11.dtd">
<svg version="1.1" id="Layer_1" xmlns="http://www.w3.org/2000/svg" xmlns:xlink="http://www.w3.org/1999/xlink" x="0px" y="0px"
	 width="16px" height="16px" viewBox="0 0 16 16" enable-background="new 0 0 16 16" xml:space="preserve">
<g>
	<g>
		<path fill-rule="evenodd" clip-rule="evenodd" fill="#231F20" d="M13,0H3C1.343,0,0,1.343,0,3v10c0,1.656,1.343,3,3,3h10
			c1.656,0,3-1.344,3-3V3C16,1.343,14.656,0,13,0z M2.5,2C2.776,2,3,2.224,3,2.5C3,2.776,2.776,3,2.5,3C2.224,3,2,2.776,2,2.5
			C2,2.224,2.224,2,2.5,2z M2.5,14C2.224,14,2,13.776,2,13.5C2,13.225,2.224,13,2.5,13C2.776,13,3,13.225,3,13.5
			C3,13.776,2.776,14,2.5,14z M13.5,14c-0.275,0-0.5-0.224-0.5-0.5c0-0.275,0.225-0.5,0.5-0.5s0.5,0.225,0.5,0.5
			C14,13.776,13.775,14,13.5,14z M11,11H5c-1.657,0-3-1.344-3-3c0-1.657,1.343-3,3-3h6c1.656,0,3,1.343,3,3
			C14,9.656,12.656,11,11,11z M13.5,3C13.225,3,13,2.776,13,2.5C13,2.224,13.225,2,13.5,2S14,2.224,14,2.5C14,2.776,13.775,3,13.5,3
			z M11,6C9.896,6,9,6.896,9,8s0.896,2,2,2s2-0.896,2-2S12.104,6,11,6z"/>
	</g>
</g>
</svg>
