<?xml version="1.0" encoding="utf-8"?>
<!-- Generator: Adobe Illustrator 15.1.0, SVG Export Plug-In . SVG Version: 6.00 Build 0)  -->
<!DOCTYPE svg PUBLIC "-//W3C//DTD SVG 1.1//EN" "http://www.w3.org/Graphics/SVG/1.1/DTD/svg11.dtd">
<svg version="1.1" id="Layer_1" xmlns="http://www.w3.org/2000/svg" xmlns:xlink="http://www.w3.org/1999/xlink" x="0px" y="0px"
	 width="16px" height="16px" viewBox="0 0 16 16" enable-background="new 0 0 16 16" xml:space="preserve">
<g>
	<path fill="#231F20" d="M2.293,6.706c0.286,0.286,0.716,0.371,1.09,0.217C3.756,6.769,4,6.403,4,5.999V5h1V3H4V1.999
		c0-0.404-0.244-0.77-0.617-0.924c-0.374-0.154-0.804-0.068-1.09,0.217l-2,2C0.098,3.487,0,3.743,0,3.999s0.098,0.512,0.293,0.707
		L2.293,6.706z"/>
	<path fill="#231F20" d="M13.707,9.292c-0.286-0.285-0.716-0.371-1.09-0.217C12.244,9.229,12,9.595,12,9.999V11h-1v2h1v0.999
		c0,0.404,0.244,0.77,0.617,0.924c0.374,0.154,0.804,0.069,1.09-0.217l2-2C15.902,12.511,16,12.255,16,11.999
		s-0.098-0.512-0.293-0.707L13.707,9.292z"/>
	<rect x="7" y="11" fill="#231F20" width="1" height="2"/>
	<rect x="6" y="3" fill="#231F20" width="1" height="2"/>
	<path fill="#231F20" d="M5,9H1c-0.552,0-1,0.448-1,1v4c0,0.553,0.448,1,1,1h4c0.552,0,1-0.447,1-1v-4C6,9.448,5.552,9,5,9z M4,13H2
		v-2h2V13z"/>
	<rect x="8" y="3" fill="#231F20" width="1" height="2"/>
	<path fill="#231F20" d="M15,1h-4c-0.553,0-1,0.448-1,1v4c0,0.552,0.447,1,1,1h4c0.553,0,1-0.448,1-1V2C16,1.448,15.553,1,15,1z
		 M14,5h-2V3h2V5z"/>
	<rect x="9" y="11" fill="#231F20" width="1" height="2"/>
</g>
</svg>
