<?xml version="1.0" encoding="utf-8"?>
<!-- Generator: Adobe Illustrator 15.1.0, SVG Export Plug-In . SVG Version: 6.00 Build 0)  -->
<!DOCTYPE svg PUBLIC "-//W3C//DTD SVG 1.1//EN" "http://www.w3.org/Graphics/SVG/1.1/DTD/svg11.dtd">
<svg version="1.1" id="Layer_1" xmlns="http://www.w3.org/2000/svg" xmlns:xlink="http://www.w3.org/1999/xlink" x="0px" y="0px"
	 width="16px" height="16px" viewBox="0 0 16 16" enable-background="new 0 0 16 16" xml:space="preserve">
<path fill-rule="evenodd" clip-rule="evenodd" fill="#231F20" d="M15,16H5c-0.553,0-1-0.447-1-1v-3H1c-0.553,0-1-0.447-1-1V1
	c0-0.553,0.447-1,1-1h10c0.553,0,1,0.447,1,1v3h3c0.553,0,1,0.447,1,1v10C16,15.553,15.553,16,15,16z M14,6h-4l0,0V2H2v8h2h2l0,0v4
	h8V6z"/>
</svg>
