<?xml version="1.0" encoding="utf-8"?>
<!-- Generator: Adobe Illustrator 15.1.0, SVG Export Plug-In . SVG Version: 6.00 Build 0)  -->
<!DOCTYPE svg PUBLIC "-//W3C//DTD SVG 1.1//EN" "http://www.w3.org/Graphics/SVG/1.1/DTD/svg11.dtd">
<svg version="1.1" id="Layer_1" xmlns="http://www.w3.org/2000/svg" xmlns:xlink="http://www.w3.org/1999/xlink" x="0px" y="0px"
	 width="16px" height="16px" viewBox="0 0 16 16" enable-background="new 0 0 16 16" xml:space="preserve">
<path fill-rule="evenodd" clip-rule="evenodd" fill="#231F20" d="M13,7c0.553,0,1,0.448,1,1v7c0,0.553-0.447,1-1,1H3
	c-0.552,0-1-0.447-1-1V8c0-0.552,0.448-1,1-1V5c0-2.762,2.239-5,5-5c2.419,0,4.436,1.718,4.899,4h-2.083C10.402,2.838,9.305,2,8,2
	C6.343,2,5,3.343,5,5v2H13 M12,9H4v5h8V9z"/>
</svg>
