<?xml version="1.0" encoding="utf-8"?>
<!-- Generator: Adobe Illustrator 15.1.0, SVG Export Plug-In . SVG Version: 6.00 Build 0)  -->
<!DOCTYPE svg PUBLIC "-//W3C//DTD SVG 1.1//EN" "http://www.w3.org/Graphics/SVG/1.1/DTD/svg11.dtd">
<svg version="1.1" id="Layer_1" xmlns="http://www.w3.org/2000/svg" xmlns:xlink="http://www.w3.org/1999/xlink" x="0px" y="0px"
	 width="16px" height="16px" viewBox="0 0 16 16" enable-background="new 0 0 16 16" xml:space="preserve">
<path fill-rule="evenodd" clip-rule="evenodd" fill="#231F20" d="M8,16c-4.418,0-8-3.582-8-8s3.582-8,8-8c4.418,0,8,3.582,8,8
	S12.418,16,8,16z M8,2C4.687,2,2,4.687,2,8c0,3.314,2.687,6,6,6s6-2.686,6-6C14,4.687,11.313,2,8,2z M8,13
	c-1.077,0-2.068-0.348-2.885-0.928C5.043,11.896,5,11.703,5,11.5l0,0c0.154-0.917,0.771-1.688,1.557-2.122C6.213,9.02,6,8.535,6,8V7
	c0-1.104,0.896-2,2-2s2,0.896,2,2v1c0,0.535-0.213,1.02-0.556,1.378C10.229,9.812,10.846,10.583,11,11.5l0,0
	c0,0.203-0.043,0.396-0.115,0.572C10.068,12.652,9.077,13,8,13z"/>
</svg>
