<?xml version="1.0" encoding="utf-8"?>
<!-- Generator: Adobe Illustrator 15.1.0, SVG Export Plug-In . SVG Version: 6.00 Build 0)  -->
<!DOCTYPE svg PUBLIC "-//W3C//DTD SVG 1.1//EN" "http://www.w3.org/Graphics/SVG/1.1/DTD/svg11.dtd">
<svg version="1.1" id="Layer_1" xmlns="http://www.w3.org/2000/svg" xmlns:xlink="http://www.w3.org/1999/xlink" x="0px" y="0px"
	 width="16px" height="16px" viewBox="0 0 16 16" enable-background="new 0 0 16 16" xml:space="preserve">
<path fill-rule="evenodd" clip-rule="evenodd" fill="#231F20" d="M12.889,8.756C13.573,8.038,14,7.071,14,6V4c0-2.209-1.791-4-4-4
	C9.69,0,9.392,0.043,9.102,0.11c0.661,0.528,1.195,1.206,1.521,1.999C11.421,2.372,12,3.114,12,4v2c0,0.885-0.579,1.627-1.376,1.891
	c-0.087,0.211-0.187,0.417-0.303,0.614c0.763,0.589,1.391,1.317,1.857,2.125C13.061,11.168,13.742,12.004,14,13c0,0.553-0.447,1-1,1
	h-0.142c-0.206,0.79-0.644,1.479-1.24,2H13c1.656,0,3-1.344,3-3C15.691,11.166,14.457,9.625,12.889,8.756z"/>
<path fill-rule="evenodd" clip-rule="evenodd" fill="#231F20" d="M9,16H3c-1.657,0-3-1.344-3-3l0,0
	c0.309-1.834,1.543-3.375,3.112-4.244C2.427,8.038,2,7.071,2,6V4c0-2.209,1.791-4,4-4s4,1.791,4,4v2
	c0,1.071-0.427,2.038-1.111,2.756C10.457,9.625,11.691,11.166,12,13l0,0C12,14.656,10.656,16,9,16z M8,6V4c0-1.104-0.896-2-2-2
	S4,2.896,4,4v2c0,1.104,0.896,2,2,2S8,7.104,8,6z M10,13c-0.446-1.723-2.139-3-4-3l0,0l0,0c-1.862,0-3.554,1.277-4,3l0,0
	c0,0.553,0.448,1,1,1h6C9.553,14,10,13.553,10,13L10,13z"/>
</svg>
