<?xml version="1.0" encoding="utf-8"?>
<!-- Generator: Adobe Illustrator 15.1.0, SVG Export Plug-In . SVG Version: 6.00 Build 0)  -->
<!DOCTYPE svg PUBLIC "-//W3C//DTD SVG 1.1//EN" "http://www.w3.org/Graphics/SVG/1.1/DTD/svg11.dtd">
<svg version="1.1" id="Layer_1" xmlns="http://www.w3.org/2000/svg" xmlns:xlink="http://www.w3.org/1999/xlink" x="0px" y="0px"
	 width="16px" height="16px" viewBox="0 0 16 16" enable-background="new 0 0 16 16" xml:space="preserve">
<path fill-rule="evenodd" clip-rule="evenodd" fill="#231F20" d="M11,16H5c-1.657,0-3-1.344-3-3l0,0
	c0.309-1.834,1.543-3.375,3.112-4.244C4.427,8.038,4,7.071,4,6V4c0-2.209,1.791-4,4-4s4,1.791,4,4v2
	c0,1.071-0.427,2.038-1.111,2.756C12.457,9.625,13.691,11.166,14,13l0,0C14,14.656,12.656,16,11,16z M10,6V4c0-1.104-0.896-2-2-2
	S6,2.896,6,4v2c0,1.104,0.896,2,2,2S10,7.104,10,6z M12,13c-0.446-1.723-2.139-3-4-3l0,0l0,0c-1.862,0-3.554,1.277-4,3l0,0
	c0,0.553,0.448,1,1,1h6C11.553,14,12,13.553,12,13L12,13z"/>
</svg>
