<?xml version="1.0" encoding="utf-8"?>
<!-- Generator: Adobe Illustrator 15.1.0, SVG Export Plug-In . SVG Version: 6.00 Build 0)  -->
<!DOCTYPE svg PUBLIC "-//W3C//DTD SVG 1.1//EN" "http://www.w3.org/Graphics/SVG/1.1/DTD/svg11.dtd">
<svg version="1.1" id="Layer_1" xmlns="http://www.w3.org/2000/svg" xmlns:xlink="http://www.w3.org/1999/xlink" x="0px" y="0px"
	 width="16px" height="16px" viewBox="0 0 16 16" enable-background="new 0 0 16 16" xml:space="preserve">
<path fill-rule="evenodd" clip-rule="evenodd" fill="#231F20" d="M15,14h-3v-1h0.5c0.276,0,0.5-0.224,0.5-0.5S12.776,12,12.5,12h-2
	c-0.275,0-0.5,0.224-0.5,0.5s0.225,0.5,0.5,0.5H11v1H5v-1h0.5C5.776,13,6,12.776,6,12.5S5.776,12,5.5,12h-2
	C3.224,12,3,12.224,3,12.5S3.224,13,3.5,13H4v1H1c-0.552,0-1-0.447-1-1V3c0-0.552,0.448-1,1-1h14c0.553,0,1,0.448,1,1v10
	C16,13.553,15.553,14,15,14z M10,11h1v-1h-1V11z M10,7h2V6h-2V7z M9,4H2v7h7V4z M13,4h-3v1h3V4z M15,4h-1v1h1V4z M15,6h-2v1h2V6z
	 M15,8h-5v1h5V8z M5,9.061V8.899C4.42,8.691,4,8.151,4,7.5v-1C4,5.671,4.671,5,5.5,5S7,5.671,7,6.5v1c0,0.651-0.42,1.191-1,1.399
	v0.161C6.604,9.186,7.129,9.524,7.489,10H6H5H3.511C3.871,9.524,4.396,9.186,5,9.061z"/>
</svg>
