<?xml version="1.0" encoding="utf-8"?>
<!-- Generator: Adobe Illustrator 15.1.0, SVG Export Plug-In . SVG Version: 6.00 Build 0)  -->
<!DOCTYPE svg PUBLIC "-//W3C//DTD SVG 1.1//EN" "http://www.w3.org/Graphics/SVG/1.1/DTD/svg11.dtd">
<svg version="1.1" id="Layer_1" xmlns="http://www.w3.org/2000/svg" xmlns:xlink="http://www.w3.org/1999/xlink" x="0px" y="0px"
	 width="16px" height="16px" viewBox="0 0 16 16" enable-background="new 0 0 16 16" xml:space="preserve">
<path fill-rule="evenodd" clip-rule="evenodd" fill="#231F20" d="M15,16H1c0-1.809,2.116-3.32,5-3.814v-0.74
	C4.81,10.752,4,9.477,4,8V7.899C3.42,7.691,3,7.151,3,6.5c0-0.651,0.42-1.191,1-1.399V5c0-2.209,1.791-4,4-4s4,1.791,4,4v0.101
	c0.58,0.208,1,0.748,1,1.399c0,0.651-0.42,1.191-1,1.399V8c0,1.477-0.81,2.752-2,3.445v0.74C12.885,12.68,15,14.191,15,16z"/>
</svg>
