<?xml version="1.0" encoding="utf-8"?>
<!-- Generator: Adobe Illustrator 15.1.0, SVG Export Plug-In . SVG Version: 6.00 Build 0)  -->
<!DOCTYPE svg PUBLIC "-//W3C//DTD SVG 1.1//EN" "http://www.w3.org/Graphics/SVG/1.1/DTD/svg11.dtd">
<svg version="1.1" id="Layer_1" xmlns="http://www.w3.org/2000/svg" xmlns:xlink="http://www.w3.org/1999/xlink" x="0px" y="0px"
	 width="16px" height="16px" viewBox="0 0 16 16" enable-background="new 0 0 16 16" xml:space="preserve">
<path fill-rule="evenodd" clip-rule="evenodd" fill="#231F20" d="M13,16H3c-1.657,0-3-1.344-3-3V3c0-1.657,1.343-3,3-3h10
	c1.656,0,3,1.343,3,3v10C16,14.656,14.656,16,13,16z M14,3c0-0.552-0.447-1-1-1H3l0,0l0,0v1H2l0,0l0,0v2h12V3z M14,7H2v6
	c0,0.553,0.448,1,1,1h10c0.553,0,1-0.447,1-1V7z M3,10h9v1H3V10z M3,8h9v1H3V8z M10,13H3v-1h7V13z M6,3H5V2h1V3z M7,4H6V3h1V4z M5,5
	V4h1v1H5z M9,3H8V2h1V3z M10,4H9V3h1V4z M8,5V4h1v1H8z M12,3h-1V2h1V3z M13,4h-1V3h1V4z M11,5V4h1v1H11z M4,4H3V3h1V4z M2,5V4h1v1H2
	z"/>
</svg>
