<?xml version="1.0" encoding="utf-8"?>
<!-- Generator: Adobe Illustrator 15.1.0, SVG Export Plug-In . SVG Version: 6.00 Build 0)  -->
<!DOCTYPE svg PUBLIC "-//W3C//DTD SVG 1.1//EN" "http://www.w3.org/Graphics/SVG/1.1/DTD/svg11.dtd">
<svg version="1.1" id="Layer_1" xmlns="http://www.w3.org/2000/svg" xmlns:xlink="http://www.w3.org/1999/xlink" x="0px" y="0px"
	 width="16px" height="16px" viewBox="0 0 16 16" enable-background="new 0 0 16 16" xml:space="preserve">
<path fill-rule="evenodd" clip-rule="evenodd" fill="#231F20" d="M8,16c4.418,0,8-3.582,8-8c0-4.418-3.582-8-8-8S0,3.582,0,8
	C0,12.418,3.582,16,8,16z M8,2c3.313,0,6,2.687,6,6c0,3.314-2.687,6-6,6s-6-2.686-6-6C2,4.687,4.687,2,8,2z M4,8
	c0-2.209,1.791-4,4-4V3C5.238,3,3,5.239,3,8H4z M5,8c0,1.656,1.343,3,3,3s3-1.344,3-3c0-1.657-1.343-3-3-3S5,6.343,5,8z M8,7
	c0.553,0,1,0.448,1,1S8.553,9,8,9S7,8.552,7,8S7.447,7,8,7z M8,12v1c2.762,0,5-2.238,5-5h-1C12,10.209,10.209,12,8,12z"/>
</svg>
