<?xml version="1.0" encoding="utf-8"?>
<!-- Generator: Adobe Illustrator 15.1.0, SVG Export Plug-In . SVG Version: 6.00 Build 0)  -->
<!DOCTYPE svg PUBLIC "-//W3C//DTD SVG 1.1//EN" "http://www.w3.org/Graphics/SVG/1.1/DTD/svg11.dtd">
<svg version="1.1" id="Layer_1" xmlns="http://www.w3.org/2000/svg" xmlns:xlink="http://www.w3.org/1999/xlink" x="0px" y="0px"
	 width="16px" height="16px" viewBox="0 0 16 16" enable-background="new 0 0 16 16" xml:space="preserve">
<path fill-rule="evenodd" clip-rule="evenodd" fill="#231F20" d="M12.5,11h-9c-0.242,0-0.478-0.024-0.706-0.071
	c-0.683-0.14-1.294-0.479-1.77-0.954C0.392,9.342,0,8.467,0,7.5C0,5.566,1.567,4,3.5,4S7,5.566,7,7.5C7,8.039,6.868,8.544,6.65,9
	H9.35C9.132,8.544,9,8.039,9,7.5C9,5.566,10.567,4,12.5,4S16,5.566,16,7.5C16,9.433,14.433,11,12.5,11z M5,7.5
	C5,6.672,4.329,6,3.5,6S2,6.672,2,7.5S2.671,9,3.5,9S5,8.328,5,7.5z M12.5,6C11.672,6,11,6.672,11,7.5S11.672,9,12.5,9
	S14,8.328,14,7.5S13.328,6,12.5,6z"/>
</svg>
