<?xml version="1.0" encoding="utf-8"?>
<!-- Generator: Adobe Illustrator 15.1.0, SVG Export Plug-In . SVG Version: 6.00 Build 0)  -->
<!DOCTYPE svg PUBLIC "-//W3C//DTD SVG 1.1//EN" "http://www.w3.org/Graphics/SVG/1.1/DTD/svg11.dtd">
<svg version="1.1" id="Layer_1" xmlns="http://www.w3.org/2000/svg" xmlns:xlink="http://www.w3.org/1999/xlink" x="0px" y="0px"
	 width="16px" height="16px" viewBox="0 0 16 16" enable-background="new 0 0 16 16" xml:space="preserve">
<path fill-rule="evenodd" clip-rule="evenodd" fill="#231F20" d="M14,14h-0.184c-0.413,1.162-1.512,2-2.816,2H3
	c-1.657,0-3-1.343-3-3V3c0-1.657,1.343-3,3-3h8c1.657,0,3,1.343,3,3v4c1.104,0,2,0.896,2,2v3C16,13.104,15.104,14,14,14z M9,14h2
	c0.553,0,1-0.447,1-1l0,0h-1h-1H9V14z M2,13c0,0.553,0.448,1,1,1h4v-1H6c-1.104,0-2-0.896-2-2v-1c0-1.104,0.896-2,2-2h1V7H2V13z
	 M8,5c0.553,0,1,0.447,1,1v2h1V4H4v1H8z M12,7V3c0-0.553-0.447-1-1-1H3C2.448,2,2,2.447,2,3v2h1V4V3h1h6h1v1v4h1V7z M14,10
	c0-0.553-0.447-1-1-1h-1H6.5H6c-0.552,0-1,0.447-1,1v1c0,0.553,0.448,1,1,1h0.5H12h1c0.553,0,1-0.447,1-1V10z"/>
</svg>
