<?xml version="1.0" encoding="utf-8"?>
<!-- Generator: Adobe Illustrator 15.1.0, SVG Export Plug-In . SVG Version: 6.00 Build 0)  -->
<!DOCTYPE svg PUBLIC "-//W3C//DTD SVG 1.1//EN" "http://www.w3.org/Graphics/SVG/1.1/DTD/svg11.dtd">
<svg version="1.1" id="Layer_1" xmlns="http://www.w3.org/2000/svg" xmlns:xlink="http://www.w3.org/1999/xlink" x="0px" y="0px"
	 width="16px" height="16px" viewBox="0 0 16 16" enable-background="new 0 0 16 16" xml:space="preserve">
<path fill-rule="evenodd" clip-rule="evenodd" fill="#231F20" d="M0,13V3c0-1.657,1.343-3,3-3h8c1.656,0,3,1.343,3,3v2h1
	c0.553,0,1,0.447,1,1v4c0,0.553-0.447,1-1,1h-1v2c0,1.657-1.344,3-3,3H3C1.343,16,0,14.657,0,13z M15,10V6H9v4H15z M11,14
	c0.553,0,1-0.447,1-1v-2h-1v1h-1v-1H9c-0.552,0-1-0.447-1-1V6c0-0.553,0.448-1,1-1h1h1h1V3c0-0.552-0.447-1-1-1H3
	C2.448,2,2,2.448,2,3v10c0,0.553,0.448,1,1,1H11z M3,12h1v1C3.448,13,3,12.553,3,12z M6,12v1H5v-1H6z M8,12v1H7v-1H8z M4,10v1H3v-1
	H4z M4,8v1H3V8H4z M4,6v1H3V6H4z M4,4v1H3V4H4z M5,3v1H4V3H5z M7,3v1H6V3H7z M9,3v1H8V3H9z M11,4h-1V3C10.553,3,11,3.448,11,4z
	 M9,13v-1h1v1H9z M12,8c0,0.553-0.447,1-1,1s-1-0.447-1-1s0.447-1,1-1S12,7.447,12,8z"/>
</svg>
