<?xml version="1.0" encoding="utf-8"?>
<!-- Generator: Adobe Illustrator 15.1.0, SVG Export Plug-In . SVG Version: 6.00 Build 0)  -->
<!DOCTYPE svg PUBLIC "-//W3C//DTD SVG 1.1//EN" "http://www.w3.org/Graphics/SVG/1.1/DTD/svg11.dtd">
<svg version="1.1" id="Layer_1" xmlns="http://www.w3.org/2000/svg" xmlns:xlink="http://www.w3.org/1999/xlink" x="0px" y="0px"
	 width="16px" height="16px" viewBox="0 0 16 16" enable-background="new 0 0 16 16" xml:space="preserve">
<path fill-rule="evenodd" clip-rule="evenodd" fill="#231F20" d="M13,13L13,13V3c0-0.552-0.447-1-1-1s-1,0.448-1,1v10l0,0
	c0,1.656-1.343,3-3,3s-3-1.344-3-3V3c0-0.552-0.447-1-1-1S3,2.448,3,3v10l0,0c0,1.656-1.343,3-3,3v-2c0.553,0,1-0.447,1-1l0,0V3
	c0-1.657,1.343-3,3-3s3,1.343,3,3v10c0,0.553,0.447,1,1,1s1-0.447,1-1V3l0,0c0-1.657,1.343-3,3-3s3,1.343,3,3v10
	c0,0.553,0.447,1,1,1v2C14.343,16,13,14.656,13,13z"/>
</svg>
