<?xml version="1.0" encoding="utf-8"?>
<!-- Generator: Adobe Illustrator 15.1.0, SVG Export Plug-In . SVG Version: 6.00 Build 0)  -->
<!DOCTYPE svg PUBLIC "-//W3C//DTD SVG 1.1//EN" "http://www.w3.org/Graphics/SVG/1.1/DTD/svg11.dtd">
<svg version="1.1" id="Layer_1" xmlns="http://www.w3.org/2000/svg" xmlns:xlink="http://www.w3.org/1999/xlink" x="0px" y="0px"
	 width="16px" height="16px" viewBox="0 0 16 16" enable-background="new 0 0 16 16" xml:space="preserve">
<path fill-rule="evenodd" clip-rule="evenodd" fill="#231F20" d="M14,15c-0.553,0-1-0.447-1-1V5c0-1.104-0.896-2-2-2S9,3.896,9,5v6
	c0,2.209-1.791,4-4,4s-4-1.791-4-4V2c0-0.552,0.447-1,1-1s1,0.448,1,1v9c0,1.104,0.896,2,2,2s2-0.896,2-2V5c0-2.209,1.791-4,4-4
	s4,1.791,4,4v9C15,14.553,14.553,15,14,15z"/>
</svg>
