<?xml version="1.0" encoding="utf-8"?>
<!-- Generator: Adobe Illustrator 15.1.0, SVG Export Plug-In . SVG Version: 6.00 Build 0)  -->
<!DOCTYPE svg PUBLIC "-//W3C//DTD SVG 1.1//EN" "http://www.w3.org/Graphics/SVG/1.1/DTD/svg11.dtd">
<svg version="1.1" id="Layer_1" xmlns="http://www.w3.org/2000/svg" xmlns:xlink="http://www.w3.org/1999/xlink" x="0px" y="0px"
	 width="16px" height="16px" viewBox="0 0 16 16" enable-background="new 0 0 16 16" xml:space="preserve">
<path fill-rule="evenodd" clip-rule="evenodd" fill="#231F20" d="M13.657,8.343l-1.415,1.415c-2.343-2.344-6.142-2.344-8.484,0
	L2.343,8.343C5.467,5.219,10.532,5.219,13.657,8.343z M11.535,10.465l-1.414,1.414c-1.171-1.172-3.07-1.172-4.242,0l-1.414-1.414
	C6.417,8.512,9.583,8.512,11.535,10.465z M8,12c1.104,0,2,0.896,2,2s-0.896,2-2,2s-2-0.896-2-2S6.896,12,8,12z"/>
</svg>
