<?xml version="1.0" encoding="utf-8"?>
<!-- Generator: Adobe Illustrator 15.1.0, SVG Export Plug-In . SVG Version: 6.00 Build 0)  -->
<!DOCTYPE svg PUBLIC "-//W3C//DTD SVG 1.1//EN" "http://www.w3.org/Graphics/SVG/1.1/DTD/svg11.dtd">
<svg version="1.1" id="Layer_1" xmlns="http://www.w3.org/2000/svg" xmlns:xlink="http://www.w3.org/1999/xlink" x="0px" y="0px"
	 width="16px" height="16px" viewBox="0 0 16 16" enable-background="new 0 0 16 16" xml:space="preserve">
<path fill-rule="evenodd" clip-rule="evenodd" fill="#231F20" d="M15.924,12.617C15.77,12.244,15.404,12,15,12h-1V3.5
	C14,1.567,12.433,0,10.5,0S7,1.567,7,3.5v9C7,13.328,6.329,14,5.5,14S4,13.328,4,12.5S4,4,4,4h1c0.404,0,0.77-0.244,0.924-0.617
	c0.154-0.374,0.069-0.804-0.217-1.09l-2-2C3.511,0.098,3.255,0,3,0S2.488,0.098,2.292,0.293l-2,2
	c-0.285,0.286-0.371,0.716-0.217,1.09C0.23,3.756,0.595,4,1,4h1c0,0,0,6.567,0,8.5S3.567,16,5.5,16C7.434,16,9,14.433,9,12.5v-9
	C9,2.671,9.672,2,10.5,2S12,2.671,12,3.5V12h-1c-0.404,0-0.77,0.244-0.924,0.617c-0.154,0.374-0.068,0.804,0.217,1.09l2,2
	C12.488,15.902,12.744,16,13,16s0.512-0.098,0.707-0.293l2-2C15.993,13.421,16.078,12.991,15.924,12.617z"/>
</svg>
