<?xml version="1.0" encoding="utf-8"?>
<!-- Generator: Adobe Illustrator 15.1.0, SVG Export Plug-In . SVG Version: 6.00 Build 0)  -->
<!DOCTYPE svg PUBLIC "-//W3C//DTD SVG 1.1//EN" "http://www.w3.org/Graphics/SVG/1.1/DTD/svg11.dtd">
<svg version="1.1" id="Layer_1" xmlns="http://www.w3.org/2000/svg" xmlns:xlink="http://www.w3.org/1999/xlink" x="0px" y="0px"
	 width="16px" height="16px" viewBox="0 0 16 16" enable-background="new 0 0 16 16" xml:space="preserve">
<path fill-rule="evenodd" clip-rule="evenodd" fill="#231F20" d="M15.533,15.533c-0.586,0.586-1.535,0.586-2.121,0l-2.647-2.647
	C9.676,13.583,8.389,14,7,14c-3.866,0-7-3.134-7-7s3.134-7,7-7s7,3.134,7,7c0,1.389-0.417,2.676-1.114,3.765l2.647,2.647
	C16.119,13.998,16.119,14.947,15.533,15.533z M7,2C4.239,2,2,4.239,2,7c0,2.762,2.239,5,5,5c2.762,0,5-2.238,5-5
	C12,4.239,9.762,2,7,2z M9,8H8v1c0,0.553-0.447,1-1,1S6,9.553,6,9V8H5C4.448,8,4,7.552,4,7s0.448-1,1-1h1V5c0-0.552,0.447-1,1-1
	s1,0.448,1,1v1h1c0.553,0,1,0.448,1,1S9.553,8,9,8z"/>
</svg>
