<?xml version="1.0" encoding="utf-8"?>
<!-- Generator: Adobe Illustrator 15.1.0, SVG Export Plug-In . SVG Version: 6.00 Build 0)  -->
<!DOCTYPE svg PUBLIC "-//W3C//DTD SVG 1.1//EN" "http://www.w3.org/Graphics/SVG/1.1/DTD/svg11.dtd">
<svg version="1.1" id="Layer_1" xmlns="http://www.w3.org/2000/svg" xmlns:xlink="http://www.w3.org/1999/xlink" x="0px" y="0px"
	 width="16px" height="16px" viewBox="0 0 16 16" enable-background="new 0 0 16 16" xml:space="preserve">
<path fill-rule="evenodd" clip-rule="evenodd" fill="#231F20" d="M15.533,15.533c-0.586,0.586-1.535,0.586-2.121,0l-3.516-3.515
	C8.906,12.63,7.75,13,6.5,13C2.91,13,0,10.09,0,6.5S2.91,0,6.5,0S13,2.91,13,6.5c0,1.25-0.37,2.406-0.981,3.397l3.515,3.515
	C16.119,13.998,16.119,14.947,15.533,15.533z M6.5,2C4.015,2,2,4.015,2,6.5S4.015,11,6.5,11S11,8.985,11,6.5S8.985,2,6.5,2z M7,9H6
	V7H4V6h2V4h1v2h2v1H7V9z"/>
</svg>
